<svg xmlns="http://www.w3.org/2000/svg" width="321.5" height="142.918" viewBox="0 0 321.5 142.918"><defs><style>.a{fill:#fff;}.b{fill:#1d1d1b;}.c{fill:#f4e600;}.d{fill:#00aad7;}.e{fill:#e51470;}</style></defs><g transform="translate(-135.213 -828.367)"><g transform="translate(280.337 854.979)"><path class="a" d="M258.89,862.722c-.168,4.739,3.824,9.207,8.493,9.908a10.009,10.009,0,0,0,8-1.841,1.37,1.37,0,0,1,.962-.389,1.036,1.036,0,0,1,.9.635.787.787,0,0,1-.257.968,10.585,10.585,0,0,1-4.715,2.3,12.365,12.365,0,0,1-9.644-1.534,11.858,11.858,0,0,1-3.2-17.254,12.1,12.1,0,0,1,7.242-4.538,12.869,12.869,0,0,1,8.668,1.236,8.524,8.524,0,0,1,1.446.92.971.971,0,1,1-1.139,1.543,10.416,10.416,0,0,0-6.317-2.145,10.236,10.236,0,0,0-8.914,4.845A8.951,8.951,0,0,0,258.89,862.722Z" transform="translate(-256.994 -850.698)"/></g><g transform="translate(393.226 873.651)"><path class="a" d="M364.966,873.829c-1.975.119-3.588-.751-5.27-1.366a5.033,5.033,0,0,0-2.38-.521,2.186,2.186,0,0,0-1.617,1.121c-.378.546-.692,1.164-1.463,1.365a1.924,1.924,0,0,1-1.972-.471,1.7,1.7,0,0,1-.459-1.782,7.164,7.164,0,0,1,2.731-4.494,5.075,5.075,0,0,1,4.246-.529c1.693.408,3.2,1.316,4.893,1.71a2.169,2.169,0,0,0,2.549-.99c.5-.872,1.117-1.648,2.352-1.484a1.931,1.931,0,0,1,1.678,1.731,6.63,6.63,0,0,1-3.993,5.595A6.742,6.742,0,0,1,364.966,873.829Z" transform="translate(-351.725 -866.367)"/></g><g transform="translate(326.271 862.355)"><path class="a" d="M301.759,856.919a7.988,7.988,0,0,1,5.049,1.712.909.909,0,0,1,.226,1.384c-.4.53-.977.333-1.419.051a9.725,9.725,0,0,0-2.75-1.368c-1.491-.388-3.9.207-4.6,1.438a1.9,1.9,0,0,0,.655,2.837,11.262,11.262,0,0,0,3.4,1.048c1.917.383,3.91.729,5.069,2.6a3.933,3.933,0,0,1-.844,5.208c-2.523,2.06-5.342,2.1-8.231.785a8.217,8.217,0,0,1-2.383-1.411.955.955,0,0,1-.2-1.331c.373-.552.919-.349,1.326-.062a8.965,8.965,0,0,0,3.575,1.688,5.135,5.135,0,0,0,4.7-1.107c1.513-1.4.879-2.783-.542-3.7-1.378-.888-2.988-.94-4.5-1.337s-3.027-.931-3.825-2.34a3.975,3.975,0,0,1,2.288-5.566A6.087,6.087,0,0,1,301.759,856.919Z" transform="translate(-295.54 -856.888)"/></g><g transform="translate(353.139 886.149)"><path class="a" d="M331.613,889.457c2.874-3.95,5.7-7.838,8.531-11.714a3.142,3.142,0,0,1,3.425-.628,2.854,2.854,0,0,1,1.469,3.172,8.677,8.677,0,0,1-1.821,2.958c-2.089,2.941-4.247,5.833-6.38,8.743a10.454,10.454,0,0,1-1.1,1.436c-.559.536-.578.915-.091,1.56,2.11,2.79,4.151,5.634,6.219,8.457.955,1.3,2,2.546,2.846,3.912a2.781,2.781,0,0,1-.36,3.479,2.964,2.964,0,0,1-3.338.567c-1.235-.7-1.819-1.924-2.6-2.984-2.186-2.968-4.319-5.976-6.477-8.965-.18-.249-.273-.394-.566.012-2.082,2.885-4.219,5.73-6.33,8.593-.7.947-1.366,1.916-2.141,2.811a2.843,2.843,0,0,1-3.869.137,2.916,2.916,0,0,1-.464-3.747c1.836-2.553,3.714-5.074,5.57-7.612,1.193-1.633,2.354-3.289,3.577-4.9a.743.743,0,0,0,0-1.036c-1.665-2.243-3.34-4.476-5-6.721-1.4-1.89-2.8-3.775-4.163-5.694a2.914,2.914,0,0,1,.678-3.894,3.059,3.059,0,0,1,4.058.656c2.466,3.515,5.074,6.93,7.624,10.384C331.142,888.744,331.345,889.065,331.613,889.457Z" transform="translate(-318.086 -876.855)"/></g><g transform="translate(339.468 885.847)"><path class="a" d="M306.626,894.16V879.387a2.5,2.5,0,0,1,2.366-2.785c2.153-.019,3.363.98,3.372,2.818.014,2.618,0,5.235,0,7.852q0,10.679-.006,21.357a2.883,2.883,0,0,1-5.747.473C306.649,904.123,306.626,899.141,306.626,894.16Z" transform="translate(-306.614 -876.602)"/></g><g transform="translate(302.16 928.567)"><path class="a" d="M275.307,925.344q0-5.7,0-11.4c0-1.192.291-1.493,1.444-1.493q6.162,0,12.324,0a1.163,1.163,0,0,1,1.227.66,1.03,1.03,0,0,1-.43,1.25,1.22,1.22,0,0,1-.8.114c-3.657.01-7.316.023-10.974-.011-.63-.006-.788.145-.778.778.038,2.841.032,5.684,0,8.525,0,.553.143.693.692.69,3.264-.027,6.528,0,9.792-.027.682-.006.981.262,1.009.894.031.7-.349.981-1.018.98-3.235,0-6.472.019-9.707-.019-.647-.008-.778.169-.77.787q.052,4.261,0,8.525c-.007.568.166.684.7.68,3.743-.023,7.485,0,11.228-.018.633,0,1.124.071,1.094.876-.027.71-.315,1.008-1.078,1-4.248-.031-8.5-.013-12.746-.015-.994,0-1.207-.216-1.208-1.212Q275.3,931.127,275.307,925.344Z" transform="translate(-275.307 -912.45)"/></g><g transform="translate(375.742 928.327)"><path class="a" d="M347.977,934.218c.982-2.317,1.967-4.623,2.936-6.937,1.892-4.521,3.756-9.053,5.683-13.559.24-.558.3-1.424,1.273-1.4a.941.941,0,0,1,.923,1.36c-.926,2.224-1.867,4.441-2.8,6.661-1.176,2.794-2.345,5.591-3.532,8.382-1.028,2.418-2.078,4.826-3.115,7.241a6.291,6.291,0,0,0-.411,1.057,1,1,0,0,1-.947.783.935.935,0,0,1-1.015-.66q-1.384-3.339-2.779-6.673-1.459-3.484-2.927-6.964-1.664-3.97-3.325-7.941c-.241-.574-.531-1.13-.74-1.715-.189-.535-.288-1.13.317-1.479a1.134,1.134,0,0,1,1.555.67q2.084,5.027,4.167,10.053,2.188,5.25,4.4,10.488C347.73,933.8,347.865,934.009,347.977,934.218Z" transform="translate(-337.053 -912.249)"/></g><g transform="translate(323.759 928.579)"><path class="a" d="M293.449,925.324c0-3.882.018-7.764-.017-11.645-.006-.735.307-1.124.947-1.208.736-.1.966.472,1.087,1.064a3.536,3.536,0,0,1,.008.674c0,7.061.015,14.12-.021,21.181,0,.776.222.9.925.889,3.685-.036,7.371-.008,11.055-.025.667,0,1.056.149,1.059.922,0,.754-.344.955-1.031.952-4.276-.017-8.552-.007-12.827-.01-.982,0-1.185-.214-1.186-1.235Q293.447,931.106,293.449,925.324Z" transform="translate(-293.432 -912.46)"/></g><g transform="translate(403.14 928.227)"><path class="a" d="M361.905,925.1c0,3.909-.014,7.817.014,11.725,0,.677-.256,1-.885,1.009-.68.008-.988-.386-.988-1.058q0-11.767,0-23.535c0-.7.286-1.064,1.02-1.072.75-.01.848.431.847,1.038C361.9,917.168,361.905,921.132,361.905,925.1Z" transform="translate(-360.044 -912.165)"/></g><g transform="translate(422.198 884.758)"><path class="a" d="M410.3,890.82A18.1,18.1,0,0,0,403.182,879c-4.415-3.382-9.393-4.036-14.649-2.6a15.742,15.742,0,0,0-8.142,5.4,18.376,18.376,0,0,0-3.682,7.107c-.28,1.078-.335,2.187-.638,3.251a21.633,21.633,0,0,0,.383,5.632,18,18,0,0,0,5.585,9.73,17.713,17.713,0,0,0,6.011,3.534,18.215,18.215,0,0,0,6.59.87,18.482,18.482,0,0,0,4.969-1.238A18.555,18.555,0,0,0,410.3,890.82Zm-5.691,1.977a9.868,9.868,0,0,0-.007,1.012,12.723,12.723,0,0,1-3.175,8.387,10.812,10.812,0,0,1-6.679,3.755,9.789,9.789,0,0,1-6.384-1.162,12.013,12.013,0,0,1-5.1-5.367,12.484,12.484,0,0,1,.652-12.361,11.01,11.01,0,0,1,6.123-4.932,10.025,10.025,0,0,1,9.517,1.537,12.032,12.032,0,0,1,4.875,8.163A3.648,3.648,0,0,1,404.611,892.8Z" transform="translate(-376.037 -875.688)"/></g><g transform="translate(436.113 928.379)"><path class="a" d="M407.314,936.244c-1.075-2.86-2.13-5.727-3.2-8.59q-2.744-7.373-5.494-14.746a.861.861,0,0,0-.939-.616,1.064,1.064,0,0,0-1.159.713c-.871,2.359-1.706,4.732-2.621,7.075a27.947,27.947,0,0,1-1.5,3.738,16.7,16.7,0,0,1-1.033,2.983c-1.155,3.176-2.346,6.339-3.539,9.5-.266.7-.11,1.258.548,1.444a1,1,0,0,0,1.324-.754c.626-1.7,1.344-3.366,1.9-5.087.217-.67.571-.682,1.1-.681,3.259.01,6.521.038,9.78-.021a1.1,1.1,0,0,1,1.23.875c.568,1.605,1.13,3.214,1.732,4.806a1.037,1.037,0,1,0,1.869-.64Zm-8.236-7.042c-1.883,0-3.766-.01-5.649.007-.534,0-.823.012-.542-.7,1.056-2.663,2.045-5.354,3.054-8.035.458-1.214.915-2.429,1.347-3.653a2.134,2.134,0,0,1,.4-.726c1.652,4.409,3.262,8.706,4.911,13.106Z" transform="translate(-387.714 -912.292)"/></g><g transform="translate(305.059 862.333)"><path class="a" d="M292.59,856.906c-.592,0-.881.244-.865.851.015.642,0,1.285,0,1.927l-.174.1c-.219-.25-.419-.521-.661-.747a7.267,7.267,0,0,0-7.516-1.791,7.943,7.943,0,0,0-5.634,7.794,8.1,8.1,0,0,0,2.171,5.848,7.5,7.5,0,0,0,5.355,2.562,7.769,7.769,0,0,0,6.459-2.99c0,.766.011,1.468,0,2.171-.012.614.3.843.881.834.554-.008.814-.26.814-.815q-.005-7.472,0-14.944C293.419,857.138,293.141,856.911,292.59,856.906Zm-2.034,11.981a6.006,6.006,0,0,1-5.388,2.746c-2.1.17-4.651-1.947-5.376-4.648a6.613,6.613,0,0,1,4.322-8.126,5.829,5.829,0,0,1,6.112,2.11,6.925,6.925,0,0,1,1.466,3.819A6.313,6.313,0,0,1,290.555,868.887Z" transform="translate(-277.74 -856.87)"/></g><g transform="translate(342.223 862.366)"><path class="a" d="M324.594,857.754c0-.605-.269-.854-.863-.853-.614,0-.848.3-.834.88.017.648,0,1.3,0,2.151a7.475,7.475,0,0,0-6.445-3.026,7.4,7.4,0,0,0-6.62,4.437,8.471,8.471,0,0,0,.354,8.273,7.628,7.628,0,0,0,8.755,3.53,8.81,8.81,0,0,0,3.956-2.654c0,.849-.031,1.5.008,2.141a.826.826,0,0,0,1,.82c.535-.031.684-.367.684-.853Q324.586,865.176,324.594,857.754Zm-3.781,12.277a4.862,4.862,0,0,1-3.935,1.564c-2.623.188-5.174-1.97-5.936-4.779a6.8,6.8,0,0,1,4.285-7.941,5.937,5.937,0,0,1,6.584,2.618A6.628,6.628,0,0,1,320.813,870.03Z" transform="translate(-308.926 -856.897)"/></g><g transform="translate(388.462 885.817)"><path class="a" d="M375.588,908.277a30.652,30.652,0,0,0-1.189-3.366q-2.145-5.784-4.295-11.569c-1.827-4.892-3.673-9.778-5.5-14.669a3.13,3.13,0,0,0-2.336-2.072c-2.023-.178-2.887.667-3.306,1.715-1.286,3.215-2.439,6.484-3.651,9.729-1.107,2.966-2.232,5.926-3.337,8.893-1.37,3.678-2.7,7.368-4.1,11.034a3.059,3.059,0,0,0,1.524,3.591,2.941,2.941,0,0,0,3.9-1.692c.769-1.995,1.56-3.98,2.306-5.982.112-.3.175-.441.531-.44q5.611.023,11.224.006c.282,0,.381.062.492.375.628,1.785,1.345,3.54,1.984,5.323.67,1.866,1.475,2.58,3.045,2.58A2.716,2.716,0,0,0,375.588,908.277Zm-17.4-10.394c-.5,0-.346-.247-.23-.546q1.813-4.7,3.6-9.4a1.541,1.541,0,0,0,.05-.318l.168.024,3.872,10.246Z" transform="translate(-347.727 -876.576)"/></g><g transform="translate(304.682 885.827)"><path class="a" d="M305.135,907.926q-2.553-6.979-5.164-13.934c-1.927-5.145-3.886-10.277-5.812-15.422a2.758,2.758,0,0,0-2.346-1.97c-1.933-.137-2.783.6-3.164,1.585-1.716,4.444-3.338,8.922-5.009,13.384-1.7,4.537-3.442,9.058-5.11,13.607a10.043,10.043,0,0,0-1.107,3.639,2.818,2.818,0,0,0,2.1,2.912,3.126,3.126,0,0,0,3.306-1.548c.782-2.018,1.567-4.034,2.282-6.075a.812.812,0,0,1,.934-.659c3.517.019,7.034.03,10.551-.01a.909.909,0,0,1,1.015.689c.7,1.878,1.426,3.743,2.1,5.628a2.932,2.932,0,0,0,3.673,1.924A2.875,2.875,0,0,0,305.135,907.926Zm-10.465-10.04c-2.388-.008-4.777,0-7.267,0,1.292-3.45,2.566-6.851,3.917-10.458,1.046,2.766,2.023,5.343,3,7.923.248.657.437,1.341.739,1.971C295.3,897.829,295.116,897.888,294.67,897.886Z" transform="translate(-277.423 -876.584)"/></g><g transform="translate(281.052 885.844)"><path class="a" d="M279.943,884.844a10.127,10.127,0,0,0-4.021-6.18,9.439,9.439,0,0,0-5.579-2.058c-3.375-.012-6.75,0-10.126,0a2.569,2.569,0,0,0-2.622,2.629q0,7.425,0,14.851,0,7.382.006,14.765a2.991,2.991,0,0,0,.1.9,2.882,2.882,0,0,0,5.638-.853c.007-3.375.019-6.75-.013-10.124-.006-.6.149-.773.739-.728.727.055,1.462.013,2.193.013a33.093,33.093,0,0,0,4.8-.045,10.335,10.335,0,0,0,6.844-3.948A10.6,10.6,0,0,0,279.943,884.844Zm-8.567,7.12a11.56,11.56,0,0,1-4.578.512c-.957,0-1.914-.026-2.868.01-.479.019-.614-.125-.6-.6.03-1.518.011-3.038.011-4.557s.019-3.039-.011-4.557c-.01-.474.122-.614.6-.605,1.687.029,3.38-.069,5.062.03,2.744.161,4.607,1.117,5.422,4.3A4.917,4.917,0,0,1,271.376,891.964Z" transform="translate(-257.594 -876.599)"/></g><g transform="translate(413.951 928.21)"><path class="a" d="M387.417,922.27a12.812,12.812,0,0,0-5-7.682,11.918,11.918,0,0,0-6.737-2.4c-1.768-.075-3.544-.016-5.315-.013-.941,0-1.248.3-1.248,1.226q0,5.779,0,11.56v11.222c0,1.413.238,1.658,1.616,1.658,1.406,0,2.814.018,4.22,0a12.877,12.877,0,0,0,11.815-7.964A12.358,12.358,0,0,0,387.417,922.27Zm-9.7,13.2a16.49,16.49,0,0,1-4.886.342c-1.69.011-1.69,0-1.69-1.689v-9.286c0-3.377.013-6.754-.013-10.132,0-.553.142-.7.691-.689a19.64,19.64,0,0,1,6.4.68,10.528,10.528,0,0,1,7.247,8.1C386.628,928.331,383.615,933.636,377.719,935.471Z" transform="translate(-369.117 -912.15)"/></g><g transform="translate(342.69 928.723)"><path class="a" d="M328.773,936.524q-2.122-5.747-4.258-11.489-2.143-5.783-4.29-11.564a1.14,1.14,0,0,0-2.219-.021q-2.072,5.55-4.134,11.1c-1.137,3.041-2.3,6.072-3.425,9.116a22.7,22.7,0,0,0-1.13,3.276c-.01.958.332,1.247,1.083,1.155.527-.063.706-.455.86-.856.654-1.691,1.338-3.372,1.909-5.092a.785.785,0,0,1,.921-.649c3.29.016,6.58.042,9.869-.018a1.106,1.106,0,0,1,1.229.878q.892,2.4,1.819,4.778c.344.891.858,1.238,1.454.915C329.118,937.7,328.983,937.091,328.773,936.524ZM314.1,929.64c1.661-4.4,3.315-8.774,5.044-13.346l5,13.346Z" transform="translate(-309.318 -912.581)"/></g><g transform="translate(280.882 928.566)"><path class="a" d="M272.695,917.671a7.213,7.213,0,0,0-7.073-5.214c-2.165-.015-4.331,0-6.5,0-1.441,0-1.673.232-1.673,1.686q0,5.611,0,11.221,0,5.736,0,11.474c0,.859.365,1.3,1.038,1.287.782-.011.986-.268.986-1.266q0-4.429,0-8.858c0-.348-.119-.723.5-.7,2.126.1,4.242-.286,6.371-.16a2.45,2.45,0,0,0,.673-.006A7.335,7.335,0,0,0,272.695,917.671ZM265.33,925.3c-1.71-.093-3.431-.047-5.144,0-.611.017-.736-.174-.721-.747.042-1.574.014-3.15.014-4.724,0-1.6.017-3.206-.011-4.807-.008-.45.132-.56.565-.555,2.052.022,4.108-.059,6.157.029a5.42,5.42,0,0,1-.86,10.805Z" transform="translate(-257.452 -912.449)"/></g><g transform="translate(135.213 828.367)"><path class="a" d="M202.119,971.285l-2.1-1.314c-2.647-1.653-64.8-40.923-64.8-80.567,0-23.567,20.139-39.4,38.949-39.4,10.929,0,16.185,2.55,20.411,4.6,3.284,1.593,5.88,2.852,10.967,2.852,4.39,0,7.216-1.477,10.209-3.04a37.62,37.62,0,0,1,3.958-1.875c-2.246-1.784-4.32-4.982-4.32-10.737,0-8.038,6.529-13.439,12.626-13.439,6.619,0,11.422,5.1,11.422,12.123a11.342,11.342,0,0,1-2.5,6.971c-.786,1.115-1.036,1.509-1.036,2.356a5.809,5.809,0,0,0,.385,2.438c15.909,2.643,32.744,13.859,32.744,37.55,0,39.384-62.158,78.522-64.8,80.168ZM174.162,857.968c-14.656,0-30.986,12.911-30.986,31.435,0,31.469,48.2,65.287,58.951,72.441,10.757-7.129,58.942-40.813,58.942-72.04,0-23.755-20.229-28.777-26.429-29.75a7.232,7.232,0,0,1-4.943-3.306,5.391,5.391,0,0,1-4.888,2.756c-1.6,0-3.266.869-5.371,1.969-3.364,1.759-7.55,3.947-13.9,3.947-6.918,0-10.744-1.857-14.443-3.651C187.068,859.815,183.262,857.968,174.162,857.968Zm62.221-5.548Zm-8.37-16.09a5.312,5.312,0,0,0-4.662,5.476c0,2.938.751,4.612,2.234,4.979a8.19,8.19,0,0,1,2.533,1.051,12.169,12.169,0,0,1,2.311-4.963c.792-1.121,1.043-1.518,1.043-2.382C231.472,839.8,231.3,836.33,228.013,836.33Z" transform="translate(-135.213 -828.367)"/><g transform="translate(3.983 3.981)"><path class="b" d="M201.482,965.953s-62.927-39.3-62.927-77.189c0-21.156,18.434-35.419,34.966-35.419,18.459,0,18.255,7.453,31.378,7.453,9.574,0,13.391-5.914,19.268-5.914.816,0,1.492-.3,1.662-1.539.22-1.6.581-2.736-1.841-3.336-2.642-.654-5.261-2.93-5.261-8.843s4.829-9.458,8.644-9.458c4.76,0,7.441,3.813,7.441,8.142s-3.531,5.021-3.531,9.327,1.7,6.048,3.334,6.3c14.783,2.321,29.793,12.531,29.793,33.685C264.41,926.79,201.482,965.953,201.482,965.953Z" transform="translate(-138.555 -831.708)"/></g><g transform="translate(63.181 71.583)"><path class="c" d="M188.231,944.675c2.267,1.591,3.608,2.464,3.608,2.464s20.773-13.384,37.1-30.931c-7.357-9.749-13.932-27.772-13.932-27.772C196.336,905.551,188.232,944.668,188.231,944.675Z" transform="translate(-188.231 -888.436)"/></g><g transform="translate(10.406 54.542)"><path class="d" d="M194.792,929.568a149.678,149.678,0,0,0,1,17.191c-13.4-9.508-51.845-39.057-51.845-64.968a33.19,33.19,0,0,1,.213-3.778c3.593,1.219,12.107,3.543,24.844,3.543a40.244,40.244,0,0,0,11.021-1.583s11.457,1.459,26.729-5.838C206.753,874.136,194.792,895.429,194.792,929.568Z" transform="translate(-143.945 -874.136)"/></g><g transform="translate(10.619 32.216)"><path class="a" d="M208.011,861.961a13.46,13.46,0,0,1-4.694.829c-11.612,0-14.758-7.39-27.764-7.39-16.624,0-29.631,10.475-31.429,26.2,3.593,1.219,12.106,3.543,24.843,3.543C189.124,885.148,206.079,868.8,208.011,861.961Z" transform="translate(-144.124 -855.401)"/></g><g transform="translate(107.805 47.295)"><path class="e" d="M225.678,868.055s-.044,24.758,6.517,39.134c5.3-7.834,8.833-16.009,8.833-23.877a32.72,32.72,0,0,0-.955-8.024C236.171,869.876,225.678,868.055,225.678,868.055Z" transform="translate(-225.678 -868.055)"/></g></g></g></svg>