<svg id="Layer_1" data-name="Layer 1" xmlns="http://www.w3.org/2000/svg" viewBox="0 0 2426 1080"><defs><style>.cls-1{fill:#191114;}.cls-2{fill:#fff;}.cls-3{fill:#00b5dc;}.cls-4{fill:#f1ea24;}.cls-5{fill:#ed2579;}</style></defs><title>batatinha</title><path class="cls-1" d="M422.08,954a19,19,0,0,1-10.51-3.44c-28.8-19.15-57.56-39.71-87.91-62.86-12.52-9.55-24.76-19.69-36.6-29.49q-6-5-12-9.91c-10.48-8.59-20.68-17.65-30.54-26.41q-5-4.38-9.9-8.76c-20.42-18-41.62-38.69-66.72-65.2-32.63-34.47-58.79-67.52-80-101.06-17-26.93-29.68-51.85-38.76-76.2a287,287,0,0,1-14.34-55.23c-1.94-12.27-1.65-24.32-1.38-36q.08-3,.13-6A212.43,212.43,0,0,1,60.2,373.67c10.76-19.53,25.67-37.62,46.9-56.93A230.9,230.9,0,0,1,162.65,279,226,226,0,0,1,227,259.05,236.17,236.17,0,0,1,261.84,256h2a239.25,239.25,0,0,1,92.37,19.2c6,2.55,11.9,5.32,17.59,8,10.35,4.86,20.12,9.46,30.36,12.73a112.66,112.66,0,0,0,34.37,5.21c2.29,0,4.62-.06,6.95-.18,21.34-1.15,39.5-6.28,55.52-15.69a156.54,156.54,0,0,1,36.48-15.93,98,98,0,0,1,11.64-2.38c2.15-.34,4.21-.67,6.12-1.08.18-.7.33-1.46.41-1.81s.11-.63.14-.9c-20-5.35-33.76-18.7-39.71-38.65-5.26-17.66-5.51-34.21-.75-49.17,7.52-23.66,23.51-39.56,46.24-46a54.57,54.57,0,0,1,14.78-2.11c12.25,0,23.86,4.47,34.49,13.28A64.44,64.44,0,0,1,632,172c5.39,17.9,1.77,35-11.05,52.33-5.07,6.84-7.46,13.38-7.52,20.58-.07,7.57,3.83,14.36,8.34,22.21,1.14,2,2.57,2.57,9.6,3.88l1.19.22c37.55,7.11,71.14,21.6,99.85,43a186.86,186.86,0,0,1,47.86,52.3,201.6,201.6,0,0,1,25,62.4,268.22,268.22,0,0,1,5.53,40.14c.54,8.41.78,16,.76,23.14-.07,19.05-3.19,39.2-9.55,61.62-5.93,20.9-15,42.29-28.59,67.31a485.94,485.94,0,0,1-41.42,63.15c-10.83,14.2-22.92,28.85-39.21,47.5-17.76,20.35-37.18,39.32-56,57.66l-5.92,5.79c-13.13,12.85-27.75,25.93-47.4,42.42-22.35,18.75-43.19,35.46-63.7,51.08-27.7,21.1-56.81,41.77-86.53,61.44A20,20,0,0,1,422.08,954Z"/><path class="cls-2" d="M576.31,140.24c9.55,0,18.22,3.68,26.2,10.29a51.6,51.6,0,0,1,17,25.25c4.6,15.29.07,28.52-9.06,40.84-6.17,8.33-10,17.46-10.07,28.21-.1,11,4.87,19.74,10.07,28.8,4.56,7.93,12,8.94,19.64,10.39,34.51,6.54,66.3,19.63,94.49,40.69a173.71,173.71,0,0,1,44.55,48.67,188.27,188.27,0,0,1,23.35,58.38A255,255,0,0,1,797.75,470c.47,7.44.75,14.85.73,22.27-.07,19.82-3.67,39.14-9.06,58.12-6.43,22.69-16.3,44-27.51,64.66a476.49,476.49,0,0,1-40.32,61.47c-12.3,16.1-25.34,31.56-38.67,46.83-19.25,22.05-40.32,42.29-61.18,62.71-14.91,14.59-30.68,28.34-46.67,41.75q-31,26-63.22,50.7Q469.94,910.4,426,939.4a7.42,7.42,0,0,1-3.95,1.6,6,6,0,0,1-3.32-1.27C389,919.93,360,899,331.54,877.36c-16.45-12.54-32.23-26-48.23-39.1-13.71-11.25-26.8-23.18-40.1-34.89-23.09-20.32-44.78-42.1-65.87-64.38-29-30.65-55.8-63.25-78.42-99.06-14.81-23.45-27.85-47.71-37.58-73.8a271.65,271.65,0,0,1-13.68-52.72c-2.07-13.11-1.33-26.47-1.09-39.72a198.8,198.8,0,0,1,25-93.75c11.35-20.6,27-37.88,44.25-53.58a217.36,217.36,0,0,1,52.42-35.63,211.41,211.41,0,0,1,60.6-18.82c11-1.62,21.9-3,33-3h1.79a225.2,225.2,0,0,1,87.47,18.17c16.39,6.95,32,15.69,49.06,21.14a125.12,125.12,0,0,0,38.33,5.83c2.55,0,5.09-.07,7.64-.2,21.73-1.17,42.48-6.34,61.41-17.46A144,144,0,0,1,541,281.81c6.4-1.83,13-2.15,19.42-3.85,5.67-1.52,7-6.7,7.9-11.27,1.11-5.32.21-10.76-3.76-15.09a2.64,2.64,0,0,0-2.11-.79c-.53,0-1.08.07-1.63.07a4.14,4.14,0,0,1-1-.11q-24.23-6.12-31.33-30c-4.09-13.75-5.16-27.89-.82-41.52,5.9-18.57,17.88-31.9,37.38-37.4a41.5,41.5,0,0,1,11.25-1.62m0-26a67.24,67.24,0,0,0-18.3,2.6c-27.14,7.65-46.2,26.51-55.11,54.54-5.57,17.5-5.33,36.61.69,56.82A69.25,69.25,0,0,0,521.9,259c.45.43.91.86,1.37,1.27A177.35,177.35,0,0,0,494.38,274c-14.18,8.33-30.42,12.88-49.64,13.91-2.1.12-4.2.17-6.25.17a99.72,99.72,0,0,1-30.41-4.59c-9.43-3-18.83-7.44-28.79-12.12-5.8-2.73-11.81-5.55-18-8.2A252.36,252.36,0,0,0,263.87,243h-2c-13.13,0-25.44,1.55-36.79,3.23a239,239,0,0,0-68,21.08,244.13,244.13,0,0,0-58.69,39.86C76,327.43,60.29,346.58,48.82,367.39A225.24,225.24,0,0,0,20.57,473.23c0,2-.08,4-.13,5.94-.28,12.23-.58,24.87,1.54,38.3a299.86,299.86,0,0,0,15,57.74c9.39,25.2,22.46,50.91,40,78.6,21.64,34.26,48.31,68,81.53,103.06,25.38,26.8,46.85,47.78,67.57,66q5,4.35,9.87,8.73c9.95,8.84,20.25,18,30.91,26.74,4,3.26,8,6.62,12,9.87,11.93,9.88,24.27,20.1,37,29.81,30.57,23.31,59.55,44,88.59,63.34A31.63,31.63,0,0,0,422.08,967a32.92,32.92,0,0,0,18.3-5.92c29.95-19.82,59.3-40.66,87.23-61.94,20.67-15.75,41.66-32.58,64.17-51.46,19.93-16.71,34.77-30,48.14-43.08l5.91-5.78c19-18.52,38.57-37.68,56.68-58.42,16.48-18.88,28.74-33.73,39.75-48.16a499.25,499.25,0,0,0,42.5-64.84c14-25.88,23.48-48.11,29.68-70,6.68-23.56,10-44.86,10-65.12,0-7.45-.23-15.3-.78-24a282.4,282.4,0,0,0-5.81-42.09,214.43,214.43,0,0,0-26.57-66.41,199.62,199.62,0,0,0-51.17-55.93c-30.3-22.64-65.7-37.92-105.21-45.4l-1.23-.23-2.35-.45c-3.14-5.58-5-9.44-5-12.74,0-4.44,1.52-8.32,5-13,15.22-20.55,19.61-42,13-63.81a77.26,77.26,0,0,0-25.32-37.79c-13-10.79-27.42-16.26-42.78-16.26Z"/><path class="cls-2" d="M1609.75,559.16c-23.42,32-46.43,63.86-69.82,95.39-11,14.84-27.46,14.12-38.49,1.8-8.14-9.1-7.66-20.71-.25-30.91q36.86-50.73,74.1-101.18c3.13-4.26,4.85-7,.34-12.81-23-29.83-45-60.43-67.3-90.77-2.86-3.89-5.89-7.69-8.35-11.81-8.26-13.81-4-27.07,6.63-34,12.55-8.16,25.21-4.88,34.35,7.65,20.83,28.58,41.92,57,62.87,85.48,2,2.75,3.75,5.73,6,9.18,7.46-10,14.7-19.66,21.86-29.38,16.88-22.93,33.64-45.95,50.6-68.82,8.47-11.41,24.14-9.75,30.92-4.39,13.5,10.7,14.72,22.9,5.89,35.3-24.93,35-50.86,69.26-76.55,103.7-2,2.68-2.59,4.09-.35,7.12,13.8,18.63,27.22,37.53,40.87,56.27,11.76,16.15,23.76,32.14,35.44,48.36,5.69,7.9,7.82,16.68,3.58,25.95-4,8.82-11.46,13.76-20.9,14.14-9.65.38-16.87-4.85-22.51-12.63q-33.37-46-67-91.82A17.34,17.34,0,0,0,1609.75,559.16Z"/><path class="cls-2" d="M1380.7,516.21c0-42.07.21-84.15-.15-126.21-.08-9.67,5.94-17.59,13.27-20.43,9.29-3.59,18.36-3.21,26.42,4.08,6.33,5.72,8.71,12.76,8.71,20.92,0,81.07.12,162.15-.09,243.22,0,16.28-7.2,23.39-19.65,27.07s-28.79-7.18-28.66-21C1381,601.3,1380.7,558.75,1380.7,516.21Z"/><path class="cls-2" d="M1065.65,833.78q0-48.93,0-97.88c0-9,1.6-10.67,10.37-10.68h105.69c7.81,0,10.41,2.18,10.21,8.68-.2,6.81-5,8.3-10.48,8.31-31.21.07-62.42.15-93.63-.08-5,0-6.81.73-6.72,6.36q.59,35.46,0,70.93c-.11,6,2,6.7,7.12,6.66,27.18-.22,54.37-.13,81.56-.09,7,0,10.51,3.59,9.36,9.51-.88,4.52-3.43,6.25-8.35,6.21-27.89-.25-55.79,0-83.69-.22-4.36,0-6,.73-6,5.64q.43,36.18,0,72.35c-.07,5.3,1.76,6,6.4,5.94,31.21-.2,62.42-.11,93.63-.1,7.47,0,10.84,2.68,10.81,8.58s-3.35,8.44-11,8.44H1076.74c-9.71,0-11.08-1.41-11.08-11.38Q1065.65,882.38,1065.65,833.78Z"/><path class="cls-2" d="M1778.76,909.09q10.6-25.19,21.2-50.32c10.65-25.15,21.42-50.25,32-75.44,7.73-18.45,15-37.1,23-55.46,1.59-3.69,4.87-6.63,10.12-4.59,6.65,2.58,6.5,8.06,4.74,12.77-4.7,12.55-10.34,24.76-15.55,37.12-9.8,23.28-19.5,46.6-29.36,69.85-8.63,20.33-17.41,40.59-26.11,60.88-4,9.42-8.39,18.72-12,28.32-1.3,3.51-2.44,5.81-6.46,5.9s-7.61,0-9.57-4.9c-5.35-13.3-11.21-26.4-16.79-39.6q-12.48-29.57-24.88-59.15c-9.19-21.81-18.45-43.6-27.61-65.42-4.49-10.7-8.86-21.45-13.25-32.19-3-7.23-1.18-11.53,5.57-13.38,4.86-1.33,7.51,1.33,9.24,5.43q9.85,23.24,19.68,46.5,12.46,29.57,24.89,59.15C1758,859.31,1768.3,884.08,1778.76,909.09Z"/><path class="cls-2" d="M1834.78,318.63c2-20.82,16.37-47.61,42.83-48.79,12.26-.55,23.79,3.87,35.17,8.27,9.1,3.51,17.85,8.06,28,8.69,7.78.49,12.47-3,16.44-9.27,4.2-6.63,8.63-13.14,18.49-12.27,9.26.82,16.94,7.89,15.09,16.9-3.33,16.2-9.41,31.16-24.08,40.92-11,7.35-23,6.86-35.13,4.22-13.4-2.92-25.43-9.77-38.49-13.71-12.44-3.76-20.46-.71-26.74,10.57-3.09,5.56-7,9.46-14.11,9.47s-12.39-1.88-16.29-8.11C1834.26,322.9,1835.59,320.48,1834.78,318.63Z"/><path class="cls-2" d="M982.54,306.7c16.37,1.2,33-5.74,48.24-17,3.62-2.68,7.5-2.78,10.66.55a7.73,7.73,0,0,1,.24,10.91c-2.51,2.83-6.14,4.8-9.55,6.66-17.22,9.45-35.63,15.18-55.34,14.24-44.23-2.11-84.94-31.46-93-79-8.75-51.91,22.73-96.6,71-109.34,29.92-7.9,58.32-2.15,84,15.93,4.79,3.37,6.53,6.82,3.64,11.64-3.2,5.33-8.14,4.11-12.12,1.23A89.63,89.63,0,0,0,999,147.66c-24.9-6.06-47.77-.71-68.39,13.81-17.91,12.61-28.39,30.16-32.51,51.79-8,41.92,21.46,82.48,63.36,92C967.53,306.61,973.5,306.4,982.54,306.7Z"/><path class="cls-2" d="M1247.3,833.8q0-48.59,0-97.17c0-3.64.29-7.16,3.3-9.45,2.65-2,6.15-3.19,9.15-1.4,3.25,1.94,4.76,5,4.75,9.39-.19,60.77,0,121.53-.28,182.29,0,6.36,1.43,8.11,7.94,8,30-.39,60.05-.17,90.08-.17a37.64,37.64,0,0,1,4.25,0c5.34.6,8.39,3.54,8.55,9,.18,5.89-4.28,7.07-8.7,7.95a28.87,28.87,0,0,1-5.66.07H1259.21c-9.3,0-11.9-2.65-11.9-12.07Q1247.3,882,1247.3,833.8Z"/><path class="cls-2" d="M1163.57,237.1c0,11.1.45,22.23-.11,33.31-.73,14.62,13.1,32.84,31.35,36.12,24.48,4.41,40.35-11,46.25-30a21.72,21.72,0,0,0,.55-6.26c0-23.4.1-46.79,0-70.19,0-5.79,1.63-10.25,7.72-11.21,4.58-.73,7.93,4.18,7.94,10.89,0,22,.64,44-.16,65.93-.87,24-10.89,42.72-34.44,52.32-27.41,11.18-60.81-2.68-70.5-30.87a82.47,82.47,0,0,1-4.07-25.77c-.31-19.61-.1-39.23-.09-58.85a26.22,26.22,0,0,1,1.26-8.84A6.56,6.56,0,0,1,1156,189c2.45,0,5.33,1.14,6.19,4.53a31.07,31.07,0,0,1,1.42,8.1C1163.5,213.46,1163.57,225.28,1163.57,237.1Z"/><path class="cls-2" d="M1918.56,830.3c0-33.07.07-66.14-.07-99.21,0-5.65,1.39-8.8,7.81-8.83s8,3,7.94,8.7q-.16,99.21,0,198.42c0,5.64-1.39,8.8-7.81,8.83s-8-3-7.94-8.71C1918.63,896.43,1918.56,863.37,1918.56,830.3Z"/><path class="cls-2" d="M1086.94,227.88q0-42.88,0-85.76c0-4.6.27-8.81,6.37-8.66,5.55.14,8,2.58,8,8.71-.22,56.7-.13,113.4-.13,170.09,0,3.42.29,6.73-3.58,8.88-3,1.66-5.2.75-7.86-.34-3.67-1.49-2.72-4.52-2.72-7.17Q1086.9,270.76,1086.94,227.88Z"/><path class="cls-3" d="M310.52,476.84c16.51.71,32.77-1.39,49.09-3.67A340.7,340.7,0,0,0,427.78,456a223,223,0,0,0,28.51-12.3c1.21-.63,2.28-1.8,4.33-1.34-2.06,4.51-4,8.87-6,13.19a668,668,0,0,0-34,89.66,749.09,749.09,0,0,0-19.19,78.22c-3,16-5.61,32.06-7.64,48.17-1.1,8.76-1.55,17.69-2.41,26.5-2.28,23.51-2.06,47-1.67,70.55.28,16.68,1.4,33.35,2,50,.46,12.18,1.32,24.36,2.05,36.54.37,6.08.42,12.19,1,18.26.08.83,1.4,1.7,0,2.37-.92.44-1.79-.09-2.67-.76-6.36-4.81-12.88-9.4-19.19-14.27-16.52-12.74-33.13-25.38-49.38-38.46-11.87-9.57-23.23-19.78-34.82-29.7-19.6-16.77-38.4-34.39-56.73-52.56-13.26-13.14-26.48-26.33-38.91-40.22-21.55-24.09-41.9-49.19-59.49-76.39C116.43,597,101.77,569.26,93,538.8a200.19,200.19,0,0,1-6.69-34.4c-1.08-10.3-.32-20.54-.78-30.79a13.92,13.92,0,0,1,2-7.77c2.07-.75,3.93.16,5.82.73,28,8.49,56.7,13.26,85.8,16.12a472,472,0,0,0,60.38,1.69,323.8,323.8,0,0,0,62.37-7.74C304.75,476,307.7,474.72,310.52,476.84Z"/><path class="cls-2" d="M310.52,476.84c-8.71.47-16.95,3.62-25.62,4.53-9.28,1-18.5,2.68-27.79,3.57-16.9,1.6-33.87,1.32-50.8,1-15.14-.31-30.2-2-45.25-3.79a433.78,433.78,0,0,1-65.31-13.19c-2.81-.79-5.49-2.05-8.23-3.09.91-15.48,5.39-30,10.85-44.45A168.45,168.45,0,0,1,120.64,381a171.28,171.28,0,0,1,33.64-34.45c8.49-6.52,17.18-12.7,26.7-17.47,12.5-6.26,25.79-10.51,39.32-14.11a193.19,193.19,0,0,1,63.91-5.72,187.55,187.55,0,0,1,55,12.68c18.11,7.09,34.86,17.24,53.3,23.51a147,147,0,0,0,31.67,6.8c10.3,1.11,20.52.25,30.76.82,3.18.17,6.21-2.2,10-.37-4.33,5.17-8.25,10.34-12.66,15C438.31,382.55,425,398,410.06,411.89c-18,16.83-36.8,32.69-57.79,45.66A197,197,0,0,1,310.52,476.84Z"/><path class="cls-4" d="M641.18,710.42c.05.94-1,1.37-1.63,2-8,8.4-15.8,17-24.16,25.08-14.54,14-29.1,28-44.29,41.2q-25.87,22.59-52.7,44.1c-29.35,23.53-59.34,46.13-90.25,67.56-5.21,3.61-8,3.46-12.35-.41-4-3.53-8.63-6.33-13.13-9.22-2-1.26-2.45-2.36-1.75-4.7,6-20.12,11.84-40.28,17.69-60.44,8.61-29.66,19.54-58.5,31.22-87a875.29,875.29,0,0,1,37.56-80.06A604.77,604.77,0,0,1,537,570.14c6.47-8.64,13.79-16.64,20.77-24.89,1.63-1.93,2.43-3,3.91.76,10,25.58,20.77,50.86,32.56,75.72,9.74,20.53,20.39,40.55,31.06,60.58,4.33,8.14,9.25,16,13.86,24C639.92,707.53,640.46,708.89,641.18,710.42Z"/><path class="cls-5" d="M704.48,633.84c-2.52-10.32-4.89-19.36-6.91-28.49-3.37-15.21-6.68-30.43-9.7-45.71s-5.68-30.36-8.33-45.58c-2.45-14.12-5.18-28.21-6.82-42.43-1.21-10.58-2.39-21.19-3.44-31.8-1.19-12.12-1.49-24.28-2.82-36.37-.51-4.56,1.8-5.1,5.18-4.37,15,3.22,29.42,7.94,42.88,15.4,10.84,6,20.49,13.79,30.81,20.54,9.94,6.48,11.09,16.24,12.08,26.23.78,7.88,1,15.82,1.24,23.77.69,23.4-3.71,45.84-11.48,67.76a310.19,310.19,0,0,1-31.83,63.91C711.93,622,708.58,627.37,704.48,633.84Z"/><path class="cls-2" d="M2369.79,512.77c.19-11.46-.36-22-2.62-32.67-8.74-41.22-30.31-74.44-64.82-97.67-37.14-25-78.52-30.41-121.35-16.14-33.69,11.22-59.73,32.39-78.29,63-23.16,38.27-28.27,79-18.32,122,8.07,34.86,26.86,63,55.12,84.55,29.25,22.27,62.26,32.27,99.35,28.46a139.44,139.44,0,0,0,56.25-18.14,145.27,145.27,0,0,0,50.4-48.69C2362,571.65,2371.56,543.32,2369.79,512.77Zm-84.67,79.12c-13.93,12.8-30.53,20.15-49.64,22.8-50.86,7-93.76-35.53-102.81-76-7.4-33.08-2-63.49,17.58-90.58,15.13-20.92,35.82-34.26,62.27-38.06,27.93-4,51.64,4,72.43,22.38,23.79,21,35,47.59,35.51,79C2320.7,543.6,2308.55,570.39,2285.12,591.89Z"/><path class="cls-2" d="M2029.66,635.35c-15.12-43.13-31.84-85.66-47.81-128.47Q1959.46,446.8,1937,386.74c-5.17-13.82-11.61-17.74-24.55-19.15-10.74-.22-20.45,7.23-23.8,16.68-5.62,15.86-11.78,31.52-17.68,47.27q-20.24,54-40.46,107.93c-9.62,25.53-19.54,50.95-29,76.54-3,8.08-7.28,16-7.72,24.69-.59,11.89,9.17,22.7,21.5,24.89,10,1.76,22.36-5.74,26.31-16.24q8.87-23.61,17.3-47.4c1.54-4.35,3.77-6,8.6-6q45.39.36,90.76,0c4.18,0,5.83,1.23,7.27,5.2,6.35,17.52,13.19,34.86,19.88,52.25,3.59,9.34,18.54,15.31,30.95,10.08C2025.79,659.52,2033.28,645.68,2029.66,635.35Zm-150.34-87.87c10.82-28.87,21.68-57.81,32.92-87.79,11.16,29.61,22,58.48,33.07,87.79Z"/><path class="cls-2" d="M1321.27,637.28c-1.63-10.1-6.13-19.08-9.55-28.44-14.69-40.14-29.85-80.11-44.92-120.12-13-34.47-26.19-68.87-39.11-103.37-4-10.66-11.47-17-22.13-17.76S1186,371.91,1181.23,382c-2.81,5.94-4.82,12.26-7.14,18.43q-18.39,48.85-36.76,97.7c-9.46,25.1-19.08,50.15-28.42,75.3-7.68,20.67-15.5,41.3-22.38,62.23-4.32,13.11,4.56,24.68,14.25,28.15,14.4,5.16,27.34-2,31.55-13,6.54-17,13.06-33.93,19.41-51,.85-2.29,1-3.93,4.3-3.92,31.91.17,63.82.11,95.74.1,2.12,0,3.28,0,4.28,2.92,5.25,15.25,11.24,30.25,16.8,45.41,5.19,14.16,13.22,21.17,24.73,21.21C1313.06,665.25,1323.72,652.43,1321.27,637.28Zm-150.55-89.51c11-29.36,21.89-58.32,33-88l33.26,88Z"/><path class="cls-2" d="M1074.46,433.92A86.55,86.55,0,0,0,1044,387.67c-15.24-12.13-32.38-19.31-51.58-19.88-27.16-.8-54.37.19-81.55-.37-13.24-.27-24.31,11.08-24.25,24.48q.54,124.46,0,248.91c-.07,15.41,11.81,24.59,24.62,24.69,13.4.11,24.28-12.53,23.9-24.59-.43-13.93-.1-27.89-.1-41.84,0-13.47.3-27-.13-40.41-.2-6.08.94-8.48,7.78-8.19,14.63.62,29.31.35,44,.11a80.62,80.62,0,0,0,17.29-1.79c19.13-4.55,36.17-12.82,49.64-27.84Q1087.74,482.91,1074.46,433.92Zm-77,66.28a57.57,57.57,0,0,1-15,2.11c-14.16.28-28.33-.06-42.49.2-4.11.07-5.07-1.23-5-5.14.24-12.74.09-25.5.09-38.24s.15-25.5-.09-38.25c-.07-3.91.89-5.2,5-5.14,16.29.24,32.64-.77,48.85.32,20,1.35,36.16,14.24,39.92,37.68C1032.16,474.83,1017.45,494.37,997.51,500.2Z"/><path class="cls-2" d="M2165.25,812.26c-4.79-28.2-18.84-51.67-42.05-68.88-16.07-11.92-34.18-19.7-54.3-20.82-16.49-.91-33.08-.2-49.63-.17-7.23,0-9.87,2.75-9.88,10.19q0,48.95,0,97.87c0,32.63,0,65.25-.05,97.87,0,5.18,1.06,9.82,7.08,9.65,20.67-.58,41.44,2.06,62-1.33,28.26-4.65,50.47-19.43,67.3-42.12C2163.92,870,2170.32,842.09,2165.25,812.26Zm-87,107.52c-16.05,3.47-32.13,2.19-48.23,2.76-5,.18-3.59-3.22-3.59-5.68q-.11-43.29,0-86.57c0-28.85.1-57.71-.11-86.56,0-4.55,1-5.91,5.75-5.87,18.17.16,36.58-1.2,54,5.22,34.54,12.73,55.89,36.67,62.57,73.67C2157,863,2123.77,910,2078.28,919.78Z"/><path class="cls-2" d="M1572.5,930.15c-12-31.92-23.79-63.92-35.67-95.88q-19.14-51.46-38.33-102.89c-1.2-3.24-3.21-4.5-6.72-4.87-6.22-.66-9.39,2.48-11.32,7.66q-20.58,55.3-41.11,110.61-15.94,42.83-31.92,85.63c-1.8,4.86-.66,8.94,4.37,11.09,5.35,2.3,9.47-.36,11.31-4.92q8.78-21.8,16.43-44.05c1.49-4.37,3.31-5.67,7.79-5.64,27.18.21,54.37.53,81.53-.14,8.54-.21,11.63,2.56,13.94,10.46,3.89,13.28,9.47,26.06,14.3,39.07,1.83,4.94,5.72,6.83,10.43,5.89a7.46,7.46,0,0,0,6.21-7.37C1573.83,933.08,1573.08,931.7,1572.5,930.15ZM1452.11,870c-2.87,0-4-.92-2.94-3.72q20.4-53.55,40.85-107.08c.13-.33.54-.54.85-.83L1532.74,870C1505.49,870,1478.8,869.94,1452.11,870Z"/><path class="cls-2" d="M2363.14,927.77q-10.84-30.15-22.09-60.17c-17.19-45.76-34.61-91.43-51.58-137.27-1.82-4.91-4.45-7.64-9.12-7.81s-7.7,3-9.26,7.11q-17.41,46.29-34.63,92.65-19.41,52.08-38.84,104.15c-1.78,4.76-1.22,9.06,3.17,11.41,4.92,2.62,11.06-.51,12.93-5.6,5.67-15.35,11.48-30.66,17-46.08,1-2.9,2.59-3.44,5.15-3.44q44.67,0,89.34,0c2.58,0,4,.64,5.07,3.52,5.43,15.2,11.42,30.2,16.8,45.42,1.65,4.69,4.24,6.74,9,6.42C2362.68,938.18,2365.51,934.39,2363.14,927.77ZM2238,867c14.16-37.45,28.2-74.6,42.68-112.91L2322.93,867Z"/><path class="cls-2" d="M1016.16,779.19a60.86,60.86,0,0,0-57-53.76c-20.51-1.12-41.13-.22-61.7-.21-9.42,0-12.06,2.6-12.06,11.91q0,48.23,0,96.47,0,49.29,0,98.59c0,6.44,3.67,10.77,8.81,10,5.33-.76,8.39-3.51,8.32-9.84-.31-25.53,0-51.07-.24-76.6,0-4.62,1.18-5.74,5.79-5.84,18.33-.37,36.65,1.11,55-1.11,18.52-2.25,32.45-11.36,42.86-26.1C1015.15,809.76,1018,795.23,1016.16,779.19ZM964,832.81a16.45,16.45,0,0,1-4.22.25c-17.25,0-34.51-.18-51.76.14-4.82.09-5.79-1.45-5.7-5.91.28-13.23.1-26.47.1-39.71,0-13.47.17-27-.1-40.41-.08-4.11,1.22-5.06,5.14-5,17.49.2,35-.79,52.46.33,18,1.15,33.61,14.12,39,33.57C1005.89,801.48,989.14,826.1,964,832.81Z"/><path class="cls-2" d="M1417.14,202.28c-28.29-21.58-67.55-14.55-87.52,11,0-24.39,0-47.55,0-70.72,0-5.4-1.77-9-7.71-9.12s-6.56,3.8-6.55,8.52q.08,85.85-.08,171.7c0,5.27,1.87,8.4,6.76,8.34,5.14-.06,7.73-3.51,7.57-8.84-.13-4.36,0-8.73,0-13.81,33.24,35,79.63,26,100.81-3.65C1451.29,266.46,1447.27,225.27,1417.14,202.28Zm-38,104.29c-26.49,2.39-50.73-25.25-49.68-51.59,1.07-26.68,22.08-51.43,50.86-50.65,27.65.74,48.42,24.5,48.27,51.31C1428.43,282.77,1408.2,307.37,1379.14,306.57Z"/><path class="cls-2" d="M1592.17,209.52c-13.68-15-31-20.75-51.23-19.42-19,1.24-34,9.41-45.24,24.36-11.92,15.78-16.41,33.44-12.89,53.17,3.25,18.25,12.44,32.75,27.44,43.08A60.39,60.39,0,0,0,1555.9,321c18.8-3.09,32.59-12.88,43.18-28.06,2.86-4.1,2.2-8.69-1.52-11.06s-8.16-1.51-11,2.8c-11.75,17.77-28.08,25.53-49.25,21.88-11.9-2.05-21.35-8.18-29.18-17.59-7.39-8.87-10.39-19.1-12.31-30.6h7.73c32.86,0,65.72-.13,98.58.12,5.73,0,7.26-1.78,7.19-7.32C1609.11,234.88,1602.82,221.18,1592.17,209.52ZM1589,244.11q-35,0-70.08,0h-21.64c6-19.58,17-33.7,37.6-38.55,27.21-6.41,50,9.6,58.35,34.78C1594.73,245,1591.42,244.11,1589,244.11Z"/><path class="cls-2" d="M252.52,647.5c0-6.33-.26-12.67.1-19,.22-3.93-1.21-4.66-4.8-4.6-12.32.21-24.65.1-37,.07-7.42,0-9.31-2-9.32-9.45V589.05c0-7,2-9,9.23-9,12.5,0,25-.15,37.48.08,3.61.06,4.42-1.1,4.37-4.51-.2-12.49-.1-25-.07-37.48,0-6.27,2.8-9.06,9-9.09,8.17,0,16.33,0,24.49,0,8.37,0,10,2.75,10.33,10.43.5,12.14.24,24.32.06,36.47-.05,3.29.93,4.22,4.19,4.17,12.16-.18,24.32-.09,36.48-.06,7.47,0,10.37,2.93,10.4,10.43,0,7.17.1,14.33,0,21.49-.17,9.75-2.83,12.32-11.79,12.13-11.33-.24-22.66.12-34-.16-4-.09-5.44.78-5.32,5.11.33,11.48.29,23,.06,34.48-.18,9-2.64,11.76-11.32,11.55-8-.19-16,0-24-.06-5.65,0-8.56-2.9-8.62-8.49C252.47,660.16,252.52,653.83,252.52,647.5Z"/></svg>