<svg id="Layer_1" data-name="Layer 1" xmlns="http://www.w3.org/2000/svg" viewBox="0 0 2188 1080"><defs><style>.cls-1{fill:#191114;}.cls-2{fill:#fff;}.cls-3{fill:#00b5dc;}.cls-4{fill:#f1ea24;}.cls-5{fill:#ed2579;}</style></defs><title>batata</title><path class="cls-1" d="M422.08,954a19,19,0,0,1-10.51-3.44c-28.8-19.15-57.56-39.71-87.91-62.86-12.52-9.55-24.76-19.69-36.6-29.49q-6-5-12-9.91c-10.48-8.59-20.68-17.65-30.54-26.41q-5-4.38-9.9-8.76c-20.42-18-41.62-38.69-66.72-65.2-32.63-34.47-58.79-67.52-80-101.06-17-26.93-29.68-51.85-38.76-76.2a287,287,0,0,1-14.34-55.23c-1.94-12.27-1.65-24.32-1.38-36q.08-3,.13-6A212.43,212.43,0,0,1,60.2,373.67c10.76-19.53,25.67-37.62,46.9-56.93A230.9,230.9,0,0,1,162.65,279,226,226,0,0,1,227,259.05,236.17,236.17,0,0,1,261.84,256h2a239.25,239.25,0,0,1,92.37,19.2c6,2.55,11.9,5.32,17.59,8,10.35,4.86,20.12,9.46,30.36,12.73a112.66,112.66,0,0,0,34.37,5.21c2.29,0,4.62-.06,6.95-.18,21.34-1.15,39.5-6.28,55.52-15.69a156.54,156.54,0,0,1,36.48-15.93,98,98,0,0,1,11.64-2.38c2.15-.34,4.21-.67,6.12-1.08.18-.7.33-1.46.41-1.81s.11-.63.14-.9c-20-5.35-33.76-18.7-39.71-38.65-5.26-17.66-5.51-34.21-.75-49.17,7.52-23.66,23.51-39.56,46.24-46a54.57,54.57,0,0,1,14.78-2.11c12.25,0,23.86,4.47,34.49,13.28A64.44,64.44,0,0,1,632,172c5.39,17.9,1.77,35-11.05,52.33-5.07,6.84-7.46,13.38-7.52,20.58-.07,7.57,3.83,14.36,8.34,22.21,1.14,2,2.57,2.57,9.6,3.88l1.19.22c37.55,7.11,71.14,21.6,99.85,43a186.86,186.86,0,0,1,47.86,52.3,201.6,201.6,0,0,1,25,62.4,268.22,268.22,0,0,1,5.53,40.14c.54,8.41.78,16,.76,23.14-.07,19.05-3.19,39.2-9.55,61.62-5.93,20.9-15,42.29-28.59,67.31a485.94,485.94,0,0,1-41.42,63.15c-10.83,14.2-22.92,28.85-39.21,47.5-17.76,20.35-37.18,39.32-56,57.66l-5.92,5.79c-13.13,12.85-27.75,25.93-47.4,42.42-22.35,18.75-43.19,35.46-63.7,51.08-27.7,21.1-56.81,41.77-86.53,61.44A20,20,0,0,1,422.08,954Z"/><path class="cls-2" d="M576.31,140.24c9.55,0,18.22,3.68,26.2,10.29a51.6,51.6,0,0,1,17,25.25c4.6,15.29.07,28.52-9.06,40.84-6.17,8.33-10,17.46-10.07,28.21-.1,11,4.87,19.74,10.07,28.8,4.56,7.93,12,8.94,19.64,10.39,34.51,6.54,66.3,19.63,94.49,40.69a173.71,173.71,0,0,1,44.55,48.67,188.27,188.27,0,0,1,23.35,58.38A255,255,0,0,1,797.75,470c.47,7.44.75,14.85.73,22.27-.07,19.82-3.67,39.14-9.06,58.12-6.43,22.69-16.3,44-27.51,64.66a476.49,476.49,0,0,1-40.32,61.47c-12.3,16.1-25.34,31.56-38.67,46.83-19.25,22.05-40.32,42.29-61.18,62.71-14.91,14.59-30.68,28.34-46.67,41.75q-31,26-63.22,50.7Q469.94,910.4,426,939.4a7.42,7.42,0,0,1-3.95,1.6,6,6,0,0,1-3.32-1.27C389,919.93,360,899,331.54,877.36c-16.45-12.54-32.23-26-48.23-39.1-13.71-11.25-26.8-23.18-40.1-34.89-23.09-20.32-44.78-42.1-65.87-64.38-29-30.65-55.8-63.25-78.42-99.06-14.81-23.45-27.85-47.71-37.58-73.8a271.65,271.65,0,0,1-13.68-52.72c-2.07-13.11-1.33-26.47-1.09-39.72a198.8,198.8,0,0,1,25-93.75c11.35-20.6,27-37.88,44.25-53.58a217.36,217.36,0,0,1,52.42-35.63,211.41,211.41,0,0,1,60.6-18.82c11-1.62,21.9-3,33-3h1.79a225.2,225.2,0,0,1,87.47,18.17c16.39,6.95,32,15.69,49.06,21.14a125.12,125.12,0,0,0,38.33,5.83c2.55,0,5.09-.07,7.64-.2,21.73-1.17,42.48-6.34,61.41-17.46A144,144,0,0,1,541,281.81c6.4-1.83,13-2.15,19.42-3.85,5.67-1.52,7-6.7,7.9-11.27,1.11-5.32.21-10.76-3.76-15.09a2.64,2.64,0,0,0-2.11-.79c-.53,0-1.08.07-1.63.07a4.14,4.14,0,0,1-1-.11q-24.23-6.12-31.33-30c-4.09-13.75-5.16-27.89-.82-41.52,5.9-18.57,17.88-31.9,37.38-37.4a41.5,41.5,0,0,1,11.25-1.62m0-26a67.24,67.24,0,0,0-18.3,2.6c-27.14,7.65-46.2,26.51-55.11,54.54-5.57,17.5-5.33,36.61.69,56.82A69.25,69.25,0,0,0,521.9,259c.45.43.91.86,1.37,1.27A177.35,177.35,0,0,0,494.38,274c-14.18,8.33-30.42,12.88-49.64,13.91-2.1.12-4.2.17-6.25.17a99.72,99.72,0,0,1-30.41-4.59c-9.43-3-18.83-7.44-28.79-12.12-5.8-2.73-11.81-5.55-18-8.2A252.36,252.36,0,0,0,263.87,243h-2c-13.13,0-25.44,1.55-36.79,3.23a239,239,0,0,0-68,21.08,244.13,244.13,0,0,0-58.69,39.86C76,327.43,60.29,346.58,48.82,367.39A225.24,225.24,0,0,0,20.57,473.23c0,2-.08,4-.13,5.94-.28,12.23-.58,24.87,1.54,38.3a299.86,299.86,0,0,0,15,57.74c9.39,25.2,22.46,50.91,40,78.6,21.64,34.26,48.31,68,81.53,103.06,25.38,26.8,46.85,47.78,67.57,66q5,4.35,9.87,8.73c9.95,8.84,20.25,18,30.91,26.74,4,3.26,8,6.62,12,9.87,11.93,9.88,24.27,20.1,37,29.81,30.57,23.31,59.55,44,88.59,63.34A31.63,31.63,0,0,0,422.08,967a32.92,32.92,0,0,0,18.3-5.92c29.95-19.82,59.3-40.66,87.23-61.94,20.67-15.75,41.66-32.58,64.17-51.46,19.93-16.71,34.77-30,48.14-43.08l5.91-5.78c19-18.52,38.57-37.68,56.68-58.42,16.48-18.88,28.74-33.73,39.75-48.16a499.25,499.25,0,0,0,42.5-64.84c14-25.88,23.48-48.11,29.68-70,6.68-23.56,10-44.86,10-65.12,0-7.45-.23-15.3-.78-24a282.4,282.4,0,0,0-5.81-42.09,214.43,214.43,0,0,0-26.57-66.41,199.62,199.62,0,0,0-51.17-55.93c-30.3-22.64-65.7-37.92-105.21-45.4l-1.23-.23-2.35-.45c-3.14-5.58-5-9.44-5-12.74,0-4.44,1.52-8.32,5-13,15.22-20.55,19.61-42,13-63.81a77.26,77.26,0,0,0-25.32-37.79c-13-10.79-27.42-16.26-42.78-16.26Z"/><path class="cls-2" d="M1492.17,539.74c-19.63,26.86-38.93,53.54-58.53,80-9.22,12.44-23,11.84-32.27,1.51-6.82-7.63-6.43-17.36-.22-25.91q30.9-42.54,62.13-84.82c2.62-3.58,4.06-5.84.28-10.75-19.28-25-37.71-50.66-56.42-76.09-2.4-3.26-4.93-6.45-7-9.91-6.92-11.57-3.39-22.69,5.56-28.5,10.52-6.83,21.14-4.09,28.79,6.41,17.47,24,35.15,47.77,52.71,71.67,1.7,2.31,3.15,4.8,5,7.7,6.25-8.4,12.32-16.49,18.32-24.64,14.15-19.22,28.2-38.52,42.43-57.69,7.09-9.57,20.23-8.18,25.91-3.68,11.32,9,12.34,19.2,4.94,29.59-20.9,29.33-42.64,58.06-64.18,86.94-1.67,2.24-2.17,3.43-.29,6,11.57,15.62,22.83,31.46,34.26,47.17,9.87,13.54,19.92,27,29.72,40.54,4.77,6.62,6.55,14,3,21.76a19.34,19.34,0,0,1-17.52,11.85c-8.09.32-14.14-4.06-18.87-10.59q-28-38.57-56.17-77A15.11,15.11,0,0,0,1492.17,539.74Z"/><path class="cls-2" d="M1300.15,503.73c0-35.27.17-70.54-.13-105.81a18.21,18.21,0,0,1,11.13-17.12c7.78-3,15.39-2.7,22.14,3.42,5.31,4.8,7.3,10.7,7.3,17.54,0,68,.11,135.93-.07,203.9,0,13.65-6,19.61-16.47,22.69s-24.14-6-24-17.62C1300.37,575.07,1300.15,539.4,1300.15,503.73Z"/><path class="cls-2" d="M1036,770q0-41,0-82.06c0-7.56,1.34-8.95,8.7-8.95h88.6c6.55,0,8.73,1.82,8.56,7.28-.17,5.71-4.15,7-8.79,7-26.16,0-52.33.12-78.49-.08-4.18,0-5.71.62-5.63,5.34q.48,29.71,0,59.46c-.09,5,1.68,5.62,6,5.58,22.79-.18,45.59-.1,68.38-.07,5.88,0,8.81,3,7.85,8-.74,3.79-2.88,5.24-7,5.2-23.39-.2-46.78,0-70.17-.17-3.65,0-5,.61-5,4.72q.36,30.33,0,60.65c-.06,4.45,1.46,5,5.36,5,26.16-.17,52.32-.1,78.49-.09,6.27,0,9.09,2.25,9.06,7.19s-2.8,7.08-9.17,7.08h-87.42c-8.14,0-9.29-1.18-9.29-9.54Q1036,810.7,1036,770Z"/><path class="cls-2" d="M1633.86,833.11q8.88-21.12,17.77-42.19c8.93-21.09,18-42.13,26.81-63.25,6.48-15.47,12.6-31.09,19.25-46.49,1.33-3.1,4.08-5.56,8.48-3.85,5.58,2.16,5.45,6.76,4,10.71-4,10.52-8.67,20.75-13,31.12-8.22,19.51-16.35,39.06-24.62,58.55-7.22,17-14.59,34-21.89,51-3.38,7.9-7,15.7-10,23.74-1.09,3-2,4.87-5.41,5s-6.39,0-8-4.11c-4.49-11.15-9.4-22.13-14.07-33.2q-10.47-24.78-20.86-49.59c-7.71-18.28-15.47-36.54-23.15-54.84-3.76-9-7.43-18-11.1-27-2.48-6.06-1-9.67,4.66-11.22,4.08-1.12,6.3,1.12,7.75,4.55q8.25,19.49,16.5,39,10.44,24.79,20.86,49.59C1616.43,791.37,1625.09,812.14,1633.86,833.11Z"/><path class="cls-2" d="M1680.82,338.1c1.7-17.46,13.73-39.92,35.91-40.91,10.27-.46,19.94,3.25,29.48,6.93,7.63,2.95,15,6.76,23.44,7.29,6.52.41,10.45-2.52,13.78-7.77,3.52-5.56,7.23-11,15.49-10.29,7.77.69,14.21,6.62,12.66,14.17-2.79,13.58-7.89,26.12-20.19,34.31-9.25,6.16-19.25,5.75-29.45,3.53-11.24-2.44-21.32-8.19-32.27-11.49-10.43-3.15-17.15-.6-22.41,8.86-2.59,4.66-5.91,7.93-11.84,7.94s-10.38-1.58-13.65-6.8C1680.39,341.67,1681.5,339.64,1680.82,338.1Z"/><path class="cls-2" d="M966.35,328.09c13.72,1,27.67-4.81,40.44-14.26,3-2.24,6.28-2.32,8.93.46a6.49,6.49,0,0,1,.21,9.15c-2.1,2.37-5.15,4-8,5.59C993.49,337,978.05,341.75,961.53,341c-37.08-1.76-71.21-26.37-77.93-66.2-7.34-43.51,19-81,59.51-91.66,25.08-6.62,48.9-1.81,70.42,13.35,4,2.83,5.48,5.72,3.05,9.76-2.68,4.47-6.83,3.45-10.16,1a74.79,74.79,0,0,0-26.26-12.48c-20.87-5.09-40-.6-57.33,11.57-15,10.57-23.8,25.28-27.25,43.41-6.7,35.15,18,69.16,53.11,77.12C953.76,328,958.77,327.84,966.35,328.09Z"/><path class="cls-2" d="M1188.31,770q0-40.74,0-81.47c0-3,.24-6,2.76-7.92,2.22-1.68,5.15-2.67,7.67-1.17,2.73,1.62,4,4.21,4,7.87-.16,50.94,0,101.88-.24,152.83,0,5.32,1.2,6.79,6.66,6.72,25.17-.32,50.34-.14,75.52-.14a32.49,32.49,0,0,1,3.56,0c4.47.5,7,3,7.17,7.53.15,4.94-3.59,5.93-7.3,6.67a24.17,24.17,0,0,1-4.74.05h-85c-7.79,0-10-2.22-10-10.12Q1188.3,810.42,1188.31,770Z"/><path class="cls-2" d="M1118.12,269.74c0,9.31.37,18.64-.09,27.93-.62,12.26,11,27.53,26.28,30.28,20.52,3.69,33.82-9.19,38.77-25.12a18.26,18.26,0,0,0,.46-5.24c0-19.62.08-39.23,0-58.85,0-4.85,1.37-8.59,6.48-9.4,3.84-.61,6.64,3.5,6.65,9.14,0,18.42.54,36.87-.13,55.27-.73,20.14-9.13,35.81-28.87,43.86-23,9.37-51-2.25-59.11-25.88a69.56,69.56,0,0,1-3.41-21.61c-.26-16.44-.08-32.88-.07-49.33a22,22,0,0,1,1-7.41,5.52,5.52,0,0,1,5.69-3.95,5.08,5.08,0,0,1,5.2,3.8,25.93,25.93,0,0,1,1.18,6.79C1118.06,249.93,1118.12,259.83,1118.12,269.74Z"/><path class="cls-2" d="M1751.06,767.05c0-27.72.06-55.45-.06-83.17,0-4.73,1.17-7.38,6.55-7.4s6.66,2.49,6.65,7.29q-.12,83.18,0,166.34c0,4.73-1.16,7.38-6.54,7.4S1751,855,1751,850.22C1751.12,822.5,1751.06,794.77,1751.06,767.05Z"/><path class="cls-2" d="M1053.87,262q0-35.94,0-71.89c0-3.86.22-7.38,5.34-7.26,4.65.11,6.71,2.16,6.69,7.3-.18,47.53-.11,95.06-.11,142.6,0,2.86.24,5.63-3,7.44-2.49,1.39-4.35.63-6.58-.28-3.08-1.26-2.28-3.79-2.28-6Q1053.84,298,1053.87,262Z"/><path class="cls-3" d="M310.52,476.84c16.51.71,32.77-1.39,49.09-3.67A340.7,340.7,0,0,0,427.78,456a223,223,0,0,0,28.51-12.3c1.21-.63,2.28-1.8,4.33-1.34-2.06,4.51-4,8.87-6,13.19a668,668,0,0,0-34,89.66,749.09,749.09,0,0,0-19.19,78.22c-3,16-5.61,32.06-7.64,48.17-1.1,8.76-1.55,17.69-2.41,26.5-2.28,23.51-2.06,47-1.67,70.55.28,16.68,1.4,33.35,2,50,.46,12.18,1.32,24.36,2.05,36.54.37,6.08.42,12.19,1,18.26.08.83,1.4,1.7,0,2.37-.92.44-1.79-.09-2.67-.76-6.36-4.81-12.88-9.4-19.19-14.27-16.52-12.74-33.13-25.38-49.38-38.46-11.87-9.57-23.23-19.78-34.82-29.7-19.6-16.77-38.4-34.39-56.73-52.56-13.26-13.14-26.48-26.33-38.91-40.22-21.55-24.09-41.9-49.19-59.49-76.39C116.43,597,101.77,569.26,93,538.8a200.19,200.19,0,0,1-6.69-34.4c-1.08-10.3-.32-20.54-.78-30.79a13.92,13.92,0,0,1,2-7.77c2.07-.75,3.93.16,5.82.73,28,8.49,56.7,13.26,85.8,16.12a472,472,0,0,0,60.38,1.69,323.8,323.8,0,0,0,62.37-7.74C304.75,476,307.7,474.72,310.52,476.84Z"/><path class="cls-2" d="M310.52,476.84c-8.71.47-16.95,3.62-25.62,4.53-9.28,1-18.5,2.68-27.79,3.57-16.9,1.6-33.87,1.32-50.8,1-15.14-.31-30.2-2-45.25-3.79a433.78,433.78,0,0,1-65.31-13.19c-2.81-.79-5.49-2.05-8.23-3.09.91-15.48,5.39-30,10.85-44.45A168.45,168.45,0,0,1,120.64,381a171.28,171.28,0,0,1,33.64-34.45c8.49-6.52,17.18-12.7,26.7-17.47,12.5-6.26,25.79-10.51,39.32-14.11a193.19,193.19,0,0,1,63.91-5.72,187.55,187.55,0,0,1,55,12.68c18.11,7.09,34.86,17.24,53.3,23.51a147,147,0,0,0,31.67,6.8c10.3,1.11,20.52.25,30.76.82,3.18.17,6.21-2.2,10-.37-4.33,5.17-8.25,10.34-12.66,15C438.31,382.55,425,398,410.06,411.89c-18,16.83-36.8,32.69-57.79,45.66A197,197,0,0,1,310.52,476.84Z"/><path class="cls-4" d="M641.18,710.42c.05.94-1,1.37-1.63,2-8,8.4-15.8,17-24.16,25.08-14.54,14-29.1,28-44.29,41.2q-25.87,22.59-52.7,44.1c-29.35,23.53-59.34,46.13-90.25,67.56-5.21,3.61-8,3.46-12.35-.41-4-3.53-8.63-6.33-13.13-9.22-2-1.26-2.45-2.36-1.75-4.7,6-20.12,11.84-40.28,17.69-60.44,8.61-29.66,19.54-58.5,31.22-87a875.29,875.29,0,0,1,37.56-80.06A604.77,604.77,0,0,1,537,570.14c6.47-8.64,13.79-16.64,20.77-24.89,1.63-1.93,2.43-3,3.91.76,10,25.58,20.77,50.86,32.56,75.72,9.74,20.53,20.39,40.55,31.06,60.58,4.33,8.14,9.25,16,13.86,24C639.92,707.53,640.46,708.89,641.18,710.42Z"/><path class="cls-5" d="M704.48,633.84c-2.52-10.32-4.89-19.36-6.91-28.49-3.37-15.21-6.68-30.43-9.7-45.71s-5.68-30.36-8.33-45.58c-2.45-14.12-5.18-28.21-6.82-42.43-1.21-10.58-2.39-21.19-3.44-31.8-1.19-12.12-1.49-24.28-2.82-36.37-.51-4.56,1.8-5.1,5.18-4.37,15,3.22,29.42,7.94,42.88,15.4,10.84,6,20.49,13.79,30.81,20.54,9.94,6.48,11.09,16.24,12.08,26.23.78,7.88,1,15.82,1.24,23.77.69,23.4-3.71,45.84-11.48,67.76a310.19,310.19,0,0,1-31.83,63.91C711.93,622,708.58,627.37,704.48,633.84Z"/><path class="cls-2" d="M2129.35,500.85a120.78,120.78,0,0,0-2.2-27.38c-7.33-34.57-25.41-62.42-54.34-81.89-31.14-21-65.83-25.5-101.74-13.53-28.24,9.41-50.07,27.15-65.63,52.85-19.41,32.08-23.7,66.19-15.35,102.29,6.75,29.22,22.51,52.84,46.2,70.88,24.52,18.67,52.2,27,83.29,23.85a116.81,116.81,0,0,0,47.16-15.2A121.82,121.82,0,0,0,2109,571.9C2122.81,550.21,2130.83,526.46,2129.35,500.85Zm-71,66.33c-11.69,10.73-25.61,16.9-41.62,19.11-42.65,5.9-78.6-29.78-86.19-63.74-6.21-27.73-1.7-53.22,14.73-75.93,12.69-17.54,30-28.73,52.21-31.91,23.42-3.36,43.29,3.39,60.72,18.77,19.94,17.6,29.32,39.89,29.77,66.24C2088.19,526.69,2078,549.15,2058.37,567.18Z"/><path class="cls-2" d="M1844.2,603.62c-12.67-36.16-26.7-71.82-40.08-107.71q-18.78-50.36-37.6-100.71c-4.33-11.6-9.73-14.88-20.58-16.06-9-.18-17.14,6.06-20,14-4.71,13.3-9.87,26.43-14.82,39.64q-17,45.23-33.92,90.47c-8.07,21.41-16.38,42.72-24.32,64.17-2.5,6.78-6.1,13.37-6.46,20.7-.49,10,7.68,19,18,20.86,8.34,1.48,18.75-4.8,22-13.6q7.44-19.82,14.51-39.75c1.29-3.64,3.16-5.05,7.21-5q38.06.3,76.09,0c3.5,0,4.89,1,6.09,4.36,5.33,14.69,11.06,29.23,16.67,43.81,3,7.83,15.54,12.83,26,8.44C1841,623.88,1847.23,612.28,1844.2,603.62Zm-126-73.67c9.08-24.2,18.17-48.46,27.6-73.6,9.35,24.83,18.47,49,27.72,73.6Z"/><path class="cls-2" d="M1250.32,605.23c-1.36-8.46-5.14-16-8-23.84-12.31-33.65-25-67.16-37.66-100.7-10.89-28.9-22-57.74-32.78-86.66-3.35-8.93-9.62-14.25-18.56-14.89s-16.38,3.62-20.39,12.08c-2.36,5-4,10.28-6,15.45q-15.42,40.95-30.81,81.9c-7.93,21.05-16,42.05-23.83,63.14-6.44,17.32-13,34.61-18.77,52.16-3.61,11,3.83,20.7,12,23.61,12.08,4.32,22.92-1.71,26.46-10.87,5.48-14.22,10.94-28.45,16.26-42.72.72-1.92.86-3.3,3.61-3.29,26.75.14,53.51.09,80.26.08,1.78,0,2.76,0,3.59,2.45,4.41,12.79,9.43,25.37,14.09,38.07,4.35,11.87,11.08,17.75,20.73,17.79C1243.44,628.68,1252.38,617.93,1250.32,605.23Zm-126.21-75c9.24-24.61,18.35-48.89,27.7-73.78,9.4,24.86,18.56,49.11,27.88,73.78Z"/><path class="cls-2" d="M1043.41,434.75a72.62,72.62,0,0,0-25.5-38.78c-12.78-10.17-27.15-16.18-43.25-16.66-22.77-.67-45.58.16-68.36-.31-11.1-.23-20.38,9.29-20.33,20.52q.45,104.33,0,208.67c-.06,12.93,9.9,20.61,20.63,20.7,11.24.09,20.36-10.5,20-20.61-.37-11.68-.09-23.38-.09-35.08,0-11.29.25-22.6-.11-33.88-.17-5.1.78-7.11,6.52-6.86,12.27.52,24.57.29,36.86.09a67.57,67.57,0,0,0,14.49-1.5c16-3.82,30.32-10.75,41.62-23.35Q1054.54,475.83,1043.41,434.75ZM978.9,490.31a48.56,48.56,0,0,1-12.59,1.77c-11.87.24-23.75-.05-35.62.17-3.45.06-4.25-1-4.19-4.31.19-10.68.07-21.37.07-32.06s.12-21.38-.07-32.06c-.06-3.28.74-4.36,4.19-4.31,13.65.2,27.36-.65,40.95.27,16.76,1.13,30.31,11.93,33.47,31.58C1008,469.05,995.62,485.43,978.9,490.31Z"/><path class="cls-2" d="M1957.87,751.93c-4-23.65-15.8-43.32-35.25-57.75-13.47-10-28.66-16.52-45.52-17.45-13.83-.76-27.74-.17-41.61-.15-6.06,0-8.28,2.31-8.28,8.55q0,41,0,82c0,27.35,0,54.7,0,82.05,0,4.34.88,8.23,5.93,8.09,17.33-.49,34.74,1.72,52-1.12,23.68-3.9,42.31-16.29,56.42-35.31C1956.75,800.36,1962.12,776.93,1957.87,751.93ZM1885,842.07c-13.46,2.91-26.94,1.83-40.43,2.31-4.23.15-3-2.7-3-4.76q-.08-36.29,0-72.58c0-24.19.09-48.38-.09-72.57,0-3.81.86-5,4.82-4.91,15.24.13,30.67-1,45.26,4.37,29,10.68,46.86,30.74,52.46,61.76C1950.92,794.43,1923.09,833.83,1885,842.07Z"/><path class="cls-2" d="M1460.94,850.76c-10-26.76-19.94-53.59-29.91-80.38q-16-43.14-32.12-86.26c-1-2.71-2.7-3.77-5.64-4.08-5.22-.55-7.87,2.08-9.49,6.42q-17.25,46.37-34.47,92.73Q1336,815.09,1322.55,851c-1.51,4.07-.55,7.49,3.67,9.3,4.48,1.92,7.94-.3,9.48-4.13q7.36-18.27,13.77-36.93c1.25-3.66,2.78-4.75,6.54-4.72,22.78.17,45.57.44,68.35-.12,7.15-.18,9.74,2.14,11.68,8.76,3.26,11.14,7.94,21.85,12,32.76,1.54,4.14,4.79,5.72,8.75,4.94a6.26,6.26,0,0,0,5.2-6.18A9.48,9.48,0,0,0,1460.94,850.76ZM1360,800.34c-2.4,0-3.36-.77-2.47-3.12q17.12-44.9,34.25-89.77c.11-.27.46-.45.71-.7,11.6,30.9,23.18,61.77,35.1,93.56C1404.76,800.31,1382.39,800.28,1360,800.34Z"/><path class="cls-2" d="M2123.77,848.77q-9.09-25.29-18.52-50.45c-14.41-38.36-29-76.65-43.24-115.08-1.52-4.11-3.73-6.4-7.64-6.54s-6.46,2.5-7.77,6q-14.6,38.8-29,77.67Q2001.3,804,1985,847.65c-1.5,4-1,7.59,2.66,9.55,4.12,2.2,9.26-.42,10.84-4.68,4.75-12.88,9.62-25.71,14.21-38.64.86-2.43,2.17-2.88,4.32-2.88q37.44,0,74.89,0c2.16,0,3.39.54,4.25,3,4.55,12.75,9.58,25.32,14.08,38.08,1.39,3.93,3.56,5.65,7.55,5.38C2123.38,857.49,2125.76,854.32,2123.77,848.77Zm-105-51,35.78-94.65,35.46,94.65Z"/><path class="cls-2" d="M994.53,724.21a51,51,0,0,0-47.75-45.07c-17.2-.94-34.49-.19-51.73-.18-7.9,0-10.11,2.18-10.12,10q0,40.44,0,80.87,0,41.34,0,82.66c0,5.4,3.08,9,7.39,8.42,4.47-.63,7-2.94,7-8.24-.25-21.41,0-42.82-.2-64.22,0-3.88,1-4.82,4.86-4.9,15.36-.31,30.72.93,46.1-.93s27.21-9.52,35.94-21.88C993.69,749.83,996.06,737.65,994.53,724.21Zm-43.7,44.95a13.89,13.89,0,0,1-3.54.21c-14.46,0-28.93-.16-43.39.11-4,.08-4.86-1.22-4.78-5,.24-11.1.09-22.2.09-33.29,0-11.3.13-22.59-.09-33.88-.06-3.45,1-4.24,4.31-4.2,14.66.17,29.37-.66,44,.27,15.12,1,28.18,11.84,32.66,28.15C985.92,742.89,971.88,763.53,950.83,769.16Z"/><path class="cls-2" d="M1330.69,240.55c-23.71-18.09-56.63-12.19-73.37,9.22,0-20.44,0-39.86,0-59.28,0-4.54-1.48-7.52-6.46-7.65s-5.5,3.19-5.5,7.14q.08,72-.07,144c0,4.41,1.57,7,5.68,7,4.3-.05,6.47-2.94,6.34-7.42-.11-3.65,0-7.31,0-11.57,27.87,29.33,66.76,21.83,84.51-3.06C1359.32,294.36,1356,259.82,1330.69,240.55ZM1298.84,328c-22.21,2-42.53-21.16-41.65-43.25.89-22.37,18.51-43.11,42.64-42.46,23.18.62,40.59,20.54,40.46,43C1340.16,308,1323.2,328.65,1298.84,328Z"/><path class="cls-2" d="M1477.43,246.62c-11.47-12.55-26-17.39-43-16.28-15.9,1-28.47,7.89-37.93,20.42-10,13.23-13.75,28-10.8,44.58,2.72,15.3,10.43,27.46,23,36.11A50.63,50.63,0,0,0,1447,340c15.77-2.59,27.33-10.8,36.21-23.52,2.39-3.44,1.84-7.29-1.29-9.28s-6.83-1.27-9.22,2.35c-9.86,14.9-23.54,21.4-41.29,18.34-10-1.72-17.9-6.86-24.46-14.74-6.2-7.44-8.71-16-10.32-25.66h6.48c27.55,0,55.1-.11,82.64.1,4.8,0,6.09-1.49,6-6.13C1491.63,267.88,1486.36,256.4,1477.43,246.62Zm-2.67,29q-29.38,0-58.76,0h-18.14c5.06-16.41,14.3-28.25,31.53-32.31,22.81-5.38,41.94,8.05,48.91,29.15C1479.57,276.32,1476.8,275.62,1474.76,275.62Z"/><path class="cls-2" d="M252.52,647.5c0-6.33-.26-12.67.1-19,.22-3.93-1.21-4.66-4.8-4.6-12.32.21-24.65.1-37,.07-7.42,0-9.31-2-9.32-9.45V589.05c0-7,2-9,9.23-9,12.5,0,25-.15,37.48.08,3.61.06,4.42-1.1,4.37-4.51-.2-12.49-.1-25-.07-37.48,0-6.27,2.8-9.06,9-9.09,8.17,0,16.33,0,24.49,0,8.37,0,10,2.75,10.33,10.43.5,12.14.24,24.32.06,36.47-.05,3.29.93,4.22,4.19,4.17,12.16-.18,24.32-.09,36.48-.06,7.47,0,10.37,2.93,10.4,10.43,0,7.17.1,14.33,0,21.49-.17,9.75-2.83,12.32-11.79,12.13-11.33-.24-22.66.12-34-.16-4-.09-5.44.78-5.32,5.11.33,11.48.29,23,.06,34.48-.18,9-2.64,11.76-11.32,11.55-8-.19-16,0-24-.06-5.65,0-8.56-2.9-8.62-8.49C252.47,660.16,252.52,653.83,252.52,647.5Z"/></svg>