<svg id="Camada_1" data-name="Camada 1" xmlns="http://www.w3.org/2000/svg" viewBox="0 0 136.88 145.08"><defs><style>.cls-1{fill:#181412;}.cls-2{fill:#fff;}.cls-3{fill:#52aad4;}.cls-4{fill:#f1e733;}.cls-5{fill:#be2d73;}</style></defs><title>clubesitelogo</title><g id="Camada_2" data-name="Camada 2"><g id="Camada_1-2" data-name="Camada 1-2"><path class="cls-1" d="M131.89,64.39a32,32,0,0,1-1.29,9.07,58.09,58.09,0,0,1-7.07,15.42c-1.8,2.88-3.81,5.61-5.85,8.33-1.15,1.53-2.46,2.93-3.69,4.4A162.1,162.1,0,0,1,102.07,114c-2.3,2.23-4.68,4.37-7.17,6.38-1.91,1.54-3.71,3.2-5.6,4.72q-3.81,3.06-7.71,6c-4,3-8.17,5.9-12.37,8.71a1.35,1.35,0,0,1-.72.27,1.43,1.43,0,0,1-.74-.28q-6.78-4.58-13.32-9.52c-3-2.26-5.88-4.56-8.75-6.94-1.81-1.52-3.61-3.06-5.37-4.63-2.35-2.11-4.62-4.32-7-6.43s-4.49-4.49-6.67-6.79A113.77,113.77,0,0,1,17.91,95a86.1,86.1,0,0,1-6.56-10.11,54.52,54.52,0,0,1-4.29-9.7,39.09,39.09,0,0,1-1.89-9c-.15-1.94,0-3.87-.12-5.81a7.33,7.33,0,0,0,.29-2.51A38.34,38.34,0,0,1,7.88,48.4a30.62,30.62,0,0,1,4.76-7.73,42.41,42.41,0,0,1,5.62-5.51A35.06,35.06,0,0,1,26.58,30a38.52,38.52,0,0,1,8.65-2.67,32.89,32.89,0,0,1,6.19-.53c1.09,0,2.18,0,3.27.09a34.07,34.07,0,0,1,10.66,2.47c3.32,1.32,6.42,3.16,9.86,4.15a21.21,21.21,0,0,0,5.87.8,18.71,18.71,0,0,0,2.69-.13,21,21,0,0,0,6.38-1.49c1.94-.86,3.8-1.9,5.72-2.82a16.65,16.65,0,0,1,5.26-1.48,2.59,2.59,0,0,0,2.12-3,2.39,2.39,0,0,0-.12-.46,1.93,1.93,0,0,0-1.68-1.37,6.38,6.38,0,0,1-4.6-3.77,12,12,0,0,1-.82-7,9.2,9.2,0,0,1,4.33-6.52A7.62,7.62,0,0,1,94.25,5h.26A6.77,6.77,0,0,1,98.4,6.34,8.46,8.46,0,0,1,102,12a6.93,6.93,0,0,1-1.32,5.24,12.52,12.52,0,0,0-1.87,3.42,7.33,7.33,0,0,0,.83,5.83c.33.6.79,1.13,1.17,1.7.57.86,1.53.8,2.36.95a45.09,45.09,0,0,1,8.15,2.39,34.83,34.83,0,0,1,8.25,4.62,29.2,29.2,0,0,1,7.54,8.35,32.59,32.59,0,0,1,3.69,9c.34,1.33.53,2.69.79,4A61,61,0,0,1,131.89,64.39Z"/><path class="cls-2" d="M136.88,63.88a60.55,60.55,0,0,0-.35-7v-.32l-.21-1.16c-.18-1-.36-2.07-.65-3.18A37.67,37.67,0,0,0,131.37,42a34.23,34.23,0,0,0-8.81-9.76A40.17,40.17,0,0,0,113.12,27a49.38,49.38,0,0,0-9-2.63L104,24.1c-.65-1.2-.51-1.66-.42-1.94a9,9,0,0,1,1.19-2,11.88,11.88,0,0,0,2.15-8.94,13.48,13.48,0,0,0-5.62-8.94A11.76,11.76,0,0,0,94.51,0H94a12.65,12.65,0,0,0-6.45,2.06,14.08,14.08,0,0,0-6.52,10A16.73,16.73,0,0,0,82.31,22a13.11,13.11,0,0,0,2.06,3l-.69.32-2.26,1.13c-1.14.59-2.22,1.14-3.3,1.62a15.81,15.81,0,0,1-4.84,1.08c-.75.07-1.5.11-2.2.11a16.18,16.18,0,0,1-4.48-.6,36,36,0,0,1-5.38-2.21c-1.28-.6-2.61-1.22-4-1.78A38.93,38.93,0,0,0,45,21.89c-1.32-.07-2.48-.1-3.54-.1a37.17,37.17,0,0,0-7.14.62,43.24,43.24,0,0,0-9.74,3,40.27,40.27,0,0,0-9.58,6,47.17,47.17,0,0,0-6.25,6.15,35,35,0,0,0-5.52,9A42.18,42.18,0,0,0,.39,57.23a9.56,9.56,0,0,0-.08,1.51l-.31.6.05,1.28v2.21c0,1.22,0,2.47.11,3.8A43.93,43.93,0,0,0,2.3,76.77,59.52,59.52,0,0,0,7,87.35,90.61,90.61,0,0,0,13.91,98a120.12,120.12,0,0,0,9.14,10.88l1.28,1.36c1.78,1.9,3.63,3.85,5.66,5.7,1.15,1,2.31,2.11,3.43,3.16s2.35,2.19,3.56,3.28c1.68,1.5,3.48,3,5.5,4.74,2.83,2.35,5.75,4.66,8.94,7.09,4.27,3.24,8.83,6.5,13.55,9.68l.12.08A6,6,0,0,0,72,144c4.69-3.14,8.81-6,12.63-8.89,2.57-1.93,5.21-4,7.84-6.09,1-.82,2-1.66,2.93-2.47s1.75-1.55,2.6-2.27c2.57-2.08,5.1-4.34,7.53-6.7l1.21-1.18a151.56,151.56,0,0,0,11.07-11.6c.41-.49.83-1,1.25-1.46.86-1,1.74-2,2.59-3.12,2-2.72,4.18-5.63,6.09-8.69a62.5,62.5,0,0,0,7.65-16.74,37.16,37.16,0,0,0,1.47-10.48Zm-6.28,9.58a58.09,58.09,0,0,1-7.07,15.42c-1.8,2.88-3.81,5.61-5.85,8.33-1.15,1.53-2.46,2.93-3.69,4.4A162.1,162.1,0,0,1,102.07,114c-2.3,2.23-4.68,4.37-7.17,6.38-1.91,1.54-3.71,3.2-5.6,4.72q-3.81,3.06-7.71,6c-4,3-8.17,5.9-12.37,8.71a1.35,1.35,0,0,1-.72.27,1.43,1.43,0,0,1-.74-.28q-6.78-4.58-13.32-9.52c-3-2.26-5.88-4.56-8.75-6.94-1.81-1.52-3.61-3.06-5.37-4.63-2.35-2.11-4.62-4.32-7-6.43s-4.49-4.49-6.67-6.79A113.77,113.77,0,0,1,17.91,95a86.1,86.1,0,0,1-6.56-10.11,54.52,54.52,0,0,1-4.29-9.7,39.09,39.09,0,0,1-1.89-9c-.15-1.94,0-3.87-.12-5.81a7.33,7.33,0,0,0,.29-2.51A38.34,38.34,0,0,1,7.88,48.4a30.62,30.62,0,0,1,4.76-7.73,42.41,42.41,0,0,1,5.62-5.51A35.06,35.06,0,0,1,26.58,30a38.52,38.52,0,0,1,8.65-2.67,32.89,32.89,0,0,1,6.19-.53c1.09,0,2.18,0,3.27.09a34.07,34.07,0,0,1,10.66,2.47c3.32,1.32,6.42,3.16,9.86,4.15a21.21,21.21,0,0,0,5.87.8,18.71,18.71,0,0,0,2.69-.13,21,21,0,0,0,6.38-1.49c1.94-.86,3.8-1.9,5.72-2.82a16.65,16.65,0,0,1,5.26-1.48,2.59,2.59,0,0,0,2.12-3,2.39,2.39,0,0,0-.12-.46,1.93,1.93,0,0,0-1.68-1.37,6.38,6.38,0,0,1-4.6-3.77,12,12,0,0,1-.82-7,9.2,9.2,0,0,1,4.33-6.52A7.62,7.62,0,0,1,94.25,5h.26A6.77,6.77,0,0,1,98.4,6.34,8.46,8.46,0,0,1,102,12a6.93,6.93,0,0,1-1.32,5.24,12.52,12.52,0,0,0-1.87,3.42,7.33,7.33,0,0,0,.83,5.83c.33.6.79,1.13,1.17,1.7.57.86,1.53.8,2.36.95a45.09,45.09,0,0,1,8.15,2.39,34.83,34.83,0,0,1,8.25,4.62,29.2,29.2,0,0,1,7.54,8.35,32.59,32.59,0,0,1,3.69,9c.34,1.33.53,2.69.79,4a62.88,62.88,0,0,1,.32,6.86A32.2,32.2,0,0,1,130.6,73.46Z"/><path class="cls-3" d="M49.3,61.91c2.19-.17,4.39-.18,6.58-.45a62.63,62.63,0,0,0,7.81-1.4,50,50,0,0,0,9.07-3.16c.67-.32,1.36-.59,2.18-.95-.33.79-.58,1.49-.91,2.15A98.47,98.47,0,0,0,68.94,71a115.88,115.88,0,0,0-4,16c-.48,2.66-.91,5.33-1.2,8-.21,1.94-.35,3.88-.53,5.82-.13,1.49.06,3-.15,4.45-.37,2.56.08,5.1.07,7.65s.21,5.31.32,8c.08,1.92.26,3.84.33,5.77a15.21,15.21,0,0,1,.11,2.61c-1.83-1.36-3.61-2.64-5.35-4-2.69-2.08-5.38-4.18-8-6.33-1.79-1.46-3.49-3-5.25-4.54a160.71,160.71,0,0,1-11.92-11.28c-2.57-2.68-5-5.44-7.38-8.33a100.6,100.6,0,0,1-6.28-8.53A53.67,53.67,0,0,1,13.2,73.07a32.31,32.31,0,0,1-1.41-7.29,32.84,32.84,0,0,1,0-5.61c0-.11,0-.22.14-.27a1.67,1.67,0,0,1,.83.09,75.23,75.23,0,0,0,15.1,2.86,64,64,0,0,0,6.92.31,64.58,64.58,0,0,0,12.93-1.28C48.26,61.77,48.79,61.54,49.3,61.91Z"/><path class="cls-2" d="M49.3,61.91l-4.86.76c-1.09.16-2.2.29-3.3.46a37,37,0,0,1-5.86.25,52.44,52.44,0,0,1-5.88-.21C28,63,26.62,63,25.23,62.79a75.87,75.87,0,0,1-7.63-1.27A30.17,30.17,0,0,1,12,59.9a31,31,0,0,1,2.23-8.36,28.06,28.06,0,0,1,4-6.67,31.66,31.66,0,0,1,6.29-6A30.67,30.67,0,0,1,36.57,34,28.42,28.42,0,0,1,45,33.48a34.45,34.45,0,0,1,11.45,3,56.64,56.64,0,0,0,8,3.46,30.15,30.15,0,0,0,9.83.94,9.33,9.33,0,0,1,1.4-.11,12.77,12.77,0,0,1-1.9,2.31c-2.53,2.83-5.08,5.64-7.87,8.22a49.66,49.66,0,0,1-12.56,9C52.05,60.93,50.66,61.38,49.3,61.91Z"/><path class="cls-4" d="M91.8,72.91c1.07,2.8,2.18,5.49,3.33,8.15,1.53,3.54,3.25,7,5,10.42,1.59,3.17,3.34,6.25,5.12,9.32a.47.47,0,0,1,0,.63,7,7,0,0,1-1.12,1.25c-1.57,1.58-3.1,3.21-4.74,4.72-2.67,2.46-5.28,5-8.1,7.29-2,1.62-3.86,3.36-5.85,5-2.47,2-5,3.93-7.53,5.84C75,127.7,72,129.85,69,131.92c-.32.21-.53.25-.82.05l-3-2.05a.67.67,0,0,1-.25-.84c1-3.31,2-6.61,2.91-9.93,1.23-4.3,2.82-8.47,4.41-12.63,1-2.51,2.1-5,3.19-7.4.89-2,1.76-4,2.76-5.9a114.16,114.16,0,0,1,7.6-12.83A63.4,63.4,0,0,1,91.8,72.91Z"/><path class="cls-5" d="M116.05,88.25c-.81-3.67-1.61-7.12-2.35-10.58-.58-2.72-1.06-5.46-1.6-8.18-.39-1.92-.62-3.88-.91-5.82s-.59-3.77-.83-5.66c-.17-1.35-.25-2.72-.36-4.08s-.25-2.88-.33-4.33c0-1,.09-1.06,1-.88a23.61,23.61,0,0,1,4.73,1.41,38.57,38.57,0,0,1,8.37,5.27c1,.8,1,1.94,1.14,3a35.79,35.79,0,0,1,.38,5.85A30.17,30.17,0,0,1,124,72.42a51.13,51.13,0,0,1-6.25,13.24C117.23,86.47,116.73,87.28,116.05,88.25Z"/></g></g><path class="cls-2" d="M38.73,90.79c0-1.06,0-2.13,0-3.19,0-.66-.2-.78-.81-.77-2.07,0-4.14,0-6.21,0-1.24,0-1.56-.33-1.56-1.58V81c0-1.19.33-1.52,1.55-1.52,2.1,0,4.2,0,6.29,0,.61,0,.75-.18.74-.76,0-2.1,0-4.19,0-6.29,0-1,.48-1.52,1.52-1.53h4.12c1.4,0,1.68.46,1.73,1.75.08,2,0,4.09,0,6.13,0,.55.16.71.7.7,2,0,4.09,0,6.13,0,1.26,0,1.74.49,1.75,1.75s0,2.41,0,3.61c0,1.64-.47,2.07-2,2-1.9,0-3.8,0-5.7,0-.68,0-.92.13-.9.86.06,1.92,0,3.86,0,5.79,0,1.51-.44,2-1.9,1.94s-2.68,0-4,0A1.29,1.29,0,0,1,38.74,94C38.72,92.92,38.73,91.85,38.73,90.79Z"/></svg>