<?xml version="1.0" encoding="utf-8"?>
<!-- Generator: Adobe Illustrator 22.0.1, SVG Export Plug-In . SVG Version: 6.00 Build 0)  -->
<svg version="1.1" id="Camada_1" xmlns="http://www.w3.org/2000/svg" xmlns:xlink="http://www.w3.org/1999/xlink" x="0px" y="0px"
	 viewBox="0 0 1920 1080" style="enable-background:new 0 0 1920 1080;" xml:space="preserve">
<style type="text/css">
	.st0{fill:#53ABD5;}
	.st1{fill:#4C9FBF;}
</style>
<rect class="st0" width="1920" height="1080"/>
<g>
	<g>
		<path class="st1" d="M50,132.4c-0.2-7.5,0.9-14.3,3.1-20.9c2-5.8,4.9-11,8.7-15.8c2.4-3,5.1-5.6,7.8-8.2c4.7-4.4,10.1-7.8,16-10.5
			c4.1-1.9,8.4-3.2,12.8-4.1c2.6-0.5,5.2-0.8,7.8-1c1.7-0.1,3.5-0.2,5.2-0.2c5.2,0,10.2,0.8,15.2,2.1c4,1.1,7.8,2.6,11.6,4.3
			c3.1,1.4,6.2,3,9.5,4.1c2.5,0.9,5.1,1.4,7.8,1.7c2.3,0.2,4.6,0.3,6.9,0.1c5.8-0.3,11.3-1.9,16.4-4.8c2.8-1.6,5.7-3.1,8.8-4
			c1.7-0.5,3.5-0.9,5.3-1.1c1.1-0.1,1.9-0.5,2.4-1.7c0.6-1.4,1-2.7,0.5-4.2c-0.4-1-0.7-1.7-2.1-2c-4.9-0.9-7.8-4.2-9.1-8.8
			c-0.8-2.6-0.8-5.3-0.7-8c0.2-3.2,1.5-6,3.5-8.5c1.8-2.3,4.1-4,6.9-4.9c3.9-1.3,7.5-0.6,10.7,1.9c2.8,2.1,4.6,4.9,5.4,8.3
			c0.8,3.6-0.2,6.9-2.3,9.8c-1.4,1.9-2.5,3.8-3,6.1c-0.9,3.7,0.3,6.9,2.2,9.9c0.4,0.7,1,1.2,1.4,1.9c0.5,0.8,1.4,1.1,2.2,1.2
			c4.8,0.7,9.4,2,13.8,3.7c5.4,2.1,10.5,4.8,15.1,8.4c2.1,1.6,4.1,3.3,5.9,5.3c3,3.2,5.5,6.7,7.6,10.6c2.5,4.6,4.2,9.5,5.3,14.5
			c0.6,2.9,1,5.8,1.2,8.7c0.3,3,0.1,6.1,0.2,9.1c0,3.6-0.7,7.1-1.4,10.6c-1.4,6.4-3.8,12.3-6.7,18.1c-1.7,3.5-3.7,6.8-5.7,10.1
			c-2.9,4.6-6,8.9-9.3,13.2c-1.8,2.3-3.7,4.5-5.6,6.7c-2.8,3.3-5.8,6.5-8.7,9.7c-3.1,3.4-6.4,6.6-9.7,9.8c-2.7,2.7-5.6,5.3-8.5,7.9
			c-3.8,3.4-7.7,6.7-11.7,10c-4.5,3.7-9.1,7.3-13.8,10.9c-5.2,4-10.5,7.8-15.9,11.5c-2.4,1.7-4.9,3.2-7.3,4.9c-0.6,0.4-1,0.4-1.5,0
			c-8-5.4-15.9-10.9-23.6-16.9c-3.6-2.8-7.3-5.7-10.9-8.6c-3.5-2.8-6.9-5.8-10.3-8.7c-2.2-1.9-4.4-3.9-6.6-5.9
			c-4.7-4.2-9.1-8.6-13.5-13.1c-3.6-3.6-6.9-7.4-10.2-11.3c-4.9-5.7-9.5-11.7-13.6-17.9c-3.5-5.3-6.6-10.8-9.2-16.6
			c-2.3-5-4-10.2-5.2-15.6c-0.5-2.2-0.8-4.5-1-6.8C49.9,135.9,50.1,133.9,50,132.4"/>
		<path class="st0" d="M123.5,129.8c3.7,0.1,7.4-0.2,11-0.6c4.8-0.6,9.5-1.5,14.2-2.7c4-1,7.8-2.3,11.6-4c1.7-0.8,3.5-1.5,5.4-2.4
			c-0.7,1.6-1.4,3.1-2.1,4.5c-2.2,4.8-4.2,9.7-6,14.6c-2.6,7.2-4.8,14.6-6.6,22.1c-0.9,3.8-1.8,7.7-2.4,11.6
			c-0.4,2.5-0.9,5.1-1.3,7.6c-0.3,2.2-0.5,4.4-0.7,6.7c-0.3,3.3-0.5,6.5-0.7,9.8c-0.3,5.1-0.2,10.3-0.1,15.4c0,3.4,0.3,6.8,0.4,10.2
			c0.1,3.2,0.3,6.3,0.5,9.5c0.1,2.4,0.4,4.7,0.4,7.1c0,0.7,0.4,1.4,0.1,2.2c-1-0.2-1.7-1-2.5-1.6c-4.4-3.3-8.7-6.5-13-9.9
			c-2.7-2.1-5.3-4.3-7.9-6.5c-3.6-3.1-7.2-6.1-10.8-9.2c-0.8-0.7-1.6-1.5-2.4-2.2c-1.5-1.3-3-2.8-4.4-4.2c-2.6-2.5-5.2-5-7.7-7.5
			c-3-3.1-6-6.3-8.9-9.6c-4.3-4.9-8.4-10-12.2-15.3c-4-5.7-7.6-11.6-10.6-18c-2.4-5.1-4.2-10.5-5.3-16c-0.8-4.2-0.8-8.4-0.7-12.7
			c0-0.7,0.3-1.3,0.4-2c0.5-0.1,1,0.1,1.4,0.2c7.2,2.3,14.6,3.5,22.1,4.4c4.8,0.5,9.6,0.9,14.5,0.8c7.6-0.1,15.2-0.7,22.6-2.4
			C122.4,129.6,123,129.4,123.5,129.8"/>
		<path class="st0" d="M123.5,129.8c-1.7,0.3-3.4,0.6-5.1,0.9c-2.7,0.5-5.5,0.9-8.3,1.1c-4,0.4-8.1,0.7-12.2,0.6
			c-4.3-0.1-8.6-0.3-12.9-0.8c-6.1-0.7-12.2-1.7-18.1-3.2c-1.9-0.5-3.8-0.9-5.6-1.8c0.7-5.1,2.1-10.1,4.2-14.8
			c1.8-4,4.1-7.6,6.8-10.9c2.8-3.4,6-6.3,9.5-9c5.3-4,11.4-6.2,17.8-7.7c3.6-0.9,7.2-1.3,10.9-1.4c7.9-0.3,15.4,1.3,22.7,4.2
			c2.9,1.2,5.7,2.7,8.6,4c3.9,1.8,7.9,3.1,12.2,3.8c3.4,0.5,6.7,0.4,10.1,0.4c0.9,0,1.8-0.2,2.9-0.1c-0.6,1-1.4,1.7-2.1,2.4
			c-4.6,5.3-9.4,10.3-14.4,15.1c-5.2,4.9-10.7,9.3-16.9,12.8C130.4,127.2,127,128.7,123.5,129.8"/>
		<path class="st0" d="M155,246.6c-0.1-0.1-0.2-0.2-0.4-0.3c-1.7-1.2-3.5-2.5-5.2-3.7c-0.4-0.3-0.5-0.6-0.4-1.2
			c1.6-5.3,3.1-10.5,4.6-15.8c2.6-9,5.9-17.7,9.4-26.4c1.6-3.9,3.4-7.8,5.2-11.7c1.7-3.5,3.4-7.1,5.3-10.5c3.4-6.2,7-12.3,11.2-18
			c2.6-3.5,5.2-6.9,8.1-10.1c0.6-0.7,0.8-0.6,1.1,0.2c2.9,7.5,6.1,14.8,9.5,22.1c2.8,5.9,5.8,11.7,9,17.3c1.1,2,2.2,4,3.4,5.9
			c0.2,0.3,0.2,0.6-0.1,0.9c-3.7,3.7-7.3,7.4-11.1,11c-2.5,2.4-5.1,4.8-7.8,7.1c-3.8,3.3-7.6,6.6-11.5,9.8
			c-4.7,3.8-9.4,7.6-14.2,11.2c-4.1,3.1-8.3,6.1-12.5,9.1c-1.2,0.9-2.4,1.7-3.6,2.5C155.2,246.3,155.1,246.4,155,246.6"/>
		<path class="st0" d="M233.8,173.4c-1.2-5.1-2.4-10-3.4-15c-0.9-4.4-1.7-8.8-2.5-13.1c-0.5-2.7-1.1-5.4-1.5-8.1
			c-0.4-2.8-0.9-5.6-1.2-8.4c-0.3-2.8-0.8-5.5-1.1-8.2c-0.2-2-0.3-4.1-0.5-6.2c-0.1-2.1-0.4-4.1-0.2-6.2c4,0.4,7.7,1.7,11.3,3.4
			c2.9,1.4,5.7,3.1,8.2,5.1c1.4,1.1,2.8,2.1,4.1,3.2c0.5,0.4,0.8,0.9,0.9,1.6c0.5,2.7,0.8,5.5,0.9,8.3c0.1,1.5,0.2,3.1,0.1,4.6
			c-0.1,4.2-0.8,8.3-1.9,12.4c-1.4,5.1-3.5,10-5.9,14.7c-2,3.9-4.4,7.7-6.8,11.4C234.3,172.9,234.1,173.1,233.8,173.4"/>
	</g>
</g>
<g>
	<g>
		<path class="st1" d="M216.4,365.7c-0.3-14.3,1.6-27.2,5.9-39.7c3.7-11,9.3-21,16.6-30c4.5-5.6,9.6-10.7,14.9-15.5
			c9-8.3,19.2-14.9,30.4-19.9c7.8-3.5,15.9-6.1,24.3-7.9c4.9-1,9.8-1.6,14.8-1.9c3.3-0.2,6.6-0.3,9.9-0.3c9.8,0.1,19.4,1.5,28.9,4
			c7.6,2,14.8,5,22,8.2c6,2.7,11.8,5.8,18,7.9c4.8,1.6,9.7,2.7,14.8,3.3c4.4,0.5,8.7,0.5,13.1,0.3c11-0.7,21.5-3.5,31.1-9.1
			c5.3-3.1,10.8-5.8,16.8-7.5c3.3-0.9,6.7-1.6,10.1-2c2-0.2,3.7-0.9,4.6-3.2c1.1-2.7,1.9-5.2,0.9-8c-0.7-2-1.4-3.3-4-3.8
			c-9.3-1.7-14.7-7.9-17.3-16.8c-1.4-4.9-1.6-10.1-1.3-15.2c0.4-6.1,2.9-11.3,6.6-16.1c3.5-4.4,7.7-7.5,13.1-9.3
			c7.5-2.5,14.2-1.1,20.4,3.6c5.3,4,8.7,9.4,10.2,15.8c1.6,6.9-0.4,13-4.4,18.6c-2.6,3.6-4.7,7.3-5.7,11.7c-1.6,7,0.5,13.1,4.2,18.9
			c0.8,1.3,1.9,2.4,2.7,3.6c1,1.6,2.6,2,4.2,2.2c9,1.3,17.8,3.8,26.3,7.1c10.3,3.9,19.9,9.1,28.6,15.9c4,3.1,7.9,6.3,11.3,10
			c5.6,6.1,10.5,12.7,14.5,20.1c4.7,8.7,7.9,18,10,27.6c1.2,5.5,1.9,11,2.3,16.6c0.5,5.8,0.3,11.5,0.3,17.3c0,6.8-1.2,13.5-2.7,20.1
			c-2.6,12.1-7.2,23.5-12.6,34.5c-3.2,6.6-7,13-10.9,19.3c-5.4,8.7-11.5,16.9-17.6,25.1c-3.3,4.4-7,8.6-10.6,12.8
			c-5.3,6.3-11,12.3-16.6,18.4c-6,6.4-12.2,12.5-18.4,18.7c-5.2,5.2-10.7,10.1-16.2,15c-7.3,6.4-14.7,12.8-22.2,18.9
			c-8.6,7.1-17.3,13.9-26.2,20.7c-9.9,7.5-20,14.8-30.2,21.9c-4.6,3.2-9.3,6.1-13.8,9.4c-1.1,0.8-1.8,0.7-2.9,0
			c-15.2-10.3-30.3-20.7-44.8-32c-6.9-5.4-13.8-10.8-20.6-16.4c-6.6-5.4-13.1-10.9-19.6-16.6c-4.2-3.7-8.3-7.5-12.5-11.2
			c-8.9-7.9-17.3-16.4-25.6-24.9c-6.8-6.9-13.1-14.1-19.4-21.4c-9.3-10.9-18-22.2-25.9-34.1c-6.7-10-12.5-20.6-17.5-31.5
			c-4.4-9.5-7.7-19.4-9.9-29.6c-0.9-4.2-1.5-8.6-1.9-12.9C216.3,372.3,216.6,368.4,216.4,365.7"/>
		<path class="st0" d="M356.1,360.8c7,0.3,14-0.3,20.9-1.1c9.1-1.1,18.1-2.8,27-5.2c7.5-2,14.9-4.4,22-7.6c3.3-1.5,6.6-2.9,10.3-4.5
			c-1.4,3.1-2.6,5.8-3.9,8.6c-4.3,9.1-7.9,18.4-11.3,27.8c-5,13.8-9.1,27.8-12.5,42c-1.8,7.3-3.4,14.6-4.5,22.1
			c-0.7,4.8-1.8,9.6-2.5,14.5c-0.6,4.2-0.9,8.4-1.3,12.7c-0.7,6.2-1,12.4-1.4,18.6c-0.6,9.7-0.4,19.5-0.2,29.2
			c0.1,6.4,0.5,12.9,0.8,19.3c0.3,6,0.6,12,0.9,18.1c0.2,4.5,0.7,8.9,0.8,13.4c0,1.3,0.7,2.6,0.2,4.1c-1.9-0.5-3.2-1.9-4.7-3
			c-8.3-6.2-16.6-12.4-24.8-18.8c-5.1-4-10-8.2-14.9-12.4c-6.9-5.8-13.7-11.7-20.5-17.5c-1.5-1.3-2.9-2.8-4.5-4.1
			c-2.9-2.5-5.7-5.3-8.4-8c-4.9-4.8-9.9-9.4-14.7-14.3c-5.8-5.9-11.4-12-16.9-18.2c-8.2-9.3-16-19-23.2-29.1
			c-7.7-10.8-14.5-22.1-20.1-34.1c-4.6-9.7-8-19.9-10-30.4c-1.5-8-1.5-16-1.3-24.1c0-1.3,0.5-2.5,0.7-3.8c1-0.2,1.8,0.1,2.7,0.4
			c13.7,4.3,27.7,6.7,42,8.3c9.1,1,18.3,1.7,27.5,1.6c14.4-0.2,28.8-1.3,42.9-4.6C354.1,360.4,355.1,360,356.1,360.8"/>
		<path class="st0" d="M356.1,360.8c-3.2,0.6-6.4,1.2-9.6,1.8c-5.2,1-10.4,1.6-15.7,2.1c-7.7,0.8-15.4,1.4-23.1,1.1
			c-8.2-0.2-16.4-0.6-24.5-1.5c-11.6-1.3-23.1-3.2-34.5-6.1c-3.6-0.9-7.3-1.7-10.6-3.4c1.3-9.8,3.9-19.1,7.9-28.1
			c3.4-7.5,7.7-14.4,12.8-20.7c5.2-6.5,11.4-12,18.1-17c10.1-7.5,21.7-11.8,33.7-14.7c6.8-1.6,13.7-2.5,20.8-2.7
			c15-0.6,29.2,2.4,43.1,8c5.6,2.2,10.9,5.1,16.3,7.6c7.5,3.4,15.1,6,23.2,7.1c6.4,0.9,12.7,0.8,19.1,0.7c1.7,0,3.4-0.5,5.6-0.3
			c-1.1,1.8-2.6,3.1-3.9,4.6c-8.7,10-17.8,19.6-27.4,28.7c-9.8,9.3-20.3,17.7-32.1,24.4C369.2,355.9,362.8,358.6,356.1,360.8"/>
		<path class="st0" d="M416,582.6c-0.3-0.2-0.5-0.4-0.7-0.5c-3.3-2.3-6.7-4.7-10-7c-0.8-0.5-1-1.2-0.7-2.2c3-10,5.9-20,8.8-30
			c4.9-17.1,11.3-33.7,17.9-50.1c3.1-7.5,6.5-14.9,9.9-22.2c3.2-6.7,6.5-13.4,10-19.9c6.4-11.8,13.3-23.3,21.2-34.2
			c4.9-6.6,9.9-13,15.4-19.1c1.2-1.3,1.5-1.2,2.1,0.5c5.4,14.2,11.5,28.2,18.1,42c5.4,11.2,11.1,22.2,17.2,33
			c2.1,3.8,4.2,7.6,6.5,11.3c0.4,0.7,0.4,1.1-0.2,1.8c-7,7-13.9,14.1-21.1,21c-4.8,4.6-9.7,9.1-14.7,13.5
			c-7.2,6.2-14.4,12.5-21.8,18.5c-8.9,7.2-17.8,14.4-26.9,21.3c-7.8,5.9-15.8,11.6-23.7,17.4c-2.2,1.6-4.5,3.1-6.8,4.7
			C416.5,582.2,416.3,582.4,416,582.6"/>
		<path class="st0" d="M565.7,443.5c-2.2-9.7-4.5-19.1-6.5-28.5c-1.8-8.3-3.2-16.7-4.8-25c-1-5.1-2.2-10.3-2.9-15.5
			c-0.7-5.4-1.8-10.7-2.3-16.1c-0.5-5.2-1.5-10.4-2-15.7c-0.4-3.9-0.7-7.8-0.9-11.7c-0.2-3.9-0.8-7.8-0.3-11.7
			c7.6,0.7,14.7,3.2,21.4,6.4c5.5,2.7,10.8,5.8,15.7,9.6c2.6,2,5.3,4.1,7.8,6.2c0.9,0.8,1.5,1.7,1.7,3c0.9,5.2,1.5,10.4,1.8,15.7
			c0.2,2.9,0.4,5.9,0.3,8.8c-0.2,8-1.4,15.9-3.6,23.6c-2.7,9.7-6.6,19-11.2,27.9c-3.9,7.5-8.4,14.6-12.9,21.6
			C566.7,442.7,566.3,442.9,565.7,443.5"/>
	</g>
</g>
<g>
	<g>
		<path class="st1" d="M975.4,777.7c-0.3-14.3,1.6-27.2,5.9-39.7c3.7-11,9.3-21,16.6-30c4.5-5.6,9.6-10.7,14.9-15.5
			c9-8.3,19.2-14.9,30.4-19.9c7.8-3.5,15.9-6.1,24.3-7.9c4.9-1,9.8-1.6,14.8-1.9c3.3-0.2,6.6-0.3,9.9-0.3c9.8,0.1,19.4,1.5,28.9,4
			c7.6,2,14.8,5,22,8.2c6,2.7,11.8,5.8,18,7.9c4.8,1.6,9.7,2.7,14.8,3.3c4.4,0.5,8.7,0.5,13.1,0.3c11-0.7,21.5-3.5,31.1-9.1
			c5.3-3.1,10.8-5.8,16.8-7.5c3.3-0.9,6.7-1.6,10.1-2c2-0.2,3.7-0.9,4.6-3.2c1.1-2.7,1.9-5.2,0.9-8c-0.7-2-1.4-3.3-4-3.8
			c-9.3-1.7-14.7-7.9-17.3-16.8c-1.4-4.9-1.6-10.1-1.3-15.2c0.4-6.1,2.9-11.3,6.6-16.1c3.5-4.4,7.7-7.5,13.1-9.3
			c7.5-2.5,14.2-1.1,20.4,3.6c5.3,4,8.7,9.4,10.2,15.8c1.6,6.9-0.4,13-4.4,18.6c-2.6,3.6-4.7,7.3-5.7,11.7c-1.6,7,0.5,13.1,4.2,18.9
			c0.8,1.3,1.9,2.4,2.7,3.6c1,1.6,2.6,2,4.2,2.2c9,1.3,17.8,3.8,26.3,7.1c10.3,3.9,19.9,9.1,28.6,15.9c4,3.1,7.9,6.3,11.3,10
			c5.6,6.1,10.5,12.7,14.5,20.1c4.7,8.7,7.9,18,10,27.6c1.2,5.5,1.9,11,2.3,16.6c0.5,5.8,0.3,11.5,0.3,17.3c0,6.8-1.2,13.5-2.7,20.1
			c-2.6,12.1-7.2,23.5-12.6,34.5c-3.2,6.6-7,13-10.9,19.3c-5.4,8.7-11.5,16.9-17.6,25.1c-3.3,4.4-7,8.6-10.6,12.8
			c-5.3,6.3-11,12.3-16.6,18.4c-6,6.4-12.2,12.5-18.4,18.7c-5.2,5.2-10.7,10.1-16.2,15c-7.3,6.4-14.7,12.8-22.2,18.9
			c-8.6,7.1-17.3,13.9-26.2,20.7c-9.9,7.5-20,14.8-30.2,21.9c-4.6,3.2-9.3,6.1-13.8,9.4c-1.1,0.8-1.8,0.7-2.9,0
			c-15.2-10.3-30.3-20.7-44.8-32c-6.9-5.4-13.8-10.8-20.6-16.4c-6.6-5.4-13.1-10.9-19.6-16.6c-4.2-3.7-8.3-7.5-12.5-11.2
			c-8.9-7.9-17.3-16.4-25.6-24.9c-6.8-6.9-13.1-14.1-19.4-21.4c-9.3-10.9-18-22.2-25.9-34.1c-6.7-10-12.5-20.6-17.5-31.5
			c-4.4-9.5-7.7-19.4-9.9-29.6c-0.9-4.2-1.5-8.6-1.9-12.9C975.3,784.3,975.6,780.4,975.4,777.7"/>
		<path class="st0" d="M1115.1,772.8c7,0.3,14-0.3,20.9-1.1c9.1-1.1,18.1-2.8,27-5.2c7.5-2,14.9-4.4,22-7.6
			c3.3-1.5,6.6-2.9,10.3-4.5c-1.4,3.1-2.6,5.8-3.9,8.6c-4.3,9.1-7.9,18.4-11.3,27.8c-5,13.8-9.1,27.8-12.5,42
			c-1.8,7.3-3.4,14.6-4.5,22.1c-0.7,4.8-1.8,9.6-2.5,14.5c-0.6,4.2-0.9,8.4-1.3,12.7c-0.7,6.2-1,12.4-1.4,18.6
			c-0.6,9.7-0.4,19.5-0.2,29.2c0.1,6.4,0.5,12.9,0.8,19.3c0.3,6,0.6,12,0.9,18.1c0.2,4.5,0.7,8.9,0.8,13.4c0,1.3,0.7,2.6,0.2,4.1
			c-1.9-0.5-3.2-1.9-4.7-3c-8.3-6.2-16.6-12.4-24.8-18.8c-5.1-4-10-8.2-14.9-12.4c-6.9-5.8-13.7-11.7-20.5-17.5
			c-1.5-1.3-2.9-2.8-4.5-4.1c-2.9-2.5-5.7-5.3-8.4-8c-4.9-4.8-9.9-9.4-14.7-14.3c-5.8-5.9-11.4-12-16.9-18.2
			c-8.2-9.3-16-19-23.2-29.1c-7.7-10.8-14.5-22.1-20.1-34.1c-4.6-9.7-8-19.9-10-30.4c-1.5-8-1.5-16-1.3-24.1c0-1.3,0.5-2.5,0.7-3.8
			c1-0.2,1.8,0.1,2.7,0.4c13.7,4.3,27.7,6.7,42,8.3c9.1,1,18.3,1.7,27.5,1.6c14.4-0.2,28.8-1.3,42.9-4.6
			C1113.1,772.4,1114.1,772,1115.1,772.8"/>
		<path class="st0" d="M1115.1,772.8c-3.2,0.6-6.4,1.2-9.6,1.8c-5.2,1-10.4,1.6-15.7,2.1c-7.7,0.8-15.4,1.4-23.1,1.1
			c-8.2-0.2-16.4-0.6-24.5-1.5c-11.6-1.3-23.1-3.2-34.5-6.1c-3.6-0.9-7.3-1.7-10.6-3.4c1.3-9.8,3.9-19.1,7.9-28.1
			c3.4-7.5,7.7-14.4,12.8-20.7c5.2-6.5,11.4-12,18.1-17c10.1-7.5,21.7-11.8,33.7-14.7c6.8-1.6,13.7-2.5,20.8-2.7
			c15-0.6,29.2,2.4,43.1,8c5.6,2.2,10.9,5.1,16.3,7.6c7.5,3.4,15.1,6,23.2,7.1c6.4,0.9,12.7,0.8,19.1,0.7c1.7,0,3.4-0.5,5.6-0.3
			c-1.1,1.8-2.6,3.1-3.9,4.6c-8.7,10-17.8,19.6-27.4,28.7c-9.8,9.3-20.3,17.7-32.1,24.4C1128.2,767.9,1121.8,770.6,1115.1,772.8"/>
		<path class="st0" d="M1175,994.6c-0.3-0.2-0.5-0.4-0.7-0.5c-3.3-2.3-6.7-4.7-10-7c-0.8-0.5-1-1.2-0.7-2.2c3-10,5.9-20,8.8-30
			c4.9-17.1,11.3-33.7,17.9-50.1c3.1-7.5,6.5-14.9,9.9-22.2c3.2-6.7,6.5-13.4,10-19.9c6.4-11.8,13.3-23.3,21.2-34.2
			c4.9-6.6,9.9-13,15.4-19.1c1.2-1.3,1.5-1.2,2.1,0.5c5.4,14.2,11.5,28.2,18.1,42c5.4,11.2,11.1,22.2,17.2,33
			c2.1,3.8,4.2,7.6,6.5,11.3c0.4,0.7,0.4,1.1-0.2,1.8c-7,7-13.9,14.1-21.1,21c-4.8,4.6-9.7,9.1-14.7,13.5
			c-7.2,6.2-14.4,12.5-21.8,18.5c-8.9,7.2-17.8,14.4-26.9,21.3c-7.8,5.9-15.8,11.6-23.7,17.4c-2.2,1.6-4.5,3.1-6.8,4.7
			C1175.5,994.2,1175.3,994.4,1175,994.6"/>
		<path class="st0" d="M1324.7,855.5c-2.2-9.7-4.5-19.1-6.5-28.5c-1.8-8.3-3.2-16.7-4.8-25c-1-5.1-2.2-10.3-2.9-15.5
			c-0.7-5.4-1.8-10.7-2.3-16.1c-0.5-5.2-1.5-10.4-2-15.7c-0.4-3.9-0.7-7.8-0.9-11.7c-0.2-3.9-0.8-7.8-0.3-11.7
			c7.6,0.7,14.7,3.2,21.4,6.4c5.5,2.7,10.8,5.8,15.7,9.6c2.6,2,5.3,4.1,7.8,6.2c0.9,0.8,1.5,1.7,1.7,3c0.9,5.2,1.5,10.4,1.8,15.7
			c0.2,2.9,0.4,5.9,0.3,8.8c-0.2,8-1.4,15.9-3.6,23.6c-2.7,9.7-6.6,19-11.2,27.9c-3.9,7.5-8.4,14.6-12.9,21.6
			C1325.7,854.7,1325.3,854.9,1324.7,855.5"/>
	</g>
</g>
<g>
	<g>
		<path class="st1" d="M619.5,263.3c-0.1-4.6,0.5-8.8,1.9-12.8c1.2-3.6,3-6.8,5.4-9.7c1.5-1.8,3.1-3.5,4.8-5
			c2.9-2.7,6.2-4.8,9.8-6.4c2.5-1.1,5.1-2,7.8-2.5c1.6-0.3,3.2-0.5,4.8-0.6c1.1-0.1,2.1-0.1,3.2-0.1c3.2,0,6.3,0.5,9.3,1.3
			c2.5,0.7,4.8,1.6,7.1,2.7c1.9,0.9,3.8,1.9,5.8,2.5c1.6,0.5,3.1,0.9,4.8,1.1c1.4,0.1,2.8,0.2,4.2,0.1c3.6-0.2,6.9-1.1,10-2.9
			c1.7-1,3.5-1.9,5.4-2.4c1.1-0.3,2.1-0.5,3.3-0.7c0.7-0.1,1.2-0.3,1.5-1c0.4-0.9,0.6-1.7,0.3-2.6c-0.2-0.6-0.5-1.1-1.3-1.2
			c-3-0.6-4.8-2.6-5.6-5.4c-0.5-1.6-0.5-3.3-0.4-4.9c0.1-2,0.9-3.7,2.1-5.2c1.1-1.4,2.5-2.4,4.2-3c2.4-0.8,4.6-0.4,6.6,1.2
			c1.7,1.3,2.8,3,3.3,5.1c0.5,2.2-0.1,4.2-1.4,6c-0.8,1.2-1.5,2.3-1.8,3.8c-0.5,2.3,0.2,4.2,1.3,6.1c0.3,0.4,0.6,0.8,0.9,1.2
			c0.3,0.5,0.8,0.6,1.4,0.7c2.9,0.4,5.7,1.2,8.5,2.3c3.3,1.3,6.4,2.9,9.2,5.1c1.3,1,2.5,2,3.6,3.2c1.8,2,3.4,4.1,4.7,6.5
			c1.5,2.8,2.6,5.8,3.2,8.9c0.4,1.8,0.6,3.6,0.8,5.4c0.2,1.9,0.1,3.7,0.1,5.6c0,2.2-0.4,4.4-0.9,6.5c-0.8,3.9-2.3,7.6-4.1,11.1
			c-1,2.1-2.3,4.2-3.5,6.2c-1.8,2.8-3.7,5.5-5.7,8.1c-1.1,1.4-2.3,2.8-3.4,4.1c-1.7,2-3.5,4-5.4,5.9c-1.9,2.1-3.9,4-6,6
			c-1.7,1.7-3.4,3.3-5.2,4.8c-2.4,2.1-4.7,4.1-7.2,6.1c-2.8,2.3-5.6,4.5-8.5,6.7c-3.2,2.4-6.5,4.8-9.8,7.1c-1.5,1-3,2-4.5,3
			c-0.3,0.3-0.6,0.2-0.9,0c-4.9-3.3-9.8-6.7-14.5-10.3c-2.2-1.7-4.5-3.5-6.7-5.3c-2.1-1.7-4.2-3.5-6.3-5.4c-1.4-1.2-2.7-2.4-4-3.6
			c-2.9-2.6-5.6-5.3-8.3-8c-2.2-2.2-4.2-4.6-6.3-6.9c-3-3.5-5.8-7.2-8.4-11c-2.2-3.2-4-6.6-5.7-10.2c-1.4-3.1-2.5-6.3-3.2-9.6
			c-0.3-1.4-0.5-2.8-0.6-4.2C619.5,265.4,619.6,264.2,619.5,263.3"/>
		<path class="st0" d="M664.6,261.7c2.3,0.1,4.5-0.1,6.8-0.4c3-0.3,5.9-0.9,8.7-1.7c2.4-0.6,4.8-1.4,7.1-2.5
			c1.1-0.5,2.1-0.9,3.3-1.5c-0.5,1-0.8,1.9-1.3,2.8c-1.4,2.9-2.6,5.9-3.7,9c-1.6,4.4-2.9,9-4,13.6c-0.6,2.4-1.1,4.7-1.5,7.1
			c-0.2,1.6-0.6,3.1-0.8,4.7c-0.2,1.4-0.3,2.7-0.4,4.1c-0.2,2-0.3,4-0.4,6c-0.2,3.1-0.1,6.3-0.1,9.4c0,2.1,0.2,4.2,0.3,6.2
			c0.1,1.9,0.2,3.9,0.3,5.8c0.1,1.4,0.2,2.9,0.3,4.3c0,0.4,0.2,0.8,0.1,1.3c-0.6-0.1-1-0.6-1.5-1c-2.7-2-5.4-4-8-6.1
			c-1.6-1.3-3.2-2.6-4.8-4c-2.2-1.9-4.4-3.8-6.6-5.7c-0.5-0.4-1-0.9-1.5-1.3c-0.9-0.8-1.8-1.7-2.7-2.6c-1.6-1.5-3.2-3-4.7-4.6
			c-1.9-1.9-3.7-3.9-5.5-5.9c-2.7-3-5.2-6.1-7.5-9.4c-2.5-3.5-4.7-7.1-6.5-11c-1.5-3.1-2.6-6.4-3.2-9.8c-0.5-2.6-0.5-5.2-0.4-7.8
			c0-0.4,0.2-0.8,0.2-1.2c0.3-0.1,0.6,0,0.9,0.1c4.4,1.4,9,2.2,13.6,2.7c3,0.3,5.9,0.5,8.9,0.5c4.7,0,9.3-0.4,13.9-1.5
			C664,261.6,664.3,261.5,664.6,261.7"/>
		<path class="st0" d="M664.6,261.7c-1,0.2-2.1,0.4-3.1,0.6c-1.7,0.3-3.4,0.5-5.1,0.7c-2.5,0.2-5,0.4-7.5,0.4
			c-2.6-0.1-5.3-0.2-7.9-0.5c-3.8-0.4-7.5-1-11.1-2c-1.2-0.3-2.3-0.5-3.4-1.1c0.4-3.1,1.3-6.2,2.6-9.1c1.1-2.4,2.5-4.6,4.1-6.7
			c1.7-2.1,3.7-3.9,5.9-5.5c3.3-2.4,7-3.8,10.9-4.8c2.2-0.5,4.4-0.8,6.7-0.9c4.8-0.2,9.4,0.8,13.9,2.6c1.8,0.7,3.5,1.6,5.3,2.4
			c2.4,1.1,4.9,1.9,7.5,2.3c2.1,0.3,4.1,0.2,6.2,0.2c0.6,0,1.1-0.2,1.8-0.1c-0.4,0.6-0.9,1-1.3,1.5c-2.8,3.2-5.7,6.3-8.8,9.3
			c-3.2,3-6.6,5.7-10.4,7.9C668.9,260.1,666.8,261,664.6,261.7"/>
		<path class="st0" d="M684,333.4c-0.1-0.1-0.1-0.1-0.2-0.2c-1.1-0.8-2.1-1.5-3.2-2.3c-0.2-0.2-0.3-0.4-0.2-0.7
			c1-3.2,1.9-6.5,2.8-9.7c1.6-5.5,3.6-10.9,5.8-16.2c1-2.4,2.1-4.8,3.2-7.2c1-2.2,2.1-4.3,3.2-6.4c2.1-3.8,4.3-7.5,6.9-11
			c1.6-2.1,3.2-4.2,5-6.2c0.4-0.4,0.5-0.4,0.7,0.1c1.8,4.6,3.7,9.1,5.8,13.6c1.7,3.6,3.6,7.2,5.6,10.6c0.7,1.2,1.3,2.5,2.1,3.6
			c0.1,0.2,0.1,0.4-0.1,0.6c-2.3,2.3-4.5,4.5-6.8,6.8c-1.5,1.5-3.1,2.9-4.8,4.3c-2.3,2-4.6,4-7,6c-2.9,2.3-5.7,4.6-8.7,6.9
			c-2.5,1.9-5.1,3.7-7.7,5.6c-0.7,0.5-1.5,1-2.2,1.5C684.1,333.2,684.1,333.3,684,333.4"/>
		<path class="st0" d="M732.3,288.4c-0.7-3.1-1.4-6.2-2.1-9.2c-0.6-2.7-1-5.4-1.6-8.1c-0.3-1.7-0.7-3.3-0.9-5
			c-0.2-1.7-0.6-3.4-0.7-5.2c-0.2-1.7-0.5-3.4-0.7-5.1c-0.1-1.3-0.2-2.5-0.3-3.8c-0.1-1.3-0.3-2.5-0.1-3.8c2.5,0.2,4.7,1,6.9,2.1
			c1.8,0.9,3.5,1.9,5.1,3.1c0.9,0.7,1.7,1.3,2.5,2c0.3,0.2,0.5,0.5,0.5,1c0.3,1.7,0.5,3.4,0.6,5.1c0.1,1,0.1,1.9,0.1,2.9
			c-0.1,2.6-0.5,5.1-1.2,7.6c-0.9,3.1-2.1,6.1-3.6,9c-1.2,2.4-2.7,4.7-4.2,7C732.7,288.2,732.5,288.3,732.3,288.4"/>
	</g>
</g>
<g>
	<g>
		<path class="st1" d="M1454.5,319.3c-0.1-4.6,0.5-8.8,1.9-12.8c1.2-3.6,3-6.8,5.4-9.7c1.5-1.8,3.1-3.5,4.8-5
			c2.9-2.7,6.2-4.8,9.8-6.4c2.5-1.1,5.1-2,7.8-2.5c1.6-0.3,3.2-0.5,4.8-0.6c1.1-0.1,2.1-0.1,3.2-0.1c3.2,0,6.3,0.5,9.3,1.3
			c2.5,0.7,4.8,1.6,7.1,2.7c1.9,0.9,3.8,1.9,5.8,2.5c1.6,0.5,3.1,0.9,4.8,1.1c1.4,0.1,2.8,0.2,4.2,0.1c3.6-0.2,6.9-1.1,10-2.9
			c1.7-1,3.5-1.9,5.4-2.4c1.1-0.3,2.1-0.5,3.3-0.7c0.7-0.1,1.2-0.3,1.5-1c0.4-0.9,0.6-1.7,0.3-2.6c-0.2-0.6-0.5-1.1-1.3-1.2
			c-3-0.6-4.8-2.6-5.6-5.4c-0.5-1.6-0.5-3.3-0.4-4.9c0.1-2,0.9-3.7,2.1-5.2c1.1-1.4,2.5-2.4,4.2-3c2.4-0.8,4.6-0.4,6.6,1.2
			c1.7,1.3,2.8,3,3.3,5.1c0.5,2.2-0.1,4.2-1.4,6c-0.8,1.2-1.5,2.3-1.8,3.8c-0.5,2.3,0.2,4.2,1.3,6.1c0.3,0.4,0.6,0.8,0.9,1.2
			c0.3,0.5,0.8,0.6,1.4,0.7c2.9,0.4,5.7,1.2,8.5,2.3c3.3,1.3,6.4,2.9,9.2,5.1c1.3,1,2.5,2,3.6,3.2c1.8,2,3.4,4.1,4.7,6.5
			c1.5,2.8,2.6,5.8,3.2,8.9c0.4,1.8,0.6,3.6,0.8,5.4c0.2,1.9,0.1,3.7,0.1,5.6c0,2.2-0.4,4.4-0.9,6.5c-0.8,3.9-2.3,7.6-4.1,11.1
			c-1,2.1-2.3,4.2-3.5,6.2c-1.8,2.8-3.7,5.5-5.7,8.1c-1.1,1.4-2.3,2.8-3.4,4.1c-1.7,2-3.5,4-5.4,5.9c-1.9,2.1-3.9,4-6,6
			c-1.7,1.7-3.4,3.3-5.2,4.8c-2.4,2.1-4.7,4.1-7.2,6.1c-2.8,2.3-5.6,4.5-8.5,6.7c-3.2,2.4-6.5,4.8-9.8,7.1c-1.5,1-3,2-4.5,3
			c-0.3,0.3-0.6,0.2-0.9,0c-4.9-3.3-9.8-6.7-14.5-10.3c-2.2-1.7-4.5-3.5-6.7-5.3c-2.1-1.7-4.2-3.5-6.3-5.4c-1.4-1.2-2.7-2.4-4-3.6
			c-2.9-2.6-5.6-5.3-8.3-8c-2.2-2.2-4.2-4.6-6.3-6.9c-3-3.5-5.8-7.2-8.4-11c-2.2-3.2-4-6.6-5.7-10.2c-1.4-3.1-2.5-6.3-3.2-9.6
			c-0.3-1.4-0.5-2.8-0.6-4.2C1454.5,321.4,1454.6,320.2,1454.5,319.3"/>
		<path class="st0" d="M1499.6,317.7c2.3,0.1,4.5-0.1,6.8-0.4c3-0.3,5.9-0.9,8.7-1.7c2.4-0.6,4.8-1.4,7.1-2.5
			c1.1-0.5,2.1-0.9,3.3-1.5c-0.5,1-0.8,1.9-1.3,2.8c-1.4,2.9-2.6,5.9-3.7,9c-1.6,4.4-2.9,9-4,13.6c-0.6,2.4-1.1,4.7-1.5,7.1
			c-0.2,1.6-0.6,3.1-0.8,4.7c-0.2,1.4-0.3,2.7-0.4,4.1c-0.2,2-0.3,4-0.4,6c-0.2,3.1-0.1,6.3-0.1,9.4c0,2.1,0.2,4.2,0.3,6.2
			c0.1,1.9,0.2,3.9,0.3,5.8c0.1,1.4,0.2,2.9,0.3,4.3c0,0.4,0.2,0.8,0.1,1.3c-0.6-0.1-1-0.6-1.5-1c-2.7-2-5.4-4-8-6.1
			c-1.6-1.3-3.2-2.6-4.8-4c-2.2-1.9-4.4-3.8-6.6-5.7c-0.5-0.4-1-0.9-1.5-1.3c-0.9-0.8-1.8-1.7-2.7-2.6c-1.6-1.5-3.2-3-4.7-4.6
			c-1.9-1.9-3.7-3.9-5.5-5.9c-2.7-3-5.2-6.1-7.5-9.4c-2.5-3.5-4.7-7.1-6.5-11c-1.5-3.1-2.6-6.4-3.2-9.8c-0.5-2.6-0.5-5.2-0.4-7.8
			c0-0.4,0.2-0.8,0.2-1.2c0.3-0.1,0.6,0,0.9,0.1c4.4,1.4,9,2.2,13.6,2.7c3,0.3,5.9,0.5,8.9,0.5c4.7,0,9.3-0.4,13.9-1.5
			C1499,317.6,1499.3,317.5,1499.6,317.7"/>
		<path class="st0" d="M1499.6,317.7c-1,0.2-2.1,0.4-3.1,0.6c-1.7,0.3-3.4,0.5-5.1,0.7c-2.5,0.2-5,0.4-7.5,0.4
			c-2.6-0.1-5.3-0.2-7.9-0.5c-3.8-0.4-7.5-1-11.1-2c-1.2-0.3-2.3-0.5-3.4-1.1c0.4-3.1,1.3-6.2,2.6-9.1c1.1-2.4,2.5-4.6,4.1-6.7
			c1.7-2.1,3.7-3.9,5.9-5.5c3.3-2.4,7-3.8,10.9-4.8c2.2-0.5,4.4-0.8,6.7-0.9c4.8-0.2,9.4,0.8,13.9,2.6c1.8,0.7,3.5,1.6,5.3,2.4
			c2.4,1.1,4.9,1.9,7.5,2.3c2.1,0.3,4.1,0.2,6.2,0.2c0.6,0,1.1-0.2,1.8-0.1c-0.4,0.6-0.9,1-1.3,1.5c-2.8,3.2-5.7,6.3-8.8,9.3
			c-3.2,3-6.6,5.7-10.4,7.9C1503.9,316.1,1501.8,317,1499.6,317.7"/>
		<path class="st0" d="M1519,389.4c-0.1-0.1-0.1-0.1-0.2-0.2c-1.1-0.8-2.1-1.5-3.2-2.3c-0.2-0.2-0.3-0.4-0.2-0.7
			c1-3.2,1.9-6.5,2.8-9.7c1.6-5.5,3.6-10.9,5.8-16.2c1-2.4,2.1-4.8,3.2-7.2c1-2.2,2.1-4.3,3.2-6.4c2.1-3.8,4.3-7.5,6.9-11
			c1.6-2.1,3.2-4.2,5-6.2c0.4-0.4,0.5-0.4,0.7,0.1c1.8,4.6,3.7,9.1,5.8,13.6c1.7,3.6,3.6,7.2,5.6,10.6c0.7,1.2,1.3,2.5,2.1,3.6
			c0.1,0.2,0.1,0.4-0.1,0.6c-2.3,2.3-4.5,4.5-6.8,6.8c-1.5,1.5-3.1,2.9-4.8,4.3c-2.3,2-4.6,4-7,6c-2.9,2.3-5.7,4.6-8.7,6.9
			c-2.5,1.9-5.1,3.7-7.7,5.6c-0.7,0.5-1.5,1-2.2,1.5C1519.1,389.2,1519.1,389.3,1519,389.4"/>
		<path class="st0" d="M1567.3,344.4c-0.7-3.1-1.4-6.2-2.1-9.2c-0.6-2.7-1-5.4-1.6-8.1c-0.3-1.7-0.7-3.3-0.9-5
			c-0.2-1.7-0.6-3.4-0.7-5.2c-0.2-1.7-0.5-3.4-0.7-5.1c-0.1-1.3-0.2-2.5-0.3-3.8c-0.1-1.3-0.3-2.5-0.1-3.8c2.5,0.2,4.7,1,6.9,2.1
			c1.8,0.9,3.5,1.9,5.1,3.1c0.9,0.7,1.7,1.3,2.5,2c0.3,0.2,0.5,0.5,0.5,1c0.3,1.7,0.5,3.4,0.6,5.1c0.1,1,0.1,1.9,0.1,2.9
			c-0.1,2.6-0.5,5.1-1.2,7.6c-0.9,3.1-2.1,6.1-3.6,9c-1.2,2.4-2.7,4.7-4.2,7C1567.7,344.2,1567.5,344.3,1567.3,344.4"/>
	</g>
</g>
<g>
	<g>
		<path class="st1" d="M1004.3,264.6c-0.4-15.3,1.8-29.1,6.3-42.5c4-11.8,10-22.4,17.8-32.1c4.8-6,10.3-11.4,15.9-16.6
			c9.6-8.9,20.6-15.9,32.5-21.3c8.4-3.8,17.1-6.6,26-8.4c5.2-1.1,10.5-1.7,15.9-2c3.5-0.2,7.1-0.4,10.6-0.3
			c10.5,0.1,20.8,1.6,30.9,4.3c8.1,2.2,15.9,5.4,23.5,8.8c6.4,2.9,12.6,6.2,19.2,8.4c5.1,1.7,10.4,2.9,15.9,3.5
			c4.7,0.5,9.4,0.6,14,0.3c11.8-0.7,23-3.8,33.3-9.7c5.7-3.3,11.6-6.2,18-8c3.5-1,7.1-1.8,10.8-2.2c2.2-0.2,4-1,4.9-3.4
			c1.2-2.8,2.1-5.5,0.9-8.6c-0.8-2.1-1.5-3.6-4.3-4.1c-10-1.9-15.8-8.5-18.5-18c-1.5-5.3-1.7-10.8-1.4-16.2
			c0.4-6.5,3.1-12.1,7.1-17.2c3.7-4.7,8.3-8.1,14-10c8-2.6,15.2-1.2,21.9,3.8c5.7,4.3,9.3,10,10.9,16.9c1.7,7.4-0.4,14-4.7,20
			c-2.8,3.8-5,7.8-6.1,12.5c-1.7,7.5,0.5,14,4.5,20.2c0.9,1.4,2,2.5,2.9,3.9c1.1,1.7,2.8,2.1,4.5,2.4c9.7,1.4,19,4.1,28.1,7.5
			c11,4.2,21.3,9.8,30.6,17c4.3,3.3,8.4,6.7,12.1,10.7c6,6.5,11.3,13.6,15.5,21.5c5.1,9.3,8.5,19.2,10.8,29.5
			c1.3,5.8,2,11.8,2.5,17.8c0.5,6.2,0.3,12.4,0.3,18.5c0,7.3-1.3,14.4-2.9,21.5c-2.8,12.9-7.7,25.1-13.5,36.9
			c-3.5,7.1-7.5,13.9-11.7,20.6c-5.8,9.3-12.3,18.1-18.9,26.9c-3.6,4.7-7.5,9.2-11.4,13.7c-5.7,6.8-11.7,13.2-17.7,19.7
			c-6.4,6.9-13.1,13.4-19.7,20c-5.6,5.5-11.4,10.8-17.4,16c-7.8,6.9-15.7,13.7-23.8,20.3c-9.2,7.5-18.6,14.9-28,22.1
			c-10.6,8.1-21.4,15.8-32.4,23.4c-4.9,3.4-9.9,6.6-14.8,10c-1.1,0.8-2,0.7-3.1,0c-16.2-11-32.4-22.2-47.9-34.3
			c-7.4-5.8-14.8-11.6-22.1-17.5c-7.1-5.8-14.1-11.7-20.9-17.8c-4.5-4-8.9-8-13.4-12c-9.5-8.5-18.5-17.6-27.4-26.7
			c-7.2-7.4-14.1-15.1-20.8-22.9c-10-11.6-19.2-23.8-27.7-36.5c-7.2-10.7-13.4-22-18.8-33.8c-4.7-10.2-8.2-20.8-10.6-31.7
			c-1-4.5-1.6-9.2-2.1-13.8C1004.2,271.7,1004.6,267.6,1004.3,264.6"/>
		<path class="st0" d="M1153.9,259.4c7.5,0.3,15-0.3,22.4-1.2c9.8-1.1,19.4-3,28.9-5.5c8-2.1,15.9-4.7,23.5-8.1
			c3.5-1.6,7.1-3.1,11.1-4.8c-1.5,3.3-2.8,6.2-4.2,9.2c-4.6,9.7-8.5,19.7-12.1,29.8c-5.3,14.7-9.7,29.7-13.4,45
			c-1.9,7.8-3.6,15.7-4.8,23.6c-0.8,5.2-1.9,10.3-2.6,15.5c-0.6,4.5-0.9,9-1.4,13.5c-0.7,6.6-1,13.3-1.5,19.9
			c-0.7,10.4-0.4,20.9-0.3,31.3c0.1,6.9,0.6,13.8,0.9,20.7c0.3,6.4,0.7,12.9,0.9,19.3c0.2,4.8,0.8,9.5,0.9,14.3
			c0,1.4,0.8,2.8,0.3,4.4c-2-0.5-3.5-2-5-3.2c-8.9-6.6-17.8-13.3-26.5-20.2c-5.5-4.3-10.7-8.8-16-13.2c-7.3-6.2-14.6-12.5-21.9-18.8
			c-1.6-1.4-3.2-3-4.8-4.4c-3.1-2.7-6.1-5.6-9-8.5c-5.3-5.1-10.6-10.1-15.7-15.3c-6.2-6.4-12.2-12.8-18.1-19.5
			c-8.8-10-17.1-20.3-24.9-31.1c-8.2-11.6-15.5-23.7-21.6-36.5c-4.9-10.4-8.5-21.3-10.7-32.6c-1.6-8.5-1.6-17.2-1.4-25.8
			c0-1.3,0.5-2.7,0.8-4c1-0.2,1.9,0.2,2.9,0.5c14.7,4.6,29.7,7.2,44.9,8.9c9.8,1.1,19.6,1.8,29.4,1.7c15.5-0.2,30.8-1.4,46-4.9
			C1151.7,259,1152.8,258.5,1153.9,259.4"/>
		<path class="st0" d="M1153.9,259.4c-3.4,0.6-6.9,1.3-10.3,1.9c-5.6,1.1-11.2,1.7-16.8,2.3c-8.2,0.8-16.5,1.5-24.8,1.2
			c-8.8-0.3-17.5-0.7-26.3-1.6c-12.5-1.4-24.8-3.4-36.9-6.5c-3.8-1-7.8-1.8-11.4-3.6c1.4-10.4,4.2-20.5,8.5-30.1
			c3.6-8,8.3-15.4,13.7-22.2c5.6-6.9,12.2-12.9,19.4-18.2c10.8-8.1,23.2-12.6,36.1-15.8c7.2-1.7,14.7-2.6,22.2-2.9
			c16.1-0.7,31.3,2.6,46.1,8.5c6,2.4,11.6,5.5,17.5,8.1c8,3.6,16.1,6.4,24.9,7.6c6.8,1,13.6,0.8,20.5,0.8c1.8,0,3.7-0.5,5.9-0.3
			c-1.2,2-2.8,3.4-4.2,4.9c-9.3,10.7-19.1,21-29.3,30.7c-10.5,9.9-21.7,18.9-34.3,26.1C1167.9,254.1,1161,257,1153.9,259.4"/>
		<path class="st0" d="M1218,496.9c-0.3-0.2-0.5-0.4-0.7-0.6c-3.6-2.5-7.1-5-10.7-7.5c-0.8-0.6-1.1-1.3-0.8-2.4
			c3.2-10.7,6.4-21.4,9.4-32.1c5.3-18.3,12-36.1,19.2-53.7c3.3-8,7-15.9,10.6-23.8c3.4-7.2,6.9-14.3,10.7-21.3
			c6.9-12.6,14.2-25,22.7-36.6c5.2-7.1,10.6-14,16.5-20.5c1.3-1.4,1.6-1.3,2.3,0.5c5.8,15.3,12.3,30.2,19.4,44.9
			c5.7,12,11.9,23.7,18.4,35.3c2.3,4,4.5,8.1,7,12.1c0.4,0.7,0.5,1.2-0.2,1.9c-7.5,7.5-14.9,15.1-22.5,22.4
			c-5.1,5-10.4,9.8-15.8,14.4c-7.7,6.7-15.4,13.4-23.3,19.8c-9.5,7.8-19.1,15.4-28.8,22.8c-8.4,6.3-16.9,12.4-25.4,18.6
			c-2.4,1.7-4.8,3.4-7.3,5.1C1218.5,496.4,1218.3,496.6,1218,496.9"/>
		<path class="st0" d="M1378.2,347.9c-2.4-10.4-4.8-20.4-6.9-30.5c-1.9-8.9-3.4-17.8-5.1-26.8c-1-5.5-2.3-11-3.1-16.6
			c-0.8-5.7-1.9-11.4-2.4-17.2c-0.5-5.6-1.6-11.2-2.2-16.8c-0.5-4.2-0.7-8.3-0.9-12.5c-0.2-4.2-0.9-8.4-0.3-12.6
			c8.1,0.7,15.7,3.4,22.9,6.9c5.9,2.8,11.6,6.3,16.8,10.3c2.8,2.2,5.6,4.4,8.4,6.6c1,0.8,1.6,1.8,1.8,3.2c0.9,5.6,1.6,11.2,1.9,16.9
			c0.2,3.2,0.4,6.3,0.3,9.5c-0.2,8.6-1.5,17-3.8,25.2c-2.9,10.4-7.1,20.3-12,29.9c-4.1,8-8.9,15.6-13.8,23.2
			C1379.4,347.1,1378.9,347.3,1378.2,347.9"/>
	</g>
</g>
<g>
	<g>
		<path class="st1" d="M570.3-31.4c-0.4-15.3,1.8-29.1,6.3-42.5c4-11.8,10-22.4,17.8-32.1c4.8-6,10.3-11.4,15.9-16.6
			c9.6-8.9,20.6-15.9,32.5-21.3c8.4-3.8,17.1-6.6,26-8.4c5.2-1.1,10.5-1.7,15.9-2c3.5-0.2,7.1-0.4,10.6-0.3
			c10.5,0.1,20.8,1.6,30.9,4.3c8.1,2.2,15.9,5.4,23.5,8.8c6.4,2.9,12.6,6.2,19.2,8.4c5.1,1.7,10.4,2.9,15.9,3.5
			c4.7,0.5,9.4,0.6,14,0.3c11.8-0.7,23-3.8,33.3-9.7c5.7-3.3,11.6-6.2,18-8c3.5-1,7.1-1.8,10.8-2.2c2.2-0.2,4-1,4.9-3.4
			c1.2-2.8,2.1-5.5,0.9-8.6c-0.8-2.1-1.5-3.6-4.3-4.1c-10-1.9-15.8-8.5-18.5-18c-1.5-5.3-1.7-10.8-1.4-16.2
			c0.4-6.5,3.1-12.1,7.1-17.2c3.7-4.7,8.3-8.1,14-10c8-2.6,15.2-1.2,21.9,3.8c5.7,4.3,9.3,10,10.9,16.9c1.7,7.4-0.4,14-4.7,20
			c-2.8,3.8-5,7.8-6.1,12.5c-1.7,7.5,0.5,14,4.5,20.2c0.9,1.4,2,2.5,2.9,3.9c1.1,1.7,2.8,2.1,4.5,2.4c9.7,1.4,19,4.1,28.1,7.5
			c11,4.2,21.3,9.8,30.6,17c4.3,3.3,8.4,6.7,12.1,10.7c6,6.5,11.3,13.6,15.5,21.5c5.1,9.3,8.5,19.2,10.8,29.5
			c1.3,5.8,2,11.8,2.5,17.8c0.5,6.2,0.3,12.4,0.3,18.5c0,7.3-1.3,14.4-2.9,21.5C991.9,10,987,22.2,981.2,34
			c-3.5,7.1-7.5,13.9-11.7,20.6c-5.8,9.3-12.3,18.1-18.9,26.9c-3.6,4.7-7.5,9.2-11.4,13.7c-5.7,6.8-11.7,13.2-17.7,19.7
			c-6.4,6.9-13.1,13.4-19.7,20c-5.6,5.5-11.4,10.8-17.4,16c-7.8,6.9-15.7,13.7-23.8,20.3c-9.2,7.5-18.6,14.9-28,22.1
			c-10.6,8.1-21.4,15.8-32.4,23.4c-4.9,3.4-9.9,6.6-14.8,10c-1.1,0.8-2,0.7-3.1,0c-16.2-11-32.4-22.2-47.9-34.3
			c-7.4-5.8-14.8-11.6-22.1-17.5c-7.1-5.8-14.1-11.7-20.9-17.8c-4.5-4-8.9-8-13.4-12c-9.5-8.5-18.5-17.6-27.4-26.7
			c-7.2-7.4-14.1-15.1-20.8-22.9c-10-11.6-19.2-23.8-27.7-36.5c-7.2-10.7-13.4-22-18.8-33.8c-4.7-10.2-8.2-20.8-10.6-31.7
			c-1-4.5-1.6-9.2-2.1-13.8C570.2-24.3,570.6-28.4,570.3-31.4"/>
		<path class="st0" d="M719.9-36.6c7.5,0.3,15-0.3,22.4-1.2c9.8-1.1,19.4-3,28.9-5.5c8-2.1,15.9-4.7,23.5-8.1
			c3.5-1.6,7.1-3.1,11.1-4.8c-1.5,3.3-2.8,6.2-4.2,9.2c-4.6,9.7-8.5,19.7-12.1,29.8c-5.3,14.7-9.7,29.7-13.4,45
			c-1.9,7.8-3.6,15.7-4.8,23.6c-0.8,5.2-1.9,10.3-2.6,15.5c-0.6,4.5-0.9,9-1.4,13.5c-0.7,6.6-1,13.3-1.5,19.9
			c-0.7,10.4-0.4,20.9-0.3,31.3c0.1,6.9,0.6,13.8,0.9,20.7c0.3,6.4,0.7,12.9,0.9,19.3c0.2,4.8,0.8,9.5,0.9,14.3
			c0,1.4,0.8,2.8,0.3,4.4c-2-0.5-3.5-2-5-3.2c-8.9-6.6-17.8-13.3-26.5-20.2c-5.5-4.3-10.7-8.8-16-13.2c-7.3-6.2-14.6-12.5-21.9-18.8
			c-1.6-1.4-3.2-3-4.8-4.4c-3.1-2.7-6.1-5.6-9-8.5c-5.3-5.1-10.6-10.1-15.7-15.3c-6.2-6.4-12.2-12.8-18.1-19.5
			c-8.8-10-17.1-20.3-24.9-31.1c-8.2-11.6-15.5-23.7-21.6-36.5c-4.9-10.4-8.5-21.3-10.7-32.6c-1.6-8.5-1.6-17.2-1.4-25.8
			c0-1.3,0.5-2.7,0.8-4c1-0.2,1.9,0.2,2.9,0.5c14.7,4.6,29.7,7.2,44.9,8.9c9.8,1.1,19.6,1.8,29.4,1.7c15.5-0.2,30.8-1.4,46-4.9
			C717.7-37,718.8-37.5,719.9-36.6"/>
		<path class="st0" d="M784,200.9c-0.3-0.2-0.5-0.4-0.7-0.6c-3.6-2.5-7.1-5-10.7-7.5c-0.8-0.6-1.1-1.3-0.8-2.4
			c3.2-10.7,6.4-21.4,9.4-32.1c5.3-18.3,12-36.1,19.2-53.7c3.3-8,7-15.9,10.6-23.8c3.4-7.2,6.9-14.3,10.7-21.3
			c6.9-12.6,14.2-25,22.7-36.6c5.2-7.1,10.6-14,16.5-20.5c1.3-1.4,1.6-1.3,2.3,0.5c5.8,15.3,12.3,30.2,19.4,44.9
			c5.7,12,11.9,23.7,18.4,35.3c2.3,4,4.5,8.1,7,12.1c0.4,0.7,0.5,1.2-0.2,1.9c-7.5,7.5-14.9,15.1-22.5,22.4
			c-5.1,5-10.4,9.8-15.8,14.4c-7.7,6.7-15.4,13.4-23.3,19.8c-9.5,7.8-19.1,15.4-28.8,22.8c-8.4,6.3-16.9,12.4-25.4,18.6
			c-2.4,1.7-4.8,3.4-7.3,5.1C784.5,200.4,784.3,200.6,784,200.9"/>
		<path class="st0" d="M944.2,51.9c-2.4-10.4-4.8-20.4-6.9-30.5c-1.9-8.9-3.4-17.8-5.1-26.8c-1-5.5-2.3-11-3.1-16.6
			c-0.8-5.7-1.9-11.4-2.4-17.2c-0.5-5.6-1.6-11.2-2.2-16.8c-0.5-4.2-0.7-8.3-0.9-12.5c-0.2-4.2-0.9-8.4-0.3-12.6
			c8.1,0.7,15.7,3.4,22.9,6.9c5.9,2.8,11.6,6.3,16.8,10.3c2.8,2.2,5.6,4.4,8.4,6.6c1,0.8,1.6,1.8,1.8,3.2c0.9,5.6,1.6,11.2,1.9,16.9
			c0.2,3.2,0.4,6.3,0.3,9.5c-0.2,8.6-1.5,17-3.8,25.2c-2.9,10.4-7.1,20.3-12,29.9c-4.1,8-8.9,15.6-13.8,23.2
			C945.4,51.1,944.9,51.3,944.2,51.9"/>
	</g>
</g>
<g>
	<g>
		<path class="st1" d="M25.4,879.6c-0.7-30.7,3.5-58.2,12.7-85c8-23.6,19.9-44.9,35.6-64.3c9.7-12,20.6-22.9,31.9-33.3
			c19.3-17.7,41.1-31.9,65.1-42.7c16.7-7.5,34.1-13.1,52-16.8c10.4-2.2,21.1-3.4,31.8-4.1c7.1-0.4,14.1-0.7,21.2-0.7
			c21,0.1,41.6,3.2,61.9,8.6c16.3,4.4,31.8,10.7,47.1,17.7c12.8,5.8,25.2,12.4,38.5,16.9c10.3,3.5,20.9,5.9,31.8,7
			c9.4,1,18.7,1.1,28,0.6c23.6-1.4,46-7.6,66.7-19.5c11.4-6.6,23.2-12.5,35.9-16.1c7.1-2,14.3-3.5,21.6-4.3c4.4-0.5,7.9-2,9.9-6.8
			c2.4-5.7,4.2-11,1.8-17.2c-1.6-4.2-3-7.1-8.6-8.2c-19.9-3.7-31.6-17-37.1-36c-3.1-10.6-3.4-21.6-2.7-32.5
			c0.8-13,6.2-24.2,14.2-34.4c7.5-9.4,16.6-16.1,28-19.9c16-5.3,30.5-2.4,43.7,7.7c11.4,8.6,18.6,20.1,21.8,33.8
			c3.4,14.7-0.8,28-9.4,39.9c-5.5,7.7-10.1,15.6-12.2,25c-3.5,15.1,1.1,28,8.9,40.4c1.7,2.7,4.1,5.1,5.9,7.8
			c2.2,3.3,5.6,4.3,9.1,4.8c19.4,2.9,38.1,8.2,56.3,15.1c22.1,8.4,42.6,19.6,61.3,34c8.5,6.6,16.8,13.5,24.1,21.5
			c12,13.1,22.5,27.3,31.1,43c10.1,18.7,17,38.5,21.5,59.1c2.6,11.7,4,23.6,5,35.6c1,12.4,0.6,24.7,0.6,37.1
			c0.1,14.6-2.7,28.9-5.8,43.1c-5.6,25.9-15.5,50.3-27.1,73.9c-7,14.2-14.9,27.9-23.4,41.3c-11.7,18.6-24.5,36.3-37.7,53.8
			c-7.2,9.5-15.1,18.4-22.7,27.5c-11.4,13.5-23.5,26.4-35.5,39.4c-12.8,13.8-26.2,26.8-39.5,40c-11.2,11.1-22.9,21.7-34.7,32.1
			c-15.7,13.7-31.4,27.3-47.6,40.6c-18.4,15.1-37.2,29.8-56.1,44.3c-21.2,16.2-42.8,31.7-64.8,46.9c-9.8,6.8-19.9,13.1-29.5,20.1
			c-2.3,1.7-4,1.4-6.2-0.1c-32.5-22.1-64.8-44.5-95.9-68.6c-14.8-11.5-29.6-23.1-44.2-35c-14.2-11.6-28.1-23.4-41.9-35.5
			c-9-7.9-17.8-16-26.8-24c-19.1-17-37-35.2-54.9-53.4c-14.5-14.7-28.2-30.2-41.6-45.9c-20-23.2-38.5-47.6-55.5-73
			c-14.4-21.5-26.8-44.1-37.6-67.6c-9.3-20.4-16.5-41.6-21.3-63.5c-2-9.1-3.2-18.3-4.1-27.6C25.2,893.6,25.8,885.4,25.4,879.6"/>
		<path class="st0" d="M324.7,869c15,0.5,29.9-0.7,44.9-2.4c19.6-2.3,38.8-6.1,57.8-11.1c16.1-4.2,31.8-9.5,47-16.3
			c7.1-3.2,14.2-6.2,22.1-9.6c-3,6.6-5.6,12.5-8.4,18.4c-9.2,19.4-17,39.4-24.3,59.6c-10.7,29.5-19.5,59.5-26.8,90
			c-3.8,15.6-7.2,31.3-9.6,47.3c-1.6,10.4-3.8,20.7-5.3,31c-1.3,9-1.9,18.1-2.9,27.1c-1.4,13.3-2,26.6-2.9,39.9
			c-1.4,20.9-0.8,41.7-0.5,62.6c0.2,13.8,1.1,27.6,1.7,41.4c0.6,12.9,1.3,25.8,1.9,38.7c0.4,9.6,1.6,19.1,1.7,28.7
			c0,2.8,1.5,5.5,0.5,8.8c-4.1-1-7-4.1-10.1-6.4c-17.8-13.3-35.6-26.7-53.1-40.3c-10.9-8.5-21.4-17.5-32-26.5
			c-14.7-12.4-29.3-25-43.9-37.5c-3.3-2.8-6.3-6-9.6-8.8c-6.3-5.4-12.1-11.3-18.1-17c-10.5-10.2-21.3-20.2-31.5-30.7
			c-12.4-12.7-24.5-25.7-36.3-39c-17.6-19.9-34.3-40.6-49.8-62.3c-16.5-23.2-31.1-47.4-43.1-73.1c-9.8-20.9-17.1-42.6-21.5-65.2
			c-3.3-17-3.2-34.4-2.8-51.7c0.1-2.7,1-5.4,1.6-8.1c2-0.5,3.9,0.3,5.8,0.9c29.3,9.2,59.4,14.4,89.9,17.9
			c19.6,2.2,39.3,3.6,58.9,3.4c30.9-0.3,61.7-2.8,92-9.8C320.4,868.2,322.6,867.4,324.7,869"/>
		<path class="st0" d="M324.7,869c-6.9,1.3-13.8,2.5-20.6,3.8c-11.1,2.1-22.4,3.5-33.7,4.6c-16.5,1.6-33,2.9-49.5,2.4
			c-17.5-0.5-35.1-1.4-52.6-3.3c-24.9-2.7-49.6-6.8-73.9-13c-7.7-2-15.6-3.6-22.8-7.2c2.8-20.9,8.4-40.9,17-60.2
			c7.2-16.1,16.5-30.8,27.5-44.4c11.2-13.9,24.4-25.8,38.8-36.5c21.7-16.2,46.4-25.3,72.3-31.5c14.5-3.5,29.4-5.3,44.5-5.9
			c32.2-1.3,62.6,5.2,92.2,17.1c12,4.8,23.3,10.9,35,16.2c16,7.2,32.3,12.8,49.8,15.3c13.7,1.9,27.3,1.6,41,1.5
			c3.7,0,7.4-1,11.9-0.5c-2.4,3.9-5.7,6.7-8.4,9.8c-18.6,21.4-38.1,42-58.7,61.5c-21,19.9-43.5,37.8-68.7,52.2
			C352.7,858.5,339,864.3,324.7,869"/>
		<path class="st0" d="M453,1344.3c-0.5-0.4-1-0.8-1.5-1.1c-7.1-5-14.3-10-21.4-15c-1.6-1.2-2.1-2.6-1.5-4.7
			c6.4-21.4,12.7-42.8,18.9-64.3c10.5-36.6,24.1-72.2,38.5-107.4c6.5-16.1,13.9-31.8,21.3-47.6c6.8-14.4,13.8-28.7,21.5-42.7
			c13.8-25.2,28.4-50,45.5-73.2c10.4-14.2,21.2-27.9,32.9-41c2.5-2.8,3.2-2.6,4.6,1c11.6,30.5,24.6,60.5,38.8,89.9
			c11.5,24,23.8,47.5,36.8,70.6c4.6,8.1,8.9,16.3,13.9,24.1c0.9,1.4,0.9,2.5-0.4,3.8c-15.1,14.9-29.9,30.1-45.1,44.9
			c-10.2,9.9-20.8,19.5-31.6,28.8c-15.4,13.4-30.8,26.8-46.7,39.7c-19,15.5-38.1,30.8-57.7,45.5c-16.8,12.7-33.9,24.8-50.9,37.2
			c-4.8,3.5-9.7,6.7-14.5,10.1C454,1343.4,453.6,1343.8,453,1344.3"/>
		<path class="st0" d="M773.8,1046.3c-4.8-20.9-9.6-40.9-13.8-61.1c-3.8-17.8-6.9-35.7-10.3-53.5c-2.1-11-4.7-22-6.1-33.1
			c-1.5-11.5-3.8-22.8-4.9-34.4c-1.1-11.2-3.1-22.4-4.4-33.6c-0.9-8.3-1.4-16.7-1.9-25.1c-0.5-8.4-1.7-16.8-0.7-25.2
			c16.3,1.5,31.4,6.8,45.9,13.8c11.8,5.7,23.1,12.5,33.6,20.6c5.6,4.4,11.3,8.7,16.8,13.2c2,1.6,3.2,3.6,3.6,6.4
			c1.8,11.2,3.2,22.4,3.8,33.7c0.4,6.3,0.8,12.6,0.6,18.9c-0.5,17.1-3.1,34-7.7,50.5c-5.8,20.8-14.1,40.6-24.1,59.8
			c-8.3,16-17.9,31.2-27.7,46.4C776,1044.5,775.1,1045.1,773.8,1046.3"/>
	</g>
</g>
<g>
	<g>
		<path class="st1" d="M805,575.4c-0.2-8.6,1-16.2,3.5-23.7c2.2-6.6,5.5-12.5,9.9-17.9c2.7-3.3,5.7-6.4,8.9-9.3
			c5.4-4.9,11.4-8.9,18.1-11.9c4.7-2.1,9.5-3.7,14.5-4.7c2.9-0.6,5.9-0.9,8.8-1.1c2-0.1,3.9-0.2,5.9-0.2c5.8,0,11.6,0.9,17.2,2.4
			c4.5,1.2,8.8,3,13.1,4.9c3.6,1.6,7,3.5,10.7,4.7c2.9,1,5.8,1.6,8.9,1.9c2.6,0.3,5.2,0.3,7.8,0.2c6.6-0.4,12.8-2.1,18.6-5.4
			c3.2-1.8,6.5-3.5,10-4.5c2-0.6,4-1,6-1.2c1.2-0.1,2.2-0.6,2.7-1.9c0.7-1.6,1.2-3.1,0.5-4.8c-0.4-1.2-0.8-2-2.4-2.3
			c-5.5-1-8.8-4.7-10.3-10c-0.9-3-1-6-0.8-9c0.2-3.6,1.7-6.7,4-9.6c2.1-2.6,4.6-4.5,7.8-5.5c4.5-1.5,8.5-0.7,12.2,2.1
			c3.2,2.4,5.2,5.6,6.1,9.4c1,4.1-0.2,7.8-2.6,11.1c-1.5,2.1-2.8,4.3-3.4,7c-1,4.2,0.3,7.8,2.5,11.2c0.5,0.8,1.1,1.4,1.6,2.2
			c0.6,0.9,1.6,1.2,2.5,1.3c5.4,0.8,10.6,2.3,15.7,4.2c6.1,2.3,11.9,5.4,17.1,9.5c2.4,1.8,4.7,3.8,6.7,6c3.3,3.6,6.3,7.6,8.6,12
			c2.8,5.2,4.7,10.7,6,16.5c0.7,3.3,1.1,6.6,1.4,9.9c0.3,3.5,0.2,6.9,0.2,10.3c0,4.1-0.7,8-1.6,12c-1.6,7.2-4.3,14-7.5,20.6
			c-1.9,3.9-4.2,7.8-6.5,11.5c-3.3,5.2-6.8,10.1-10.5,15c-2,2.6-4.2,5.1-6.3,7.6c-3.2,3.8-6.5,7.4-9.9,11c-3.6,3.8-7.3,7.5-11,11.1
			c-3.1,3.1-6.4,6-9.7,8.9c-4.4,3.8-8.8,7.6-13.2,11.3c-5.1,4.2-10.3,8.3-15.6,12.3c-5.9,4.5-11.9,8.8-18,13
			c-2.7,1.9-5.5,3.7-8.2,5.6c-0.6,0.5-1.1,0.4-1.7,0c-9.1-6.2-18-12.4-26.7-19.1c-4.1-3.2-8.3-6.4-12.3-9.8
			c-3.9-3.2-7.8-6.5-11.7-9.9c-2.5-2.2-5-4.5-7.4-6.7c-5.3-4.7-10.3-9.8-15.3-14.9c-4-4.1-7.8-8.4-11.6-12.8
			c-5.6-6.5-10.7-13.2-15.5-20.3c-4-6-7.5-12.3-10.5-18.8c-2.6-5.7-4.6-11.6-5.9-17.7c-0.6-2.5-0.9-5.1-1.2-7.7
			C804.9,579.3,805.1,577,805,575.4"/>
		<path class="st0" d="M888.3,572.5c4.2,0.2,8.3-0.2,12.5-0.7c5.5-0.6,10.8-1.7,16.1-3.1c4.5-1.2,8.9-2.6,13.1-4.5
			c2-0.9,4-1.7,6.2-2.7c-0.8,1.8-1.6,3.5-2.3,5.1c-2.5,5.4-4.7,11-6.8,16.6c-3,8.2-5.4,16.6-7.5,25.1c-1,4.3-2,8.7-2.7,13.2
			c-0.4,2.9-1.1,5.7-1.5,8.6c-0.4,2.5-0.5,5-0.8,7.5c-0.4,3.7-0.6,7.4-0.8,11.1c-0.4,5.8-0.2,11.6-0.1,17.4c0,3.8,0.3,7.7,0.5,11.5
			c0.2,3.6,0.4,7.2,0.5,10.8c0.1,2.7,0.4,5.3,0.5,8c0,0.8,0.4,1.5,0.1,2.4c-1.1-0.3-1.9-1.1-2.8-1.8c-5-3.7-9.9-7.4-14.8-11.2
			c-3-2.4-6-4.9-8.9-7.4c-4.1-3.5-8.2-7-12.2-10.5c-0.9-0.8-1.8-1.7-2.7-2.5c-1.7-1.5-3.4-3.1-5-4.7c-2.9-2.8-5.9-5.6-8.8-8.5
			c-3.4-3.5-6.8-7.2-10.1-10.8c-4.9-5.5-9.6-11.3-13.8-17.4c-4.6-6.4-8.6-13.2-12-20.4c-2.7-5.8-4.8-11.9-6-18.2
			c-0.9-4.7-0.9-9.6-0.8-14.4c0-0.8,0.3-1.5,0.4-2.2c0.6-0.1,1.1,0.1,1.6,0.3c8.2,2.6,16.5,4,25,5c5.4,0.6,10.9,1,16.4,0.9
			c8.6-0.1,17.2-0.8,25.6-2.7C887.1,572.2,887.7,572,888.3,572.5"/>
		<path class="st0" d="M888.3,572.5c-1.9,0.4-3.8,0.7-5.7,1.1c-3.1,0.6-6.2,1-9.4,1.3c-4.6,0.5-9.2,0.8-13.8,0.7
			c-4.9-0.1-9.8-0.4-14.6-0.9c-6.9-0.8-13.8-1.9-20.6-3.6c-2.1-0.6-4.3-1-6.3-2c0.8-5.8,2.3-11.4,4.7-16.8c2-4.5,4.6-8.6,7.7-12.3
			c3.1-3.9,6.8-7.2,10.8-10.2c6-4.5,12.9-7,20.1-8.8c4-1,8.2-1.5,12.4-1.6c8.9-0.4,17.4,1.5,25.7,4.7c3.3,1.3,6.5,3,9.7,4.5
			c4.4,2,9,3.6,13.9,4.3c3.8,0.5,7.6,0.5,11.4,0.4c1,0,2.1-0.3,3.3-0.2c-0.7,1.1-1.6,1.9-2.3,2.7c-5.2,6-10.6,11.7-16.3,17.1
			c-5.8,5.5-12.1,10.5-19.1,14.5C896.1,569.5,892.2,571.1,888.3,572.5"/>
		<path class="st0" d="M924,704.7c-0.2-0.1-0.3-0.2-0.4-0.3c-2-1.4-4-2.8-5.9-4.2c-0.5-0.3-0.6-0.7-0.4-1.3c1.8-6,3.5-11.9,5.3-17.9
			c2.9-10.2,6.7-20.1,10.7-29.9c1.8-4.5,3.9-8.9,5.9-13.2c1.9-4,3.9-8,6-11.9c3.8-7,7.9-13.9,12.7-20.4c2.9-3.9,5.9-7.8,9.2-11.4
			c0.7-0.8,0.9-0.7,1.3,0.3c3.2,8.5,6.9,16.8,10.8,25c3.2,6.7,6.6,13.2,10.3,19.7c1.3,2.3,2.5,4.5,3.9,6.7c0.2,0.4,0.3,0.7-0.1,1.1
			c-4.2,4.2-8.3,8.4-12.6,12.5c-2.8,2.8-5.8,5.4-8.8,8c-4.3,3.7-8.6,7.5-13,11.1c-5.3,4.3-10.6,8.6-16.1,12.7
			c-4.7,3.5-9.4,6.9-14.2,10.4c-1.3,1-2.7,1.9-4,2.8C924.3,704.5,924.1,704.6,924,704.7"/>
		<path class="st0" d="M1013.3,621.8c-1.3-5.8-2.7-11.4-3.9-17c-1-4.9-1.9-9.9-2.9-14.9c-0.6-3.1-1.3-6.1-1.7-9.2
			c-0.4-3.2-1.1-6.4-1.4-9.6c-0.3-3.1-0.9-6.2-1.2-9.3c-0.3-2.3-0.4-4.6-0.5-7c-0.1-2.3-0.5-4.7-0.2-7c4.5,0.4,8.7,1.9,12.8,3.8
			c3.3,1.6,6.4,3.5,9.3,5.7c1.6,1.2,3.1,2.4,4.7,3.7c0.6,0.4,0.9,1,1,1.8c0.5,3.1,0.9,6.2,1.1,9.4c0.1,1.8,0.2,3.5,0.2,5.3
			c-0.1,4.8-0.9,9.5-2.1,14.1c-1.6,5.8-3.9,11.3-6.7,16.6c-2.3,4.5-5,8.7-7.7,12.9C1013.9,621.3,1013.6,621.5,1013.3,621.8"/>
	</g>
</g>
<g>
	<g>
		<path class="st1" d="M1694,777.9c-0.3-11.1,1.3-21,4.6-30.6c2.9-8.5,7.2-16.2,12.8-23.2c3.5-4.3,7.4-8.3,11.5-12
			c7-6.4,14.8-11.5,23.5-15.4c6-2.7,12.3-4.7,18.8-6.1c3.8-0.8,7.6-1.2,11.5-1.5c2.5-0.2,5.1-0.3,7.6-0.2c7.6,0,15,1.2,22.3,3.1
			c5.9,1.6,11.5,3.9,17,6.4c4.6,2.1,9.1,4.5,13.9,6.1c3.7,1.3,7.5,2.1,11.5,2.5c3.4,0.4,6.7,0.4,10.1,0.2c8.5-0.5,16.6-2.7,24-7
			c4.1-2.4,8.4-4.5,13-5.8c2.6-0.7,5.1-1.3,7.8-1.6c1.6-0.2,2.8-0.7,3.6-2.4c0.8-2.1,1.5-4,0.7-6.2c-0.6-1.5-1.1-2.6-3.1-2.9
			c-7.2-1.4-11.4-6.1-13.4-13c-1.1-3.8-1.2-7.8-1-11.7c0.3-4.7,2.2-8.7,5.1-12.4c2.7-3.4,6-5.8,10.1-7.2c5.8-1.9,11-0.9,15.8,2.8
			c4.1,3.1,6.7,7.2,7.9,12.2c1.2,5.3-0.3,10.1-3.4,14.4c-2,2.8-3.6,5.6-4.4,9c-1.3,5.4,0.4,10.1,3.2,14.6c0.6,1,1.5,1.8,2.1,2.8
			c0.8,1.2,2,1.5,3.3,1.7c7,1,13.7,2.9,20.3,5.4c8,3,15.4,7.1,22.1,12.3c3.1,2.4,6.1,4.9,8.7,7.7c4.3,4.7,8.1,9.8,11.2,15.5
			c3.7,6.7,6.1,13.9,7.8,21.3c0.9,4.2,1.5,8.5,1.8,12.8c0.4,4.5,0.2,8.9,0.2,13.4c0,5.3-1,10.4-2.1,15.5c-2,9.3-5.6,18.1-9.8,26.6
			c-2.5,5.1-5.4,10.1-8.4,14.9c-4.2,6.7-8.8,13.1-13.6,19.4c-2.6,3.4-5.4,6.6-8.2,9.9c-4.1,4.9-8.5,9.5-12.8,14.2
			c-4.6,5-9.4,9.7-14.2,14.4c-4,4-8.2,7.8-12.5,11.6c-5.6,5-11.3,9.9-17.1,14.6c-6.6,5.4-13.4,10.8-20.2,16
			c-7.6,5.8-15.4,11.4-23.4,16.9c-3.5,2.4-7.2,4.7-10.6,7.2c-0.8,0.6-1.4,0.5-2.2,0c-11.7-8-23.4-16-34.6-24.7
			c-5.4-4.2-10.7-8.3-15.9-12.6c-5.1-4.2-10.1-8.4-15.1-12.8c-3.2-2.9-6.4-5.8-9.6-8.6c-6.9-6.1-13.3-12.7-19.8-19.2
			c-5.2-5.3-10.2-10.9-15-16.6c-7.2-8.4-13.9-17.1-20-26.3c-5.2-7.7-9.7-15.9-13.5-24.4c-3.4-7.3-5.9-15-7.7-22.9
			c-0.7-3.3-1.2-6.6-1.5-10C1693.9,782.9,1694.1,780,1694,777.9"/>
		<path class="st0" d="M1801.9,774.1c5.4,0.2,10.8-0.2,16.2-0.9c7.1-0.8,14-2.2,20.9-4c5.8-1.5,11.5-3.4,17-5.9
			c2.6-1.1,5.1-2.2,8-3.5c-1.1,2.4-2,4.5-3,6.6c-3.3,7-6.1,14.2-8.8,21.5c-3.8,10.6-7,21.5-9.7,32.4c-1.4,5.6-2.6,11.3-3.5,17
			c-0.6,3.7-1.4,7.4-1.9,11.2c-0.5,3.2-0.7,6.5-1,9.8c-0.5,4.8-0.7,9.6-1,14.4c-0.5,7.5-0.3,15-0.2,22.6c0.1,5,0.4,10,0.6,14.9
			c0.2,4.7,0.5,9.3,0.7,14c0.1,3.4,0.6,6.9,0.6,10.4c0,1,0.6,2,0.2,3.2c-1.5-0.4-2.5-1.5-3.6-2.3c-6.4-4.8-12.8-9.6-19.1-14.5
			c-3.9-3.1-7.7-6.3-11.5-9.5c-5.3-4.5-10.6-9-15.8-13.5c-1.2-1-2.3-2.2-3.5-3.2c-2.3-1.9-4.4-4.1-6.5-6.1
			c-3.8-3.7-7.7-7.3-11.3-11.1c-4.5-4.6-8.8-9.3-13.1-14.1c-6.4-7.2-12.4-14.6-17.9-22.5c-5.9-8.3-11.2-17.1-15.6-26.4
			c-3.5-7.5-6.2-15.4-7.7-23.5c-1.2-6.1-1.1-12.4-1-18.6c0-1,0.4-1.9,0.6-2.9c0.7-0.2,1.4,0.1,2.1,0.3c10.6,3.3,21.4,5.2,32.4,6.4
			c7.1,0.8,14.1,1.3,21.2,1.2c11.1-0.1,22.2-1,33.2-3.5C1800.3,773.8,1801.1,773.5,1801.9,774.1"/>
		<path class="st0" d="M1801.9,774.1c-2.5,0.5-5,0.9-7.4,1.4c-4,0.8-8.1,1.3-12.1,1.7c-5.9,0.6-11.9,1-17.9,0.9
			c-6.3-0.2-12.6-0.5-19-1.2c-9-1-17.9-2.4-26.6-4.7c-2.8-0.7-5.6-1.3-8.2-2.6c1-7.5,3-14.8,6.1-21.7c2.6-5.8,6-11.1,9.9-16
			c4-5,8.8-9.3,14-13.2c7.8-5.8,16.7-9.1,26.1-11.4c5.2-1.3,10.6-1.9,16-2.1c11.6-0.5,22.6,1.9,33.3,6.1c4.3,1.7,8.4,3.9,12.6,5.8
			c5.8,2.6,11.6,4.6,17.9,5.5c4.9,0.7,9.8,0.6,14.8,0.5c1.3,0,2.7-0.4,4.3-0.2c-0.9,1.4-2,2.4-3,3.5c-6.7,7.7-13.7,15.1-21.2,22.2
			c-7.6,7.2-15.7,13.6-24.8,18.8C1812,770.3,1807,772.4,1801.9,774.1"/>
		<path class="st0" d="M1848.1,945.4c-0.2-0.2-0.4-0.3-0.5-0.4c-2.6-1.8-5.1-3.6-7.7-5.4c-0.6-0.4-0.8-1-0.5-1.7
			c2.3-7.7,4.6-15.4,6.8-23.2c3.8-13.2,8.7-26,13.9-38.7c2.4-5.8,5-11.5,7.7-17.1c2.4-5.2,5-10.3,7.7-15.4c5-9.1,10.2-18,16.4-26.4
			c3.7-5.1,7.6-10.1,11.9-14.8c0.9-1,1.2-0.9,1.7,0.4c4.2,11,8.9,21.8,14,32.4c4.1,8.6,8.6,17.1,13.3,25.5c1.6,2.9,3.2,5.9,5,8.7
			c0.3,0.5,0.3,0.9-0.2,1.4c-5.4,5.4-10.8,10.9-16.3,16.2c-3.7,3.6-7.5,7-11.4,10.4c-5.6,4.8-11.1,9.6-16.8,14.3
			c-6.8,5.6-13.7,11.1-20.8,16.4c-6,4.6-12.2,9-18.3,13.4c-1.7,1.3-3.5,2.4-5.2,3.6C1848.5,945.1,1848.3,945.2,1848.1,945.4"/>
	</g>
</g>
<g>
	<g>
		<path class="st1" d="M1342,533.4c-0.2-8.6,1-16.2,3.5-23.7c2.2-6.6,5.5-12.5,9.9-17.9c2.7-3.3,5.7-6.4,8.9-9.3
			c5.4-4.9,11.4-8.9,18.1-11.9c4.7-2.1,9.5-3.7,14.5-4.7c2.9-0.6,5.9-0.9,8.8-1.1c2-0.1,3.9-0.2,5.9-0.2c5.8,0,11.6,0.9,17.2,2.4
			c4.5,1.2,8.8,3,13.1,4.9c3.6,1.6,7,3.5,10.7,4.7c2.9,1,5.8,1.6,8.9,1.9c2.6,0.3,5.2,0.3,7.8,0.2c6.6-0.4,12.8-2.1,18.6-5.4
			c3.2-1.8,6.5-3.5,10-4.5c2-0.6,4-1,6-1.2c1.2-0.1,2.2-0.6,2.7-1.9c0.7-1.6,1.2-3.1,0.5-4.8c-0.4-1.2-0.8-2-2.4-2.3
			c-5.5-1-8.8-4.7-10.3-10c-0.9-3-1-6-0.8-9c0.2-3.6,1.7-6.7,4-9.6c2.1-2.6,4.6-4.5,7.8-5.5c4.5-1.5,8.5-0.7,12.2,2.1
			c3.2,2.4,5.2,5.6,6.1,9.4c1,4.1-0.2,7.8-2.6,11.1c-1.5,2.1-2.8,4.3-3.4,7c-1,4.2,0.3,7.8,2.5,11.2c0.5,0.8,1.1,1.4,1.6,2.2
			c0.6,0.9,1.6,1.2,2.5,1.3c5.4,0.8,10.6,2.3,15.7,4.2c6.1,2.3,11.9,5.4,17.1,9.5c2.4,1.8,4.7,3.8,6.7,6c3.3,3.6,6.3,7.6,8.6,12
			c2.8,5.2,4.7,10.7,6,16.5c0.7,3.3,1.1,6.6,1.4,9.9c0.3,3.5,0.2,6.9,0.2,10.3c0,4.1-0.7,8-1.6,12c-1.6,7.2-4.3,14-7.5,20.6
			c-1.9,3.9-4.2,7.8-6.5,11.5c-3.3,5.2-6.8,10.1-10.5,15c-2,2.6-4.2,5.1-6.3,7.6c-3.2,3.8-6.5,7.4-9.9,11c-3.6,3.8-7.3,7.5-11,11.1
			c-3.1,3.1-6.4,6-9.7,8.9c-4.4,3.8-8.8,7.6-13.2,11.3c-5.1,4.2-10.3,8.3-15.6,12.3c-5.9,4.5-11.9,8.8-18,13
			c-2.7,1.9-5.5,3.7-8.2,5.6c-0.6,0.5-1.1,0.4-1.7,0c-9.1-6.2-18-12.4-26.7-19.1c-4.1-3.2-8.3-6.4-12.3-9.8
			c-3.9-3.2-7.8-6.5-11.7-9.9c-2.5-2.2-5-4.5-7.4-6.7c-5.3-4.7-10.3-9.8-15.3-14.9c-4-4.1-7.8-8.4-11.6-12.8
			c-5.6-6.5-10.7-13.2-15.5-20.3c-4-6-7.5-12.3-10.5-18.8c-2.6-5.7-4.6-11.6-5.9-17.7c-0.6-2.5-0.9-5.1-1.2-7.7
			C1341.9,537.3,1342.1,535,1342,533.4"/>
		<path class="st0" d="M1425.3,530.5c4.2,0.2,8.3-0.2,12.5-0.7c5.5-0.6,10.8-1.7,16.1-3.1c4.5-1.2,8.9-2.6,13.1-4.5
			c2-0.9,4-1.7,6.2-2.7c-0.8,1.8-1.6,3.5-2.3,5.1c-2.5,5.4-4.7,11-6.8,16.6c-3,8.2-5.4,16.6-7.5,25.1c-1,4.3-2,8.7-2.7,13.2
			c-0.4,2.9-1.1,5.7-1.5,8.6c-0.4,2.5-0.5,5-0.8,7.5c-0.4,3.7-0.6,7.4-0.8,11.1c-0.4,5.8-0.2,11.6-0.1,17.4c0,3.8,0.3,7.7,0.5,11.5
			c0.2,3.6,0.4,7.2,0.5,10.8c0.1,2.7,0.4,5.3,0.5,8c0,0.8,0.4,1.5,0.1,2.4c-1.1-0.3-1.9-1.1-2.8-1.8c-5-3.7-9.9-7.4-14.8-11.2
			c-3-2.4-6-4.9-8.9-7.4c-4.1-3.5-8.2-7-12.2-10.5c-0.9-0.8-1.8-1.7-2.7-2.5c-1.7-1.5-3.4-3.1-5-4.7c-2.9-2.8-5.9-5.6-8.8-8.5
			c-3.4-3.5-6.8-7.2-10.1-10.8c-4.9-5.5-9.6-11.3-13.8-17.4c-4.6-6.4-8.6-13.2-12-20.4c-2.7-5.8-4.8-11.9-6-18.2
			c-0.9-4.7-0.9-9.6-0.8-14.4c0-0.8,0.3-1.5,0.4-2.2c0.6-0.1,1.1,0.1,1.6,0.3c8.2,2.6,16.5,4,25,5c5.4,0.6,10.9,1,16.4,0.9
			c8.6-0.1,17.2-0.8,25.6-2.7C1424.1,530.2,1424.7,530,1425.3,530.5"/>
		<path class="st0" d="M1425.3,530.5c-1.9,0.4-3.8,0.7-5.7,1.1c-3.1,0.6-6.2,1-9.4,1.3c-4.6,0.5-9.2,0.8-13.8,0.7
			c-4.9-0.1-9.8-0.4-14.6-0.9c-6.9-0.8-13.8-1.9-20.6-3.6c-2.1-0.6-4.3-1-6.3-2c0.8-5.8,2.3-11.4,4.7-16.8c2-4.5,4.6-8.6,7.7-12.3
			c3.1-3.9,6.8-7.2,10.8-10.2c6-4.5,12.9-7,20.1-8.8c4-1,8.2-1.5,12.4-1.6c8.9-0.4,17.4,1.5,25.7,4.7c3.3,1.3,6.5,3,9.7,4.5
			c4.4,2,9,3.6,13.9,4.3c3.8,0.5,7.6,0.5,11.4,0.4c1,0,2.1-0.3,3.3-0.2c-0.7,1.1-1.6,1.9-2.3,2.7c-5.2,6-10.6,11.7-16.3,17.1
			c-5.8,5.5-12.1,10.5-19.1,14.5C1433.1,527.5,1429.2,529.1,1425.3,530.5"/>
		<path class="st0" d="M1461,662.7c-0.2-0.1-0.3-0.2-0.4-0.3c-2-1.4-4-2.8-5.9-4.2c-0.5-0.3-0.6-0.7-0.4-1.3
			c1.8-6,3.5-11.9,5.3-17.9c2.9-10.2,6.7-20.1,10.7-29.9c1.8-4.5,3.9-8.9,5.9-13.2c1.9-4,3.9-8,6-11.9c3.8-7,7.9-13.9,12.7-20.4
			c2.9-3.9,5.9-7.8,9.2-11.4c0.7-0.8,0.9-0.7,1.3,0.3c3.2,8.5,6.9,16.8,10.8,25c3.2,6.7,6.6,13.2,10.3,19.7c1.3,2.3,2.5,4.5,3.9,6.7
			c0.2,0.4,0.3,0.7-0.1,1.1c-4.2,4.2-8.3,8.4-12.6,12.5c-2.8,2.8-5.8,5.4-8.8,8c-4.3,3.7-8.6,7.5-13,11.1
			c-5.3,4.3-10.6,8.6-16.1,12.7c-4.7,3.5-9.4,6.9-14.2,10.4c-1.3,1-2.7,1.9-4,2.8C1461.3,662.5,1461.1,662.6,1461,662.7"/>
		<path class="st0" d="M1550.3,579.8c-1.3-5.8-2.7-11.4-3.9-17c-1-4.9-1.9-9.9-2.9-14.9c-0.6-3.1-1.3-6.1-1.7-9.2
			c-0.4-3.2-1.1-6.4-1.4-9.6c-0.3-3.1-0.9-6.2-1.2-9.3c-0.3-2.3-0.4-4.6-0.5-7c-0.1-2.3-0.5-4.7-0.2-7c4.5,0.4,8.7,1.9,12.8,3.8
			c3.3,1.6,6.4,3.5,9.3,5.7c1.6,1.2,3.1,2.4,4.7,3.7c0.6,0.4,0.9,1,1,1.8c0.5,3.1,0.9,6.2,1.1,9.4c0.1,1.8,0.2,3.5,0.2,5.3
			c-0.1,4.8-0.9,9.5-2.1,14.1c-1.6,5.8-3.9,11.3-6.7,16.6c-2.3,4.5-5,8.7-7.7,12.9C1550.9,579.3,1550.6,579.5,1550.3,579.8"/>
	</g>
</g>
<g>
	<g>
		<path class="st1" d="M764,328.4c-0.2-7,0.8-13.4,2.9-19.5c1.8-5.4,4.6-10.3,8.2-14.7c2.2-2.8,4.7-5.3,7.3-7.6
			c4.4-4.1,9.4-7.3,14.9-9.8c3.8-1.7,7.8-3,11.9-3.9c2.4-0.5,4.8-0.8,7.3-0.9c1.6-0.1,3.2-0.2,4.9-0.2c4.8,0,9.5,0.7,14.2,2
			c3.7,1,7.3,2.5,10.8,4c2.9,1.3,5.8,2.8,8.8,3.9c2.4,0.8,4.8,1.3,7.3,1.6c2.1,0.2,4.3,0.3,6.4,0.1c5.4-0.3,10.5-1.7,15.3-4.5
			c2.6-1.5,5.3-2.9,8.2-3.7c1.6-0.5,3.3-0.8,5-1c1-0.1,1.8-0.5,2.3-1.6c0.5-1.3,1-2.5,0.4-3.9c-0.4-1-0.7-1.6-2-1.9
			c-4.6-0.9-7.2-3.9-8.5-8.2c-0.7-2.4-0.8-4.9-0.6-7.4c0.2-3,1.4-5.6,3.3-7.9c1.7-2.2,3.8-3.7,6.4-4.6c3.7-1.2,7-0.6,10,1.8
			c2.6,2,4.3,4.6,5,7.8c0.8,3.4-0.2,6.4-2.2,9.2c-1.3,1.8-2.3,3.6-2.8,5.7c-0.8,3.5,0.2,6.4,2,9.3c0.4,0.6,0.9,1.2,1.3,1.8
			c0.5,0.8,1.3,1,2.1,1.1c4.4,0.7,8.7,1.9,12.9,3.5c5.1,1.9,9.8,4.5,14.1,7.8c2,1.5,3.9,3.1,5.5,4.9c2.8,3,5.2,6.3,7.1,9.8
			c2.3,4.3,3.9,8.8,4.9,13.5c0.6,2.7,0.9,5.4,1.2,8.2c0.2,2.8,0.1,5.7,0.1,8.5c0,3.3-0.6,6.6-1.3,9.9c-1.3,5.9-3.6,11.5-6.2,16.9
			c-1.6,3.3-3.4,6.4-5.4,9.5c-2.7,4.3-5.6,8.3-8.7,12.3c-1.6,2.2-3.5,4.2-5.2,6.3c-2.6,3.1-5.4,6.1-8.1,9c-2.9,3.2-6,6.2-9.1,9.2
			c-2.6,2.5-5.2,5-8,7.4c-3.6,3.1-7.2,6.3-10.9,9.3c-4.2,3.5-8.5,6.8-12.9,10.2c-4.9,3.7-9.8,7.3-14.9,10.7c-2.2,1.6-4.6,3-6.8,4.6
			c-0.5,0.4-0.9,0.3-1.4,0c-7.5-5.1-14.9-10.2-22-15.7c-3.4-2.6-6.8-5.3-10.1-8c-3.3-2.7-6.4-5.4-9.6-8.1c-2.1-1.8-4.1-3.7-6.1-5.5
			c-4.4-3.9-8.5-8.1-12.6-12.2c-3.3-3.4-6.5-6.9-9.5-10.5c-4.6-5.3-8.8-10.9-12.7-16.7c-3.3-4.9-6.1-10.1-8.6-15.5
			c-2.1-4.7-3.8-9.5-4.9-14.6c-0.5-2.1-0.7-4.2-0.9-6.3C763.9,331.7,764.1,329.8,764,328.4"/>
		<path class="st0" d="M832.6,326c3.4,0.1,6.9-0.2,10.3-0.6c4.5-0.5,8.9-1.4,13.3-2.5c3.7-1,7.3-2.2,10.8-3.7
			c1.6-0.7,3.3-1.4,5.1-2.2c-0.7,1.5-1.3,2.9-1.9,4.2c-2.1,4.5-3.9,9-5.6,13.7c-2.4,6.8-4.5,13.6-6.1,20.6
			c-0.9,3.6-1.7,7.2-2.2,10.8c-0.4,2.4-0.9,4.7-1.2,7.1c-0.3,2.1-0.4,4.1-0.7,6.2c-0.3,3-0.5,6.1-0.7,9.1c-0.3,4.8-0.2,9.6-0.1,14.3
			c0,3.2,0.3,6.3,0.4,9.5c0.1,3,0.3,5.9,0.4,8.9c0.1,2.2,0.4,4.4,0.4,6.6c0,0.6,0.4,1.3,0.1,2c-0.9-0.2-1.6-0.9-2.3-1.5
			c-4.1-3-8.2-6.1-12.2-9.2c-2.5-2-4.9-4-7.3-6.1c-3.4-2.8-6.7-5.7-10.1-8.6c-0.8-0.7-1.4-1.4-2.2-2c-1.4-1.2-2.8-2.6-4.1-3.9
			c-2.4-2.3-4.9-4.6-7.2-7c-2.8-2.9-5.6-5.9-8.3-8.9c-4-4.6-7.9-9.3-11.4-14.3c-3.8-5.3-7.1-10.9-9.9-16.8
			c-2.2-4.8-3.9-9.8-4.9-14.9c-0.8-3.9-0.7-7.9-0.6-11.8c0-0.6,0.2-1.2,0.4-1.8c0.5-0.1,0.9,0.1,1.3,0.2c6.7,2.1,13.6,3.3,20.6,4.1
			c4.5,0.5,9,0.8,13.5,0.8c7.1-0.1,14.1-0.6,21.1-2.3C831.6,325.8,832.1,325.6,832.6,326"/>
		<path class="st0" d="M832.6,326c-1.6,0.3-3.2,0.6-4.7,0.9c-2.6,0.5-5.1,0.8-7.7,1.1c-3.8,0.4-7.6,0.7-11.4,0.6
			c-4-0.1-8-0.3-12.1-0.8c-5.7-0.6-11.4-1.5-16.9-3c-1.8-0.5-3.6-0.8-5.2-1.6c0.6-4.8,1.9-9.4,3.9-13.8c1.6-3.7,3.8-7.1,6.3-10.2
			c2.6-3.2,5.6-5.9,8.9-8.4c5-3.7,10.6-5.8,16.6-7.2c3.3-0.8,6.7-1.2,10.2-1.3c7.4-0.3,14.4,1.2,21.1,3.9c2.7,1.1,5.3,2.5,8,3.7
			c3.7,1.7,7.4,2.9,11.4,3.5c3.1,0.4,6.3,0.4,9.4,0.3c0.8,0,1.7-0.2,2.7-0.1c-0.5,0.9-1.3,1.5-1.9,2.3c-4.3,4.9-8.7,9.6-13.5,14.1
			c-4.8,4.6-10,8.7-15.8,12C839,323.6,835.8,324.9,832.6,326"/>
		<path class="st0" d="M862,435c-0.1-0.1-0.2-0.2-0.3-0.3c-1.6-1.2-3.3-2.3-4.9-3.4c-0.4-0.3-0.5-0.6-0.3-1.1
			c1.5-4.9,2.9-9.8,4.3-14.7c2.4-8.4,5.5-16.5,8.8-24.6c1.5-3.7,3.2-7.3,4.9-10.9c1.6-3.3,3.2-6.6,4.9-9.8
			c3.2-5.8,6.5-11.5,10.4-16.8c2.4-3.2,4.9-6.4,7.5-9.4c0.6-0.6,0.7-0.6,1.1,0.2c2.7,7,5.7,13.9,8.9,20.6c2.6,5.5,5.5,10.9,8.4,16.2
			c1,1.9,2.1,3.7,3.2,5.5c0.2,0.3,0.2,0.6-0.1,0.9c-3.5,3.4-6.9,6.9-10.3,10.3c-2.3,2.3-4.8,4.5-7.2,6.6c-3.5,3.1-7.1,6.1-10.7,9.1
			c-4.3,3.6-8.7,7.1-13.2,10.4c-3.8,2.9-7.8,5.7-11.7,8.5c-1.1,0.8-2.2,1.5-3.3,2.3C862.2,434.8,862.1,434.9,862,435"/>
		<path class="st0" d="M935.5,366.7c-1.1-4.8-2.2-9.4-3.2-14c-0.9-4.1-1.6-8.2-2.4-12.3c-0.5-2.5-1.1-5-1.4-7.6
			c-0.3-2.6-0.9-5.2-1.1-7.9c-0.2-2.6-0.7-5.1-1-7.7c-0.2-1.9-0.3-3.8-0.4-5.7c-0.1-1.9-0.4-3.8-0.2-5.8c3.7,0.3,7.2,1.6,10.5,3.2
			c2.7,1.3,5.3,2.9,7.7,4.7c1.3,1,2.6,2,3.9,3c0.5,0.4,0.7,0.8,0.8,1.5c0.4,2.6,0.7,5.1,0.9,7.7c0.1,1.4,0.2,2.9,0.1,4.3
			c-0.1,3.9-0.7,7.8-1.8,11.6c-1.3,4.8-3.2,9.3-5.5,13.7c-1.9,3.7-4.1,7.2-6.3,10.6C936,366.2,935.8,366.4,935.5,366.7"/>
	</g>
</g>
<g>
	<g>
		<path class="st1" d="M1709,94.4c-0.2-7,0.8-13.4,2.9-19.5c1.8-5.4,4.6-10.3,8.2-14.7c2.2-2.8,4.7-5.3,7.3-7.6
			c4.4-4.1,9.4-7.3,14.9-9.8c3.8-1.7,7.8-3,11.9-3.9c2.4-0.5,4.8-0.8,7.3-0.9c1.6-0.1,3.2-0.2,4.9-0.2c4.8,0,9.5,0.7,14.2,2
			c3.7,1,7.3,2.5,10.8,4c2.9,1.3,5.8,2.8,8.8,3.9c2.4,0.8,4.8,1.3,7.3,1.6c2.1,0.2,4.3,0.3,6.4,0.1c5.4-0.3,10.5-1.7,15.3-4.5
			c2.6-1.5,5.3-2.9,8.2-3.7c1.6-0.5,3.3-0.8,5-1c1-0.1,1.8-0.5,2.3-1.6c0.5-1.3,1-2.5,0.4-3.9c-0.4-1-0.7-1.6-2-1.9
			c-4.6-0.9-7.2-3.9-8.5-8.2c-0.7-2.4-0.8-4.9-0.6-7.4c0.2-3,1.4-5.6,3.3-7.9c1.7-2.2,3.8-3.7,6.4-4.6c3.7-1.2,7-0.6,10,1.8
			c2.6,2,4.3,4.6,5,7.8c0.8,3.4-0.2,6.4-2.2,9.2c-1.3,1.8-2.3,3.6-2.8,5.7c-0.8,3.5,0.2,6.4,2,9.3c0.4,0.6,0.9,1.2,1.3,1.8
			c0.5,0.8,1.3,1,2.1,1.1c4.4,0.7,8.7,1.9,12.9,3.5c5.1,1.9,9.8,4.5,14.1,7.8c2,1.5,3.9,3.1,5.5,4.9c2.8,3,5.2,6.3,7.1,9.8
			c2.3,4.3,3.9,8.8,4.9,13.5c0.6,2.7,0.9,5.4,1.2,8.2c0.2,2.8,0.1,5.7,0.1,8.5c0,3.3-0.6,6.6-1.3,9.9c-1.3,5.9-3.6,11.5-6.2,16.9
			c-1.6,3.3-3.4,6.4-5.4,9.5c-2.7,4.3-5.6,8.3-8.7,12.3c-1.6,2.2-3.5,4.2-5.2,6.3c-2.6,3.1-5.4,6.1-8.1,9c-2.9,3.2-6,6.2-9.1,9.2
			c-2.6,2.5-5.2,5-8,7.4c-3.6,3.1-7.2,6.3-10.9,9.3c-4.2,3.5-8.5,6.8-12.9,10.2c-4.9,3.7-9.8,7.3-14.9,10.7c-2.2,1.6-4.6,3-6.8,4.6
			c-0.5,0.4-0.9,0.3-1.4,0c-7.5-5.1-14.9-10.2-22-15.7c-3.4-2.6-6.8-5.3-10.1-8c-3.3-2.7-6.4-5.4-9.6-8.1c-2.1-1.8-4.1-3.7-6.1-5.5
			c-4.4-3.9-8.5-8.1-12.6-12.2c-3.3-3.4-6.5-6.9-9.5-10.5c-4.6-5.3-8.8-10.9-12.7-16.7c-3.3-4.9-6.1-10.1-8.6-15.5
			c-2.1-4.7-3.8-9.5-4.9-14.6c-0.5-2.1-0.7-4.2-0.9-6.3C1708.9,97.7,1709.1,95.8,1709,94.4"/>
		<path class="st0" d="M1777.6,92c3.4,0.1,6.9-0.2,10.3-0.6c4.5-0.5,8.9-1.4,13.3-2.5c3.7-1,7.3-2.2,10.8-3.7
			c1.6-0.7,3.3-1.4,5.1-2.2c-0.7,1.5-1.3,2.9-1.9,4.2c-2.1,4.5-3.9,9-5.6,13.7c-2.4,6.8-4.5,13.6-6.1,20.6
			c-0.9,3.6-1.7,7.2-2.2,10.8c-0.4,2.4-0.9,4.7-1.2,7.1c-0.3,2.1-0.4,4.1-0.7,6.2c-0.3,3-0.5,6.1-0.7,9.1c-0.3,4.8-0.2,9.6-0.1,14.3
			c0,3.2,0.3,6.3,0.4,9.5c0.1,3,0.3,5.9,0.4,8.9c0.1,2.2,0.4,4.4,0.4,6.6c0,0.6,0.4,1.3,0.1,2c-0.9-0.2-1.6-0.9-2.3-1.5
			c-4.1-3-8.2-6.1-12.2-9.2c-2.5-2-4.9-4-7.3-6.1c-3.4-2.8-6.7-5.7-10.1-8.6c-0.8-0.7-1.4-1.4-2.2-2c-1.4-1.2-2.8-2.6-4.1-3.9
			c-2.4-2.3-4.9-4.6-7.2-7c-2.8-2.9-5.6-5.9-8.3-8.9c-4-4.6-7.9-9.3-11.4-14.3c-3.8-5.3-7.1-10.9-9.9-16.8
			c-2.2-4.8-3.9-9.8-4.9-14.9c-0.8-3.9-0.7-7.9-0.6-11.8c0-0.6,0.2-1.2,0.4-1.8c0.5-0.1,0.9,0.1,1.3,0.2c6.7,2.1,13.6,3.3,20.6,4.1
			c4.5,0.5,9,0.8,13.5,0.8c7.1-0.1,14.1-0.6,21.1-2.3C1776.6,91.8,1777.1,91.6,1777.6,92"/>
		<path class="st0" d="M1777.6,92c-1.6,0.3-3.2,0.6-4.7,0.9c-2.6,0.5-5.1,0.8-7.7,1.1c-3.8,0.4-7.6,0.7-11.4,0.6
			c-4-0.1-8-0.3-12.1-0.8c-5.7-0.6-11.4-1.5-16.9-3c-1.8-0.5-3.6-0.8-5.2-1.6c0.6-4.8,1.9-9.4,3.9-13.8c1.6-3.7,3.8-7.1,6.3-10.2
			c2.6-3.2,5.6-5.9,8.9-8.4c5-3.7,10.6-5.8,16.6-7.2c3.3-0.8,6.7-1.2,10.2-1.3c7.4-0.3,14.4,1.2,21.1,3.9c2.7,1.1,5.3,2.5,8,3.7
			c3.7,1.7,7.4,2.9,11.4,3.5c3.1,0.4,6.3,0.4,9.4,0.3c0.8,0,1.7-0.2,2.7-0.1c-0.5,0.9-1.3,1.5-1.9,2.3c-4.3,4.9-8.7,9.6-13.5,14.1
			c-4.8,4.6-10,8.7-15.8,12C1784,89.6,1780.8,90.9,1777.6,92"/>
		<path class="st0" d="M1807,201c-0.1-0.1-0.2-0.2-0.3-0.3c-1.6-1.2-3.3-2.3-4.9-3.4c-0.4-0.3-0.5-0.6-0.3-1.1
			c1.5-4.9,2.9-9.8,4.3-14.7c2.4-8.4,5.5-16.5,8.8-24.6c1.5-3.7,3.2-7.3,4.9-10.9c1.6-3.3,3.2-6.6,4.9-9.8
			c3.2-5.8,6.5-11.5,10.4-16.8c2.4-3.2,4.9-6.4,7.5-9.4c0.6-0.6,0.7-0.6,1.1,0.2c2.7,7,5.7,13.9,8.9,20.6c2.6,5.5,5.5,10.9,8.4,16.2
			c1,1.9,2.1,3.7,3.2,5.5c0.2,0.3,0.2,0.6-0.1,0.9c-3.5,3.4-6.9,6.9-10.3,10.3c-2.3,2.3-4.8,4.5-7.2,6.6c-3.5,3.1-7.1,6.1-10.7,9.1
			c-4.3,3.6-8.7,7.1-13.2,10.4c-3.8,2.9-7.8,5.7-11.7,8.5c-1.1,0.8-2.2,1.5-3.3,2.3C1807.2,200.8,1807.1,200.9,1807,201"/>
		<path class="st0" d="M1880.5,132.7c-1.1-4.8-2.2-9.4-3.2-14c-0.9-4.1-1.6-8.2-2.4-12.3c-0.5-2.5-1.1-5-1.4-7.6
			c-0.3-2.6-0.9-5.2-1.1-7.9c-0.2-2.6-0.7-5.1-1-7.7c-0.2-1.9-0.3-3.8-0.4-5.7c-0.1-1.9-0.4-3.8-0.2-5.8c3.7,0.3,7.2,1.6,10.5,3.2
			c2.7,1.3,5.3,2.9,7.7,4.7c1.3,1,2.6,2,3.9,3c0.5,0.4,0.7,0.8,0.8,1.5c0.4,2.6,0.7,5.1,0.9,7.7c0.1,1.4,0.2,2.9,0.1,4.3
			c-0.1,3.9-0.7,7.8-1.8,11.6c-1.3,4.8-3.2,9.3-5.5,13.7c-1.9,3.7-4.1,7.2-6.3,10.6C1881,132.2,1880.8,132.4,1880.5,132.7"/>
	</g>
</g>
<g>
	<g>
		<path class="st1" d="M1440,93.4c-0.2-7,0.8-13.4,2.9-19.5c1.8-5.4,4.6-10.3,8.2-14.7c2.2-2.8,4.7-5.3,7.3-7.6
			c4.4-4.1,9.4-7.3,14.9-9.8c3.8-1.7,7.8-3,11.9-3.9c2.4-0.5,4.8-0.8,7.3-0.9c1.6-0.1,3.2-0.2,4.9-0.2c4.8,0,9.5,0.7,14.2,2
			c3.7,1,7.3,2.5,10.8,4c2.9,1.3,5.8,2.8,8.8,3.9c2.4,0.8,4.8,1.3,7.3,1.6c2.1,0.2,4.3,0.3,6.4,0.1c5.4-0.3,10.5-1.7,15.3-4.5
			c2.6-1.5,5.3-2.9,8.2-3.7c1.6-0.5,3.3-0.8,5-1c1-0.1,1.8-0.5,2.3-1.6c0.5-1.3,1-2.5,0.4-3.9c-0.4-1-0.7-1.6-2-1.9
			c-4.6-0.9-7.2-3.9-8.5-8.2c-0.7-2.4-0.8-4.9-0.6-7.4c0.2-3,1.4-5.6,3.3-7.9c1.7-2.2,3.8-3.7,6.4-4.6c3.7-1.2,7-0.6,10,1.8
			c2.6,2,4.3,4.6,5,7.8c0.8,3.4-0.2,6.4-2.2,9.2c-1.3,1.8-2.3,3.6-2.8,5.7c-0.8,3.5,0.2,6.4,2,9.3c0.4,0.6,0.9,1.2,1.3,1.8
			c0.5,0.8,1.3,1,2.1,1.1c4.4,0.7,8.7,1.9,12.9,3.5c5.1,1.9,9.8,4.5,14.1,7.8c2,1.5,3.9,3.1,5.5,4.9c2.8,3,5.2,6.3,7.1,9.8
			c2.3,4.3,3.9,8.8,4.9,13.5c0.6,2.7,0.9,5.4,1.2,8.2c0.2,2.8,0.1,5.7,0.1,8.5c0,3.3-0.6,6.6-1.3,9.9c-1.3,5.9-3.6,11.5-6.2,16.9
			c-1.6,3.3-3.4,6.4-5.4,9.5c-2.7,4.3-5.6,8.3-8.7,12.3c-1.6,2.2-3.5,4.2-5.2,6.3c-2.6,3.1-5.4,6.1-8.1,9c-2.9,3.2-6,6.2-9.1,9.2
			c-2.6,2.5-5.2,5-8,7.4c-3.6,3.1-7.2,6.3-10.9,9.3c-4.2,3.5-8.5,6.8-12.9,10.2c-4.9,3.7-9.8,7.3-14.9,10.7c-2.2,1.6-4.6,3-6.8,4.6
			c-0.5,0.4-0.9,0.3-1.4,0c-7.5-5.1-14.9-10.2-22-15.7c-3.4-2.6-6.8-5.3-10.1-8c-3.3-2.7-6.4-5.4-9.6-8.1c-2.1-1.8-4.1-3.7-6.1-5.5
			c-4.4-3.9-8.5-8.1-12.6-12.2c-3.3-3.4-6.5-6.9-9.5-10.5c-4.6-5.3-8.8-10.9-12.7-16.7c-3.3-4.9-6.1-10.1-8.6-15.5
			c-2.1-4.7-3.8-9.5-4.9-14.6c-0.5-2.1-0.7-4.2-0.9-6.3C1439.9,96.7,1440.1,94.8,1440,93.4"/>
		<path class="st0" d="M1508.6,91c3.4,0.1,6.9-0.2,10.3-0.6c4.5-0.5,8.9-1.4,13.3-2.5c3.7-1,7.3-2.2,10.8-3.7
			c1.6-0.7,3.3-1.4,5.1-2.2c-0.7,1.5-1.3,2.9-1.9,4.2c-2.1,4.5-3.9,9-5.6,13.7c-2.4,6.8-4.5,13.6-6.1,20.6
			c-0.9,3.6-1.7,7.2-2.2,10.8c-0.4,2.4-0.9,4.7-1.2,7.1c-0.3,2.1-0.4,4.1-0.7,6.2c-0.3,3-0.5,6.1-0.7,9.1c-0.3,4.8-0.2,9.6-0.1,14.3
			c0,3.2,0.3,6.3,0.4,9.5c0.1,3,0.3,5.9,0.4,8.9c0.1,2.2,0.4,4.4,0.4,6.6c0,0.6,0.4,1.3,0.1,2c-0.9-0.2-1.6-0.9-2.3-1.5
			c-4.1-3-8.2-6.1-12.2-9.2c-2.5-2-4.9-4-7.3-6.1c-3.4-2.8-6.7-5.7-10.1-8.6c-0.8-0.7-1.4-1.4-2.2-2c-1.4-1.2-2.8-2.6-4.1-3.9
			c-2.4-2.3-4.9-4.6-7.2-7c-2.8-2.9-5.6-5.9-8.3-8.9c-4-4.6-7.9-9.3-11.4-14.3c-3.8-5.3-7.1-10.9-9.9-16.8
			c-2.2-4.8-3.9-9.8-4.9-14.9c-0.8-3.9-0.7-7.9-0.6-11.8c0-0.6,0.2-1.2,0.4-1.8c0.5-0.1,0.9,0.1,1.3,0.2c6.7,2.1,13.6,3.3,20.6,4.1
			c4.5,0.5,9,0.8,13.5,0.8c7.1-0.1,14.1-0.6,21.1-2.3C1507.6,90.8,1508.1,90.6,1508.6,91"/>
		<path class="st0" d="M1508.6,91c-1.6,0.3-3.2,0.6-4.7,0.9c-2.6,0.5-5.1,0.8-7.7,1.1c-3.8,0.4-7.6,0.7-11.4,0.6
			c-4-0.1-8-0.3-12.1-0.8c-5.7-0.6-11.4-1.5-16.9-3c-1.8-0.5-3.6-0.8-5.2-1.6c0.6-4.8,1.9-9.4,3.9-13.8c1.6-3.7,3.8-7.1,6.3-10.2
			c2.6-3.2,5.6-5.9,8.9-8.4c5-3.7,10.6-5.8,16.6-7.2c3.3-0.8,6.7-1.2,10.2-1.3c7.4-0.3,14.4,1.2,21.1,3.9c2.7,1.1,5.3,2.5,8,3.7
			c3.7,1.7,7.4,2.9,11.4,3.5c3.1,0.4,6.3,0.4,9.4,0.3c0.8,0,1.7-0.2,2.7-0.1c-0.5,0.9-1.3,1.5-1.9,2.3c-4.3,4.9-8.7,9.6-13.5,14.1
			c-4.8,4.6-10,8.7-15.8,12C1515,88.6,1511.8,89.9,1508.6,91"/>
		<path class="st0" d="M1538,200c-0.1-0.1-0.2-0.2-0.3-0.3c-1.6-1.2-3.3-2.3-4.9-3.4c-0.4-0.3-0.5-0.6-0.3-1.1
			c1.5-4.9,2.9-9.8,4.3-14.7c2.4-8.4,5.5-16.5,8.8-24.6c1.5-3.7,3.2-7.3,4.9-10.9c1.6-3.3,3.2-6.6,4.9-9.8
			c3.2-5.8,6.5-11.5,10.4-16.8c2.4-3.2,4.9-6.4,7.5-9.4c0.6-0.6,0.7-0.6,1.1,0.2c2.7,7,5.7,13.9,8.9,20.6c2.6,5.5,5.5,10.9,8.4,16.2
			c1,1.9,2.1,3.7,3.2,5.5c0.2,0.3,0.2,0.6-0.1,0.9c-3.5,3.4-6.9,6.9-10.3,10.3c-2.3,2.3-4.8,4.5-7.2,6.6c-3.5,3.1-7.1,6.1-10.7,9.1
			c-4.3,3.6-8.7,7.1-13.2,10.4c-3.8,2.9-7.8,5.7-11.7,8.5c-1.1,0.8-2.2,1.5-3.3,2.3C1538.2,199.8,1538.1,199.9,1538,200"/>
		<path class="st0" d="M1611.5,131.7c-1.1-4.8-2.2-9.4-3.2-14c-0.9-4.1-1.6-8.2-2.4-12.3c-0.5-2.5-1.1-5-1.4-7.6
			c-0.3-2.6-0.9-5.2-1.1-7.9c-0.2-2.6-0.7-5.1-1-7.7c-0.2-1.9-0.3-3.8-0.4-5.7c-0.1-1.9-0.4-3.8-0.2-5.8c3.7,0.3,7.2,1.6,10.5,3.2
			c2.7,1.3,5.3,2.9,7.7,4.7c1.3,1,2.6,2,3.9,3c0.5,0.4,0.7,0.8,0.8,1.5c0.4,2.6,0.7,5.1,0.9,7.7c0.1,1.4,0.2,2.9,0.1,4.3
			c-0.1,3.9-0.7,7.8-1.8,11.6c-1.3,4.8-3.2,9.3-5.5,13.7c-1.9,3.7-4.1,7.2-6.3,10.6C1612,131.2,1611.8,131.4,1611.5,131.7"/>
	</g>
</g>
<g>
	<g>
		<path class="st1" d="M1602.7,419.3c-0.3-13.5,1.6-25.7,5.6-37.4c3.5-10.4,8.8-19.8,15.7-28.3c4.3-5.3,9.1-10.1,14-14.7
			c8.5-7.8,18.1-14,28.7-18.8c7.4-3.3,15-5.8,22.9-7.4c4.6-1,9.3-1.5,14-1.8c3.1-0.2,6.2-0.3,9.3-0.3c9.3,0.1,18.3,1.4,27.3,3.8
			c7.2,1.9,14,4.7,20.7,7.8c5.6,2.5,11.1,5.5,17,7.4c4.5,1.5,9.2,2.6,14,3.1c4.1,0.4,8.2,0.5,12.3,0.3c10.4-0.6,20.3-3.3,29.4-8.6
			c5-2.9,10.2-5.5,15.8-7.1c3.1-0.9,6.3-1.6,9.5-1.9c1.9-0.2,3.5-0.9,4.3-3c1-2.5,1.8-4.9,0.8-7.6c-0.7-1.9-1.3-3.1-3.8-3.6
			c-8.8-1.7-13.9-7.5-16.3-15.8c-1.3-4.7-1.5-9.5-1.2-14.3c0.4-5.7,2.7-10.7,6.3-15.2c3.3-4.1,7.3-7.1,12.3-8.8
			c7.1-2.3,13.4-1.1,19.3,3.4c5,3.8,8.2,8.8,9.6,14.9c1.5,6.5-0.3,12.3-4.1,17.6c-2.4,3.4-4.4,6.9-5.4,11
			c-1.5,6.6,0.5,12.3,3.9,17.8c0.8,1.2,1.8,2.2,2.6,3.4c1,1.5,2.5,1.9,4,2.1c8.5,1.3,16.8,3.6,24.8,6.7c9.7,3.7,18.8,8.6,27,15
			c3.8,2.9,7.4,5.9,10.6,9.4c5.3,5.8,9.9,12,13.7,18.9c4.5,8.2,7.5,17,9.5,26c1.1,5.1,1.8,10.4,2.2,15.7c0.5,5.5,0.2,10.9,0.3,16.3
			c0,6.4-1.2,12.7-2.5,19c-2.5,11.4-6.8,22.1-11.9,32.5c-3.1,6.2-6.6,12.3-10.3,18.2c-5.1,8.2-10.8,16-16.6,23.7
			c-3.2,4.2-6.6,8.1-10,12.1c-5,6-10.3,11.6-15.6,17.4c-5.6,6.1-11.5,11.8-17.4,17.6c-4.9,4.9-10.1,9.5-15.3,14.1
			c-6.9,6-13.8,12-21,17.9c-8.1,6.7-16.4,13.1-24.7,19.5c-9.3,7.1-18.9,14-28.5,20.6c-4.3,3-8.8,5.8-13,8.9c-1,0.7-1.7,0.6-2.7,0
			c-14.3-9.7-28.6-19.6-42.2-30.2c-6.5-5.1-13.1-10.2-19.5-15.4c-6.2-5.1-12.4-10.3-18.4-15.6c-4-3.5-7.8-7.1-11.8-10.6
			c-8.4-7.5-16.3-15.5-24.2-23.5c-6.4-6.5-12.4-13.3-18.3-20.2c-8.8-10.2-16.9-20.9-24.4-32.2c-6.3-9.5-11.8-19.4-16.5-29.8
			c-4.1-9-7.2-18.3-9.4-28c-0.9-4-1.4-8.1-1.8-12.2C1602.6,425.5,1602.9,421.9,1602.7,419.3"/>
		<path class="st0" d="M1734.5,414.7c6.6,0.2,13.2-0.3,19.8-1.1c8.6-1,17.1-2.7,25.5-4.9c7.1-1.9,14-4.2,20.7-7.2
			c3.1-1.4,6.3-2.7,9.7-4.2c-1.3,2.9-2.5,5.5-3.7,8.1c-4,8.6-7.5,17.4-10.7,26.3c-4.7,13-8.6,26.2-11.8,39.6
			c-1.7,6.9-3.2,13.8-4.2,20.8c-0.7,4.6-1.7,9.1-2.3,13.7c-0.6,4-0.8,8-1.3,11.9c-0.6,5.8-0.9,11.7-1.3,17.6
			c-0.6,9.2-0.3,18.4-0.2,27.6c0.1,6.1,0.5,12.2,0.8,18.3c0.2,5.7,0.6,11.4,0.8,17.1c0.2,4.2,0.7,8.4,0.8,12.6
			c0,1.2,0.7,2.4,0.2,3.9c-1.8-0.4-3.1-1.8-4.4-2.8c-7.8-5.9-15.7-11.7-23.4-17.8c-4.8-3.8-9.4-7.7-14.1-11.7
			c-6.5-5.5-12.9-11-19.3-16.5c-1.4-1.2-2.8-2.6-4.2-3.9c-2.8-2.4-5.3-5-8-7.5c-4.6-4.5-9.4-8.9-13.9-13.5
			c-5.4-5.6-10.8-11.3-16-17.2c-7.8-8.8-15.1-17.9-21.9-27.5c-7.3-10.2-13.7-20.9-19-32.2c-4.3-9.2-7.5-18.8-9.5-28.7
			c-1.5-7.5-1.4-15.1-1.2-22.8c0-1.2,0.5-2.4,0.7-3.5c0.9-0.2,1.7,0.1,2.5,0.4c12.9,4,26.2,6.4,39.6,7.9c8.6,1,17.3,1.6,25.9,1.5
			c13.6-0.1,27.2-1.2,40.5-4.3C1732.6,414.3,1733.6,414,1734.5,414.7"/>
		<path class="st0" d="M1734.5,414.7c-3,0.6-6.1,1.1-9.1,1.7c-4.9,0.9-9.9,1.5-14.8,2c-7.3,0.7-14.5,1.3-21.8,1.1
			c-7.7-0.2-15.4-0.6-23.2-1.4c-11-1.2-21.8-3-32.5-5.7c-3.4-0.9-6.9-1.6-10-3.2c1.2-9.2,3.7-18,7.5-26.5
			c3.2-7.1,7.3-13.6,12.1-19.5c4.9-6.1,10.8-11.4,17.1-16.1c9.6-7.1,20.5-11.1,31.8-13.9c6.4-1.5,12.9-2.3,19.6-2.6
			c14.2-0.6,27.6,2.3,40.6,7.5c5.3,2.1,10.3,4.8,15.4,7.1c7,3.2,14.2,5.6,21.9,6.7c6,0.9,12,0.7,18,0.7c1.6,0,3.3-0.4,5.2-0.2
			c-1.1,1.7-2.5,3-3.7,4.3c-8.2,9.4-16.8,18.5-25.8,27.1c-9.2,8.8-19.2,16.7-30.3,23C1746.8,410,1740.8,412.6,1734.5,414.7"/>
		<path class="st0" d="M1791,624c-0.2-0.2-0.4-0.4-0.6-0.5c-3.1-2.2-6.3-4.4-9.4-6.6c-0.7-0.5-0.9-1.2-0.7-2.1
			c2.8-9.4,5.6-18.9,8.3-28.3c4.6-16.1,10.6-31.8,16.9-47.3c2.9-7.1,6.1-14,9.4-20.9c3-6.4,6.1-12.6,9.5-18.8
			c6.1-11.1,12.5-22,20-32.2c4.6-6.2,9.3-12.3,14.5-18.1c1.1-1.2,1.4-1.1,2,0.4c5.1,13.4,10.9,26.6,17.1,39.6
			c5.1,10.5,10.5,20.9,16.2,31.1c2,3.6,3.9,7.2,6.1,10.6c0.4,0.6,0.4,1.1-0.2,1.7c-6.6,6.6-13.2,13.3-19.9,19.8
			c-4.5,4.4-9.2,8.6-13.9,12.7c-6.8,5.9-13.6,11.8-20.6,17.5c-8.4,6.8-16.8,13.6-25.4,20.1c-7.4,5.6-14.9,10.9-22.4,16.4
			c-2.1,1.5-4.3,3-6.4,4.5C1791.4,623.6,1791.3,623.8,1791,624"/>
		<path class="st0" d="M1932.2,492.7c-2.1-9.2-4.2-18-6.1-26.9c-1.7-7.8-3-15.7-4.5-23.6c-0.9-4.9-2-9.7-2.7-14.6
			c-0.7-5.1-1.7-10.1-2.2-15.1c-0.5-4.9-1.4-9.8-1.9-14.8c-0.4-3.7-0.6-7.4-0.8-11c-0.2-3.7-0.8-7.4-0.3-11.1
			c7.2,0.6,13.8,3,20.2,6.1c5.2,2.5,10.2,5.5,14.8,9.1c2.5,1.9,5,3.8,7.4,5.8c0.9,0.7,1.4,1.6,1.6,2.8c0.8,4.9,1.4,9.9,1.7,14.9
			c0.2,2.8,0.3,5.6,0.3,8.3c-0.2,7.5-1.3,15-3.4,22.2c-2.6,9.2-6.2,17.9-10.6,26.3c-3.7,7.1-7.9,13.8-12.2,20.4
			C1933.2,492,1932.8,492.2,1932.2,492.7"/>
	</g>
</g>
<g>
	<g>
		<path class="st1" d="M1354,1067.4c-0.4-15.4,1.8-29.3,6.4-42.8c4-11.8,10-22.6,17.9-32.3c4.9-6,10.3-11.5,16-16.7
			c9.7-8.9,20.7-16,32.7-21.5c8.4-3.8,17.2-6.6,26.2-8.5c5.2-1.1,10.6-1.7,16-2c3.6-0.2,7.1-0.4,10.6-0.3
			c10.6,0.1,20.9,1.6,31.1,4.3c8.2,2.2,16,5.4,23.7,8.9c6.4,2.9,12.7,6.2,19.4,8.5c5.2,1.7,10.5,2.9,16,3.5
			c4.7,0.5,9.4,0.6,14.1,0.3c11.9-0.7,23.1-3.8,33.5-9.8c5.7-3.3,11.7-6.3,18.1-8.1c3.6-1,7.2-1.8,10.9-2.2c2.2-0.2,4-1,5-3.4
			c1.2-2.9,2.1-5.6,0.9-8.6c-0.8-2.1-1.5-3.6-4.3-4.1c-10-1.9-15.9-8.5-18.6-18.1c-1.5-5.3-1.7-10.8-1.4-16.3
			c0.4-6.5,3.1-12.2,7.2-17.3c3.8-4.7,8.3-8.1,14.1-10c8.1-2.7,15.3-1.2,22,3.9c5.7,4.3,9.3,10.1,11,17c1.7,7.4-0.4,14.1-4.7,20.1
			c-2.8,3.9-5.1,7.8-6.1,12.6c-1.7,7.6,0.5,14.1,4.5,20.3c0.9,1.4,2,2.6,2.9,3.9c1.1,1.7,2.8,2.2,4.6,2.4c9.7,1.4,19.1,4.1,28.3,7.6
			c11.1,4.2,21.4,9.8,30.8,17.1c4.3,3.3,8.5,6.8,12.1,10.8c6,6.6,11.3,13.7,15.6,21.6c5.1,9.4,8.5,19.4,10.8,29.7
			c1.3,5.9,2,11.9,2.5,17.9c0.5,6.2,0.3,12.4,0.3,18.7c0,7.3-1.3,14.5-2.9,21.7c-2.8,13-7.8,25.3-13.6,37.2
			c-3.5,7.1-7.5,14-11.8,20.8c-5.9,9.3-12.3,18.3-19,27.1c-3.6,4.8-7.6,9.2-11.4,13.8c-5.7,6.8-11.8,13.3-17.9,19.8
			c-6.4,6.9-13.2,13.5-19.9,20.1c-5.6,5.6-11.5,10.9-17.5,16.1c-7.9,6.9-15.8,13.7-23.9,20.4c-9.3,7.6-18.7,15-28.2,22.3
			c-10.7,8.1-21.5,15.9-32.6,23.6c-4.9,3.4-10,6.6-14.8,10.1c-1.2,0.8-2,0.7-3.1,0c-16.4-11.1-32.6-22.4-48.2-34.5
			c-7.5-5.8-14.9-11.6-22.2-17.6c-7.1-5.8-14.1-11.8-21.1-17.9c-4.5-4-9-8.1-13.5-12.1c-9.6-8.5-18.6-17.7-27.6-26.8
			c-7.3-7.4-14.2-15.2-20.9-23.1c-10-11.7-19.3-23.9-27.9-36.7c-7.2-10.8-13.5-22.2-18.9-34c-4.7-10.2-8.3-20.9-10.7-31.9
			c-1-4.6-1.6-9.2-2.1-13.9C1353.9,1074.5,1354.2,1070.4,1354,1067.4"/>
		<path class="st0" d="M1504.5,1062.1c7.6,0.3,15.1-0.3,22.6-1.2c9.9-1.1,19.5-3.1,29.1-5.6c8.1-2.1,16-4.8,23.7-8.2
			c3.6-1.6,7.2-3.1,11.1-4.9c-1.5,3.3-2.8,6.3-4.2,9.2c-4.6,9.8-8.5,19.8-12.2,30c-5.4,14.8-9.8,29.9-13.5,45.3
			c-1.9,7.9-3.6,15.8-4.8,23.8c-0.8,5.2-1.9,10.4-2.7,15.6c-0.6,4.5-0.9,9.1-1.4,13.6c-0.7,6.7-1,13.4-1.5,20
			c-0.7,10.5-0.4,21-0.3,31.5c0.1,6.9,0.6,13.9,0.9,20.8c0.3,6.5,0.7,13,0.9,19.5c0.2,4.8,0.8,9.6,0.9,14.4c0,1.4,0.8,2.8,0.3,4.4
			c-2-0.5-3.5-2-5.1-3.2c-9-6.7-17.9-13.4-26.7-20.3c-5.5-4.3-10.8-8.8-16.1-13.3c-7.4-6.3-14.7-12.6-22.1-18.9
			c-1.7-1.4-3.2-3-4.8-4.4c-3.2-2.7-6.1-5.7-9.1-8.6c-5.3-5.1-10.7-10.1-15.8-15.4c-6.2-6.4-12.3-12.9-18.2-19.6
			c-8.9-10-17.3-20.4-25-31.3c-8.3-11.6-15.6-23.8-21.7-36.8c-4.9-10.5-8.6-21.4-10.8-32.8c-1.7-8.6-1.6-17.3-1.4-26
			c0-1.4,0.5-2.7,0.8-4.1c1-0.2,2,0.2,2.9,0.5c14.8,4.6,29.9,7.3,45.2,9c9.8,1.1,19.7,1.8,29.6,1.7c15.5-0.2,31-1.4,46.3-4.9
			C1502.3,1061.8,1503.4,1061.3,1504.5,1062.1"/>
		<path class="st0" d="M1504.5,1062.1c-3.5,0.6-6.9,1.3-10.4,1.9c-5.6,1.1-11.3,1.8-16.9,2.3c-8.3,0.8-16.6,1.5-24.9,1.2
			c-8.8-0.3-17.6-0.7-26.4-1.7c-12.5-1.4-24.9-3.4-37.1-6.5c-3.9-1-7.8-1.8-11.5-3.6c1.4-10.5,4.2-20.6,8.5-30.3
			c3.6-8.1,8.3-15.5,13.8-22.3c5.6-7,12.3-13,19.5-18.3c10.9-8.1,23.4-12.7,36.3-15.9c7.3-1.8,14.8-2.6,22.4-3
			c16.2-0.7,31.5,2.6,46.4,8.6c6,2.4,11.7,5.5,17.6,8.2c8,3.6,16.2,6.4,25,7.7c6.9,1,13.7,0.8,20.6,0.8c1.8,0,3.7-0.5,6-0.3
			c-1.2,2-2.9,3.4-4.2,4.9c-9.3,10.8-19.2,21.1-29.5,30.9c-10.5,10-21.9,19-34.6,26.3C1518.6,1056.8,1511.7,1059.8,1504.5,1062.1"/>
		<path class="st0" d="M1730.3,1151.3c-2.4-10.5-4.8-20.6-7-30.7c-1.9-8.9-3.5-17.9-5.2-26.9c-1.1-5.5-2.3-11.1-3.1-16.7
			c-0.8-5.8-1.9-11.5-2.5-17.3c-0.5-5.6-1.6-11.2-2.2-16.9c-0.5-4.2-0.7-8.4-0.9-12.6c-0.2-4.2-0.9-8.4-0.3-12.7
			c8.2,0.7,15.8,3.4,23.1,6.9c6,2.9,11.6,6.3,16.9,10.4c2.8,2.2,5.7,4.4,8.5,6.6c1,0.8,1.6,1.8,1.8,3.2c0.9,5.6,1.6,11.3,1.9,17
			c0.2,3.2,0.4,6.4,0.3,9.5c-0.3,8.6-1.5,17.1-3.9,25.4c-2.9,10.5-7.1,20.4-12.1,30.1c-4.2,8.1-9,15.7-13.9,23.3
			C1731.4,1150.4,1730.9,1150.7,1730.3,1151.3"/>
	</g>
</g>
<g>
	<g>
		<path class="st1" d="M1428,792.4c-0.2-7,0.8-13.4,2.9-19.5c1.8-5.4,4.6-10.3,8.2-14.7c2.2-2.8,4.7-5.3,7.3-7.6
			c4.4-4.1,9.4-7.3,14.9-9.8c3.8-1.7,7.8-3,11.9-3.9c2.4-0.5,4.8-0.8,7.3-0.9c1.6-0.1,3.2-0.2,4.9-0.2c4.8,0,9.5,0.7,14.2,2
			c3.7,1,7.3,2.5,10.8,4c2.9,1.3,5.8,2.8,8.8,3.9c2.4,0.8,4.8,1.3,7.3,1.6c2.1,0.2,4.3,0.3,6.4,0.1c5.4-0.3,10.5-1.7,15.3-4.5
			c2.6-1.5,5.3-2.9,8.2-3.7c1.6-0.5,3.3-0.8,5-1c1-0.1,1.8-0.5,2.3-1.6c0.5-1.3,1-2.5,0.4-3.9c-0.4-1-0.7-1.6-2-1.9
			c-4.6-0.9-7.2-3.9-8.5-8.2c-0.7-2.4-0.8-4.9-0.6-7.4c0.2-3,1.4-5.6,3.3-7.9c1.7-2.2,3.8-3.7,6.4-4.6c3.7-1.2,7-0.6,10,1.8
			c2.6,2,4.3,4.6,5,7.8c0.8,3.4-0.2,6.4-2.2,9.2c-1.3,1.8-2.3,3.6-2.8,5.7c-0.8,3.5,0.2,6.4,2,9.3c0.4,0.6,0.9,1.2,1.3,1.8
			c0.5,0.8,1.3,1,2.1,1.1c4.4,0.7,8.7,1.9,12.9,3.5c5.1,1.9,9.8,4.5,14.1,7.8c2,1.5,3.9,3.1,5.5,4.9c2.8,3,5.2,6.3,7.1,9.8
			c2.3,4.3,3.9,8.8,4.9,13.5c0.6,2.7,0.9,5.4,1.2,8.2c0.2,2.8,0.1,5.7,0.1,8.5c0,3.3-0.6,6.6-1.3,9.9c-1.3,5.9-3.6,11.5-6.2,16.9
			c-1.6,3.3-3.4,6.4-5.4,9.5c-2.7,4.3-5.6,8.3-8.7,12.3c-1.6,2.2-3.5,4.2-5.2,6.3c-2.6,3.1-5.4,6.1-8.1,9c-2.9,3.2-6,6.2-9.1,9.2
			c-2.6,2.5-5.2,5-8,7.4c-3.6,3.1-7.2,6.3-10.9,9.3c-4.2,3.5-8.5,6.8-12.9,10.2c-4.9,3.7-9.8,7.3-14.9,10.7c-2.2,1.6-4.6,3-6.8,4.6
			c-0.5,0.4-0.9,0.3-1.4,0c-7.5-5.1-14.9-10.2-22-15.7c-3.4-2.6-6.8-5.3-10.1-8c-3.3-2.7-6.4-5.4-9.6-8.1c-2.1-1.8-4.1-3.7-6.1-5.5
			c-4.4-3.9-8.5-8.1-12.6-12.2c-3.3-3.4-6.5-6.9-9.5-10.5c-4.6-5.3-8.8-10.9-12.7-16.7c-3.3-4.9-6.1-10.1-8.6-15.5
			c-2.1-4.7-3.8-9.5-4.9-14.6c-0.5-2.1-0.7-4.2-0.9-6.3C1427.9,795.7,1428.1,793.8,1428,792.4"/>
		<path class="st0" d="M1496.6,790c3.4,0.1,6.9-0.2,10.3-0.6c4.5-0.5,8.9-1.4,13.3-2.5c3.7-1,7.3-2.2,10.8-3.7
			c1.6-0.7,3.3-1.4,5.1-2.2c-0.7,1.5-1.3,2.9-1.9,4.2c-2.1,4.5-3.9,9-5.6,13.7c-2.4,6.8-4.5,13.6-6.1,20.6
			c-0.9,3.6-1.7,7.2-2.2,10.8c-0.4,2.4-0.9,4.7-1.2,7.1c-0.3,2.1-0.4,4.1-0.7,6.2c-0.3,3-0.5,6.1-0.7,9.1c-0.3,4.8-0.2,9.6-0.1,14.3
			c0,3.2,0.3,6.3,0.4,9.5c0.1,3,0.3,5.9,0.4,8.9c0.1,2.2,0.4,4.4,0.4,6.6c0,0.6,0.4,1.3,0.1,2c-0.9-0.2-1.6-0.9-2.3-1.5
			c-4.1-3-8.2-6.1-12.2-9.2c-2.5-2-4.9-4-7.3-6.1c-3.4-2.8-6.7-5.7-10.1-8.6c-0.8-0.7-1.4-1.4-2.2-2c-1.4-1.2-2.8-2.6-4.1-3.9
			c-2.4-2.3-4.9-4.6-7.2-7c-2.8-2.9-5.6-5.9-8.3-8.9c-4-4.6-7.9-9.3-11.4-14.3c-3.8-5.3-7.1-10.9-9.9-16.8
			c-2.2-4.8-3.9-9.8-4.9-14.9c-0.8-3.9-0.7-7.9-0.6-11.8c0-0.6,0.2-1.2,0.4-1.8c0.5-0.1,0.9,0.1,1.3,0.2c6.7,2.1,13.6,3.3,20.6,4.1
			c4.5,0.5,9,0.8,13.5,0.8c7.1-0.1,14.1-0.6,21.1-2.3C1495.6,789.8,1496.1,789.6,1496.6,790"/>
		<path class="st0" d="M1496.6,790c-1.6,0.3-3.2,0.6-4.7,0.9c-2.6,0.5-5.1,0.8-7.7,1.1c-3.8,0.4-7.6,0.7-11.4,0.6
			c-4-0.1-8-0.3-12.1-0.8c-5.7-0.6-11.4-1.5-16.9-3c-1.8-0.5-3.6-0.8-5.2-1.6c0.6-4.8,1.9-9.4,3.9-13.8c1.6-3.7,3.8-7.1,6.3-10.2
			c2.6-3.2,5.6-5.9,8.9-8.4c5-3.7,10.6-5.8,16.6-7.2c3.3-0.8,6.7-1.2,10.2-1.3c7.4-0.3,14.4,1.2,21.1,3.9c2.7,1.1,5.3,2.5,8,3.7
			c3.7,1.7,7.4,2.9,11.4,3.5c3.1,0.4,6.3,0.4,9.4,0.3c0.8,0,1.7-0.2,2.7-0.1c-0.5,0.9-1.3,1.5-1.9,2.3c-4.3,4.9-8.7,9.6-13.5,14.1
			c-4.8,4.6-10,8.7-15.8,12C1503,787.6,1499.8,788.9,1496.6,790"/>
		<path class="st0" d="M1526,899c-0.1-0.1-0.2-0.2-0.3-0.3c-1.6-1.2-3.3-2.3-4.9-3.4c-0.4-0.3-0.5-0.6-0.3-1.1
			c1.5-4.9,2.9-9.8,4.3-14.7c2.4-8.4,5.5-16.5,8.8-24.6c1.5-3.7,3.2-7.3,4.9-10.9c1.6-3.3,3.2-6.6,4.9-9.8
			c3.2-5.8,6.5-11.5,10.4-16.8c2.4-3.2,4.9-6.4,7.5-9.4c0.6-0.6,0.7-0.6,1.1,0.2c2.7,7,5.7,13.9,8.9,20.6c2.6,5.5,5.5,10.9,8.4,16.2
			c1,1.9,2.1,3.7,3.2,5.5c0.2,0.3,0.2,0.6-0.1,0.9c-3.5,3.4-6.9,6.9-10.3,10.3c-2.3,2.3-4.8,4.5-7.2,6.6c-3.5,3.1-7.1,6.1-10.7,9.1
			c-4.3,3.6-8.7,7.1-13.2,10.4c-3.8,2.9-7.8,5.7-11.7,8.5c-1.1,0.8-2.2,1.5-3.3,2.3C1526.2,898.8,1526.1,898.9,1526,899"/>
		<path class="st0" d="M1599.5,830.7c-1.1-4.8-2.2-9.4-3.2-14c-0.9-4.1-1.6-8.2-2.4-12.3c-0.5-2.5-1.1-5-1.4-7.6
			c-0.3-2.6-0.9-5.2-1.1-7.9c-0.2-2.6-0.7-5.1-1-7.7c-0.2-1.9-0.3-3.8-0.4-5.7c-0.1-1.9-0.4-3.8-0.2-5.8c3.7,0.3,7.2,1.6,10.5,3.2
			c2.7,1.3,5.3,2.9,7.7,4.7c1.3,1,2.6,2,3.9,3c0.5,0.4,0.7,0.8,0.8,1.5c0.4,2.6,0.7,5.1,0.9,7.7c0.1,1.4,0.2,2.9,0.1,4.3
			c-0.1,3.9-0.7,7.8-1.8,11.6c-1.3,4.8-3.2,9.3-5.5,13.7c-1.9,3.7-4.1,7.2-6.3,10.6C1600,830.2,1599.8,830.4,1599.5,830.7"/>
	</g>
</g>
<g>
	<g>
		<path class="st1" d="M-26,505.4c-0.2-7,0.8-13.4,2.9-19.5c1.8-5.4,4.6-10.3,8.2-14.7c2.2-2.8,4.7-5.3,7.3-7.6
			c4.4-4.1,9.4-7.3,14.9-9.8c3.8-1.7,7.8-3,11.9-3.9c2.4-0.5,4.8-0.8,7.3-0.9c1.6-0.1,3.2-0.2,4.9-0.2c4.8,0,9.5,0.7,14.2,2
			c3.7,1,7.3,2.5,10.8,4c2.9,1.3,5.8,2.8,8.8,3.9c2.4,0.8,4.8,1.3,7.3,1.6c2.1,0.2,4.3,0.3,6.4,0.1c5.4-0.3,10.5-1.7,15.3-4.5
			c2.6-1.5,5.3-2.9,8.2-3.7c1.6-0.5,3.3-0.8,5-1c1-0.1,1.8-0.5,2.3-1.6c0.5-1.3,1-2.5,0.4-3.9c-0.4-1-0.7-1.6-2-1.9
			c-4.6-0.9-7.2-3.9-8.5-8.2c-0.7-2.4-0.8-4.9-0.6-7.4c0.2-3,1.4-5.6,3.3-7.9c1.7-2.2,3.8-3.7,6.4-4.6c3.7-1.2,7-0.6,10,1.8
			c2.6,2,4.3,4.6,5,7.8c0.8,3.4-0.2,6.4-2.2,9.2c-1.3,1.8-2.3,3.6-2.8,5.7c-0.8,3.5,0.2,6.4,2,9.3c0.4,0.6,0.9,1.2,1.3,1.8
			c0.5,0.8,1.3,1,2.1,1.1c4.4,0.7,8.7,1.9,12.9,3.5c5.1,1.9,9.8,4.5,14.1,7.8c2,1.5,3.9,3.1,5.5,4.9c2.8,3,5.2,6.3,7.1,9.8
			c2.3,4.3,3.9,8.8,4.9,13.5c0.6,2.7,0.9,5.4,1.2,8.2c0.2,2.8,0.1,5.7,0.1,8.5c0,3.3-0.6,6.6-1.3,9.9c-1.3,5.9-3.6,11.5-6.2,16.9
			c-1.6,3.3-3.4,6.4-5.4,9.5c-2.7,4.3-5.6,8.3-8.7,12.3c-1.6,2.2-3.5,4.2-5.2,6.3c-2.6,3.1-5.4,6.1-8.1,9c-2.9,3.2-6,6.2-9.1,9.2
			c-2.6,2.5-5.2,5-8,7.4c-3.6,3.1-7.2,6.3-10.9,9.3c-4.2,3.5-8.5,6.8-12.9,10.2c-4.9,3.7-9.8,7.3-14.9,10.7c-2.2,1.6-4.6,3-6.8,4.6
			c-0.5,0.4-0.9,0.3-1.4,0c-7.5-5.1-14.9-10.2-22-15.7c-3.4-2.6-6.8-5.3-10.1-8c-3.3-2.7-6.4-5.4-9.6-8.1c-2.1-1.8-4.1-3.7-6.1-5.5
			c-4.4-3.9-8.5-8.1-12.6-12.2c-3.3-3.4-6.5-6.9-9.5-10.5c-4.6-5.3-8.8-10.9-12.7-16.7c-3.3-4.9-6.1-10.1-8.6-15.5
			c-2.1-4.7-3.8-9.5-4.9-14.6c-0.5-2.1-0.7-4.2-0.9-6.3C-26.1,508.7-25.9,506.8-26,505.4"/>
		<path class="st0" d="M42.6,503c3.4,0.1,6.9-0.2,10.3-0.6c4.5-0.5,8.9-1.4,13.3-2.5c3.7-1,7.3-2.2,10.8-3.7
			c1.6-0.7,3.3-1.4,5.1-2.2c-0.7,1.5-1.3,2.9-1.9,4.2c-2.1,4.5-3.9,9-5.6,13.7c-2.4,6.8-4.5,13.6-6.1,20.6
			c-0.9,3.6-1.7,7.2-2.2,10.8c-0.4,2.4-0.9,4.7-1.2,7.1c-0.3,2.1-0.4,4.1-0.7,6.2c-0.3,3-0.5,6.1-0.7,9.1c-0.3,4.8-0.2,9.6-0.1,14.3
			c0,3.2,0.3,6.3,0.4,9.5c0.1,3,0.3,5.9,0.4,8.9c0.1,2.2,0.4,4.4,0.4,6.6c0,0.6,0.4,1.3,0.1,2c-0.9-0.2-1.6-0.9-2.3-1.5
			c-4.1-3-8.2-6.1-12.2-9.2c-2.5-2-4.9-4-7.3-6.1c-3.4-2.8-6.7-5.7-10.1-8.6c-0.8-0.7-1.4-1.4-2.2-2c-1.4-1.2-2.8-2.6-4.1-3.9
			c-2.4-2.3-4.9-4.6-7.2-7c-2.8-2.9-5.6-5.9-8.3-8.9c-4-4.6-7.9-9.3-11.4-14.3c-3.8-5.3-7.1-10.9-9.9-16.8
			c-2.2-4.8-3.9-9.8-4.9-14.9c-0.8-3.9-0.7-7.9-0.6-11.8c0-0.6,0.2-1.2,0.4-1.8c0.5-0.1,0.9,0.1,1.3,0.2c6.7,2.1,13.6,3.3,20.6,4.1
			c4.5,0.5,9,0.8,13.5,0.8c7.1-0.1,14.1-0.6,21.1-2.3C41.6,502.8,42.1,502.6,42.6,503"/>
		<path class="st0" d="M42.6,503c-1.6,0.3-3.2,0.6-4.7,0.9c-2.6,0.5-5.1,0.8-7.7,1.1c-3.8,0.4-7.6,0.7-11.4,0.6
			c-4-0.1-8-0.3-12.1-0.8c-5.7-0.6-11.4-1.5-16.9-3c-1.8-0.5-3.6-0.8-5.2-1.6c0.6-4.8,1.9-9.4,3.9-13.8c1.6-3.7,3.8-7.1,6.3-10.2
			c2.6-3.2,5.6-5.9,8.9-8.4c5-3.7,10.6-5.8,16.6-7.2c3.3-0.8,6.7-1.2,10.2-1.3c7.4-0.3,14.4,1.2,21.1,3.9c2.7,1.1,5.3,2.5,8,3.7
			c3.7,1.7,7.4,2.9,11.4,3.5c3.1,0.4,6.3,0.4,9.4,0.3c0.8,0,1.7-0.2,2.7-0.1c-0.5,0.9-1.3,1.5-1.9,2.3c-4.3,4.9-8.7,9.6-13.5,14.1
			c-4.8,4.6-10,8.7-15.8,12C49,500.6,45.8,501.9,42.6,503"/>
		<path class="st0" d="M72,612c-0.1-0.1-0.2-0.2-0.3-0.3c-1.6-1.2-3.3-2.3-4.9-3.4c-0.4-0.3-0.5-0.6-0.3-1.1
			c1.5-4.9,2.9-9.8,4.3-14.7c2.4-8.4,5.5-16.5,8.8-24.6c1.5-3.7,3.2-7.3,4.9-10.9c1.6-3.3,3.2-6.6,4.9-9.8
			c3.2-5.8,6.5-11.5,10.4-16.8c2.4-3.2,4.9-6.4,7.5-9.4c0.6-0.6,0.7-0.6,1.1,0.2c2.7,7,5.7,13.9,8.9,20.6c2.6,5.5,5.5,10.9,8.4,16.2
			c1,1.9,2.1,3.7,3.2,5.5c0.2,0.3,0.2,0.6-0.1,0.9c-3.5,3.4-6.9,6.9-10.3,10.3c-2.3,2.3-4.8,4.5-7.2,6.6c-3.5,3.1-7.1,6.1-10.7,9.1
			c-4.3,3.6-8.7,7.1-13.2,10.4c-3.8,2.9-7.8,5.7-11.7,8.5c-1.1,0.8-2.2,1.5-3.3,2.3C72.2,611.8,72.1,611.9,72,612"/>
		<path class="st0" d="M145.5,543.7c-1.1-4.8-2.2-9.4-3.2-14c-0.9-4.1-1.6-8.2-2.4-12.3c-0.5-2.5-1.1-5-1.4-7.6
			c-0.3-2.6-0.9-5.2-1.1-7.9c-0.2-2.6-0.7-5.1-1-7.7c-0.2-1.9-0.3-3.8-0.4-5.7c-0.1-1.9-0.4-3.8-0.2-5.8c3.7,0.3,7.2,1.6,10.5,3.2
			c2.7,1.3,5.3,2.9,7.7,4.7c1.3,1,2.6,2,3.9,3c0.5,0.4,0.7,0.8,0.8,1.5c0.4,2.6,0.7,5.1,0.9,7.7c0.1,1.4,0.2,2.9,0.1,4.3
			c-0.1,3.9-0.7,7.8-1.8,11.6c-1.3,4.8-3.2,9.3-5.5,13.7c-1.9,3.7-4.1,7.2-6.3,10.6C146,543.2,145.8,543.4,145.5,543.7"/>
	</g>
</g>
</svg>
