<svg xmlns="http://www.w3.org/2000/svg" viewBox="0 0 1920 1080"><defs><style>.cls-1{fill:#2d92cf;}.cls-2{fill:#41c0da;}.cls-3{fill:#ffc628;}.cls-4{fill:#e92678;}</style></defs><title>Asset 3</title><g id="Layer_2" data-name="Layer 2"><g id="Layer_1-2" data-name="Layer 1"><path class="cls-1" d="M1190.36,861.38l-4.34-.73c1.32,1.45,2.59,2.81,3.78,4.05Z"/><path class="cls-1" d="M1705,0H0V1080H1083.11c74.33-36.61,131.68-89.82,158.18-166,71.85-206.57,194.12-161.56,243.3-255.66a95.51,95.51,0,0,0,10.05-31.9c13.64-105.29-42.6-149.2,15.2-332.68C1539.5,199.58,1610.92,112.69,1705,58c55.83-32.44,119.64-53.52,187.44-58ZM1189.8,864.7c-1.19-1.24-2.46-2.6-3.78-4.05l4.34.73Z"/><path class="cls-2" d="M1892.44,0c-67.8,4.52-131.61,25.6-187.44,58-94.08,54.65-165.5,141.54-195.16,235.71-57.8,183.48-1.56,227.39-15.2,332.68a95.51,95.51,0,0,1-10.05,31.9c-49.18,94.1-171.45,49.09-243.3,255.66-26.5,76.19-83.85,129.4-158.18,166h165.67c48.44-50.84,97-101.87,123.1-149.6,80-146.44,223.25-130,280.89-201.85a82.7,82.7,0,0,0,13.91-25.46c24.48-73,.23-117.68,38.32-215.9a550,550,0,0,1,30.48-64.67c37.77-69.14,104.58-127.1,184.52-159.86V0Z"/><path class="cls-3" d="M1735.48,422.52A550,550,0,0,0,1705,487.19c-38.09,98.22-13.84,142.92-38.32,215.9a82.7,82.7,0,0,1-13.91,25.46c-57.64,71.82-200.89,55.41-280.89,201.85-26.08,47.73-74.66,98.76-123.1,149.6h228.69c15.14-65.21,46.39-124.72,89.54-169.12,57.41-59.09,100.29-82.94,138-98.42,38.67-15.88,71.89-23,109.75-50.17A82.76,82.76,0,0,0,1835,741.48c40.77-60.28,32.81-107.86,85-184.22V262.66C1840.06,295.42,1773.25,353.38,1735.48,422.52Z"/><path class="cls-4" d="M1835,741.48a82.76,82.76,0,0,1-20.21,20.81c-37.86,27.22-71.08,34.29-109.75,50.17-37.7,15.48-80.58,39.33-138,98.42-43.15,44.4-74.4,103.91-89.54,169.12H1920V557.26C1867.77,633.62,1875.73,681.2,1835,741.48Z"/></g></g></svg>