<svg id="Layer_1" data-name="Layer 1" xmlns="http://www.w3.org/2000/svg" viewBox="0 0 2188 1080"><defs><style>.cls-1{fill:#191114;}.cls-2{fill:#fff;}.cls-3{fill:#00b5dc;}.cls-4{fill:#f1ea24;}.cls-5{fill:#ed2579;}</style></defs><title>logocppv</title><path class="cls-1" d="M528.55,948.5a13.44,13.44,0,0,1-7.46-2.52c-28.7-19.08-57.36-39.58-87.62-62.65C421,873.84,408.84,863.75,397.05,854q-6-5-12-9.93c-10.4-8.52-20.56-17.55-30.39-26.27q-5-4.39-9.91-8.78c-20.29-17.86-41.37-38.46-66.36-64.85-32.38-34.21-58.33-67-79.32-100.22-16.8-26.6-29.31-51.19-38.25-75.18a281.19,281.19,0,0,1-14.07-54.16c-1.86-11.78-1.58-23.58-1.31-35,0-2,.09-4,.12-6a207,207,0,0,1,26-97.24c10.46-19,25-36.62,45.78-55.51A225.48,225.48,0,0,1,271.5,284a220.58,220.58,0,0,1,62.74-19.47c10.64-1.57,22.14-3,34.08-3h1.88a233.66,233.66,0,0,1,90.3,18.77c5.91,2.5,11.75,5.25,17.4,7.9,10.51,4.95,20.44,9.62,31,13a118.21,118.21,0,0,0,36,5.47c2.38,0,4.82-.06,7.24-.19,22.24-1.2,41.22-6.57,58-16.44a150.81,150.81,0,0,1,35.21-15.38,89.41,89.41,0,0,1,11-2.23c3-.49,5.86-.94,8.55-1.66.85-.23,1.49-.74,2.49-5.55a9.81,9.81,0,0,0-.73-6.8,11,11,0,0,1-2.27-.32c-18.81-4.75-31.15-16.57-36.68-35.12-4.94-16.59-5.2-32-.78-45.94,6.93-21.81,21.63-36.45,42.49-42.34a49.16,49.16,0,0,1,13.29-1.9c10.93,0,21.36,4,31,12a59.13,59.13,0,0,1,19.41,28.87c4.85,16.12,1.51,31.65-10.21,47.46-5.8,7.83-8.53,15.39-8.6,23.81-.08,9.07,4.36,16.81,9.07,25,2.49,4.33,6.29,5.22,13.35,6.54l1.18.22c36.72,7,69.56,21.11,97.59,42.05A181.46,181.46,0,0,1,882,369.46a196.27,196.27,0,0,1,24.27,60.7,262.82,262.82,0,0,1,5.42,39.32c.53,8.28.77,15.73.75,22.77-.07,18.54-3.12,38.21-9.34,60.13-5.82,20.51-14.76,41.54-28.14,66.19A480.54,480.54,0,0,1,834,681c-10.76,14.09-22.78,28.65-39,47.21-17.63,20.2-37,39.09-55.67,57.37l-5.92,5.77c-13,12.74-27.54,25.74-47.09,42.14-22.27,18.68-43,35.34-63.49,50.91-27.6,21-56.61,41.63-86.23,61.24A14.7,14.7,0,0,1,528.55,948.5Z"/><path class="cls-2" d="M682.79,140.24c9.55,0,18.22,3.68,26.2,10.29a51.58,51.58,0,0,1,17,25.25c4.6,15.29.08,28.52-9,40.84-6.17,8.33-10,17.46-10.07,28.21-.1,11,4.86,19.74,10.07,28.8,4.55,7.93,12,8.94,19.64,10.39,34.51,6.54,66.3,19.63,94.49,40.69a173.71,173.71,0,0,1,44.55,48.67A188,188,0,0,1,899,431.76,253.7,253.7,0,0,1,904.23,470c.47,7.44.75,14.85.73,22.27-.07,19.82-3.67,39.14-9.06,58.12-6.44,22.69-16.31,44-27.51,64.66a475.51,475.51,0,0,1-40.33,61.47c-12.29,16.1-25.33,31.56-38.66,46.83-19.25,22.05-40.32,42.29-61.18,62.71-14.91,14.59-30.68,28.34-46.67,41.75q-31,26-63.22,50.7-41.91,31.93-85.82,60.94a7.42,7.42,0,0,1-4,1.6,6,6,0,0,1-3.31-1.27C495.46,919.93,466.45,899,438,877.36c-16.45-12.54-32.23-26-48.24-39.1C376.08,827,363,815.08,349.69,803.37c-23.09-20.32-44.78-42.1-65.87-64.38-29-30.65-55.8-63.25-78.43-99.06-14.81-23.45-27.84-47.71-37.57-73.8a271.65,271.65,0,0,1-13.68-52.72c-2.07-13.11-1.33-26.47-1.1-39.72a198.91,198.91,0,0,1,25-93.75c11.36-20.6,27-37.88,44.26-53.58a217.16,217.16,0,0,1,52.42-35.63,211.45,211.45,0,0,1,60.59-18.82c11-1.62,21.9-3,33-3h1.8a225.2,225.2,0,0,1,87.47,18.17c16.39,6.95,32,15.69,49.06,21.14A125.12,125.12,0,0,0,545,314.11q3.81,0,7.64-.2c21.72-1.17,42.47-6.34,61.41-17.46a144,144,0,0,1,33.47-14.64c6.4-1.83,13-2.15,19.42-3.85,5.67-1.52,7-6.7,7.9-11.27,1.11-5.32.2-10.76-3.76-15.09a2.64,2.64,0,0,0-2.11-.79c-.53,0-1.08.07-1.63.07a4.14,4.14,0,0,1-1-.11q-24.22-6.12-31.33-30c-4.09-13.75-5.16-27.89-.83-41.52,5.91-18.57,17.89-31.9,37.39-37.4a41.5,41.5,0,0,1,11.25-1.62m0-15a56.48,56.48,0,0,0-15.32,2.19c-23.41,6.6-39.87,22.95-47.61,47.28-4.88,15.36-4.63,32.3.75,50.35,5.89,19.78,19.16,33.29,38.48,39.26-1.24.22-2.52.43-3.85.64a100.21,100.21,0,0,0-11.87,2.42,158.47,158.47,0,0,0-36.94,16.14c-15.74,9.24-33.6,14.28-54.62,15.41-2.29.12-4.59.18-6.84.18A110.87,110.87,0,0,1,511.21,294c-10.12-3.24-19.83-7.81-30.12-12.64-5.71-2.69-11.62-5.47-17.66-8A241.32,241.32,0,0,0,370.25,254h-1.94c-12.42,0-24.24,1.5-35.17,3.11a227.79,227.79,0,0,0-64.87,20.13,232.86,232.86,0,0,0-56,38.06c-21.4,19.46-36.43,37.72-47.3,57.44a214.24,214.24,0,0,0-26.88,100.72c0,2-.09,4-.13,6-.28,11.75-.56,23.89,1.41,36.34a287.82,287.82,0,0,0,14.44,55.61c9.12,24.48,21.86,49.52,38.94,76.57,21.25,33.64,47.49,66.8,80.22,101.36,25.14,26.56,46.38,47.32,66.85,65.33q5,4.36,9.9,8.77c9.88,8.77,20.09,17.84,30.59,26.45,4,3.29,8.07,6.66,12,9.92,11.85,9.81,24.1,20,36.65,29.52,30.39,23.17,59.17,43.76,88,62.93A20.81,20.81,0,0,0,528.55,956a22,22,0,0,0,12.24-4.09c29.75-19.7,58.9-40.4,86.63-61.52C648,874.74,668.83,858,691.19,839.25c19.71-16.53,34.36-29.64,47.52-42.52l5.91-5.77c18.81-18.38,38.26-37.38,56.08-57.8C817,714.47,829.13,699.79,840,685.57a487.14,487.14,0,0,0,41.58-63.42c13.65-25.15,22.79-46.67,28.76-67.72,6.41-22.59,9.56-42.92,9.63-62.16,0-7.2-.23-14.82-.76-23.27a271,271,0,0,0-5.58-40.43,203.6,203.6,0,0,0-25.2-63,189,189,0,0,0-48.37-52.86c-29-21.63-62.83-36.24-100.68-43.4l-1.2-.23c-6.78-1.27-7.56-1.75-8.23-2.9-5.06-8.82-8.13-14.64-8.07-21.2.06-6.76,2.32-12.93,7.13-19.41,13-17.61,16.86-35.81,11.36-54.09A66.53,66.53,0,0,0,718.55,139c-11-9.11-23-13.73-35.76-13.73Z"/><path class="cls-2" d="M1501.39,591c-16.49,22.58-32.71,45-49.19,67.22-7.75,10.45-19.35,9.95-27.12,1.26-5.74-6.41-5.4-14.59-.18-21.78q26-35.75,52.21-71.29c2.21-3,3.42-4.91.24-9-16.2-21-31.69-42.58-47.42-64-2-2.74-4.15-5.42-5.89-8.32-5.81-9.74-2.84-19.08,4.68-24,8.84-5.75,17.76-3.44,24.2,5.39,14.68,20.14,29.54,40.15,44.3,60.23,1.43,1.94,2.65,4,4.23,6.47,5.26-7.05,10.36-13.85,15.41-20.7,11.89-16.16,23.7-32.38,35.66-48.49,6-8,17-6.88,21.78-3.09,9.51,7.53,10.37,16.13,4.15,24.86-17.56,24.66-35.84,48.81-53.94,73.08-1.41,1.88-1.83,2.88-.25,5,9.72,13.12,19.19,26.44,28.8,39.64,8.29,11.39,16.74,22.66,25,34.08,4,5.57,5.5,11.75,2.52,18.29a16.26,16.26,0,0,1-14.73,10c-6.8.27-11.88-3.42-15.86-8.9q-23.52-32.41-47.21-64.7A12.37,12.37,0,0,0,1501.39,591Z"/><path class="cls-2" d="M1340,560.72c0-29.64.14-59.29-.11-88.93a15.31,15.31,0,0,1,9.35-14.39c6.55-2.54,12.94-2.27,18.62,2.87,4.46,4,6.13,9,6.14,14.74,0,57.13.08,114.26-.07,171.38,0,11.48-5.07,16.49-13.84,19.08s-20.29-5.06-20.2-14.81C1340.19,620.68,1340,590.7,1340,560.72Z"/><path class="cls-2" d="M1118,784.5v-69c0-6.35,1.13-7.52,7.31-7.53h74.47c5.51,0,7.34,1.54,7.2,6.12-.14,4.8-3.49,5.85-7.39,5.86-22,0-44,.1-66-.06-3.51,0-4.8.51-4.73,4.48q.4,25,0,50c-.07,4.2,1.41,4.72,5,4.69,19.16-.15,38.32-.09,57.48-.06,4.94,0,7.39,2.53,6.59,6.7-.62,3.18-2.42,4.41-5.88,4.37-19.66-.17-39.32,0-59-.15-3.07,0-4.24.52-4.2,4q.3,25.49,0,51c-.05,3.73,1.24,4.21,4.51,4.18,22-.14,44-.07,66-.07,5.27,0,7.64,1.89,7.62,6s-2.36,6-7.71,6h-73.47c-6.85,0-7.82-1-7.82-8Z"/><path class="cls-2" d="M1620.49,837.57q7.47-17.75,14.94-35.46c7.5-17.72,15.09-35.41,22.53-53.16,5.45-13,10.59-26.14,16.18-39.08,1.12-2.6,3.44-4.67,7.13-3.23,4.69,1.81,4.58,5.68,3.34,9-3.31,8.85-7.28,17.45-10.95,26.16-6.91,16.4-13.75,32.83-20.7,49.22-6.07,14.32-12.26,28.6-18.39,42.9-2.85,6.63-5.91,13.19-8.43,20-.92,2.48-1.72,4.1-4.55,4.16s-5.37,0-6.75-3.45c-3.77-9.37-7.89-18.6-11.83-27.91-5.86-13.88-11.67-27.79-17.53-41.68-6.47-15.37-13-30.72-19.45-46.09-3.17-7.54-6.25-15.12-9.34-22.68-2.08-5.1-.83-8.13,3.93-9.43,3.42-.94,5.29.94,6.51,3.82q6.93,16.38,13.86,32.77,8.79,20.83,17.54,41.68C1605.84,802.49,1613.12,819.94,1620.49,837.57Z"/><path class="cls-2" d="M1660,421.5c1.43-14.67,11.54-33.55,30.18-34.38,8.64-.39,16.77,2.73,24.79,5.83,6.41,2.47,12.57,5.68,19.69,6.12,5.48.34,8.79-2.11,11.58-6.53,3-4.67,6.08-9.26,13-8.65,6.53.58,11.94,5.56,10.64,11.91-2.35,11.41-6.63,22-17,28.84-7.78,5.18-16.18,4.83-24.75,3-9.45-2.06-17.92-6.89-27.13-9.66-8.76-2.65-14.41-.5-18.84,7.45-2.17,3.91-5,6.66-9.94,6.67s-8.73-1.32-11.48-5.71C1659.6,424.51,1660.54,422.8,1660,421.5Z"/><path class="cls-2" d="M1059.43,413.09c11.54.85,23.26-4,34-12,2.55-1.89,5.29-2,7.52.39a5.45,5.45,0,0,1,.17,7.68c-1.77,2-4.33,3.38-6.73,4.7-12.13,6.66-25.11,10.69-39,10-31.16-1.48-59.85-22.17-65.5-55.64-6.17-36.58,16-68.07,50-77,21.08-5.57,41.1-1.52,59.19,11.22,3.37,2.37,4.61,4.8,2.57,8.2-2.26,3.76-5.74,2.9-8.54.87A63.07,63.07,0,0,0,1071.05,301c-17.55-4.28-33.66-.5-48.2,9.73-12.62,8.88-20,21.25-22.9,36.49-5.63,29.54,15.12,58.12,44.65,64.81C1048.85,413,1053.07,412.89,1059.43,413.09Z"/><path class="cls-2" d="M1246,784.52q0-34.24,0-68.48c0-2.56.2-5,2.32-6.65,1.87-1.42,4.33-2.25,6.45-1,2.3,1.36,3.36,3.54,3.35,6.62-.13,42.81,0,85.63-.2,128.45,0,4.47,1,5.71,5.6,5.65,21.15-.27,42.31-.12,63.47-.12a27.28,27.28,0,0,1,3,0c3.75.42,5.9,2.49,6,6.33.13,4.15-3,5-6.13,5.61a21.23,21.23,0,0,1-4,0h-71.47c-6.55,0-8.38-1.87-8.39-8.51Q1246,818.5,1246,784.52Z"/><path class="cls-2" d="M1187,364.05c0,7.82.32,15.67-.08,23.47-.52,10.31,9.23,23.14,22.09,25.45,17.25,3.11,28.43-7.72,32.59-21.11a15,15,0,0,0,.38-4.41c0-16.48.08-33,0-49.46,0-4.08,1.15-7.22,5.44-7.9,3.23-.51,5.58,2.94,5.59,7.68,0,15.49.45,31-.11,46.46-.61,16.92-7.67,30.09-24.27,36.86-19.31,7.88-42.85-1.89-49.67-21.75a58,58,0,0,1-2.87-18.16c-.22-13.82-.07-27.64-.07-41.47a18.87,18.87,0,0,1,.89-6.23,4.63,4.63,0,0,1,4.78-3.31,4.25,4.25,0,0,1,4.37,3.19,21.92,21.92,0,0,1,1,5.71C1187,347.39,1187,355.72,1187,364.05Z"/><path class="cls-2" d="M1719,782.05c0-23.31,0-46.61,0-69.91,0-4,1-6.2,5.5-6.22s5.6,2.09,5.6,6.13q-.12,69.9,0,139.81c0,4-1,6.2-5.5,6.22s-5.61-2.09-5.6-6.13C1719.05,828.65,1719,805.35,1719,782.05Z"/><path class="cls-2" d="M1133,357.55q0-30.21,0-60.42c0-3.25.19-6.21,4.49-6.11,3.91.1,5.64,1.82,5.62,6.14-.15,39.95-.09,79.9-.09,119.85,0,2.41.2,4.74-2.53,6.26-2.09,1.17-3.66.53-5.53-.24-2.59-1-1.92-3.18-1.92-5Q1133,387.77,1133,357.55Z"/><path class="cls-3" d="M417,476.84c16.51.71,32.77-1.39,49.09-3.67A340.7,340.7,0,0,0,534.26,456a223.59,223.59,0,0,0,28.51-12.3c1.21-.63,2.28-1.8,4.33-1.34-2.06,4.51-4,8.87-6,13.19a669.39,669.39,0,0,0-34,89.66,754.16,754.16,0,0,0-19.19,78.22c-3,16-5.6,32.06-7.63,48.17-1.11,8.76-1.56,17.69-2.41,26.5-2.28,23.51-2.06,47-1.67,70.55.28,16.68,1.39,33.35,2,50,.46,12.18,1.32,24.36,2,36.54.37,6.08.42,12.19,1,18.26.08.83,1.4,1.7,0,2.37-.92.44-1.79-.09-2.67-.76-6.36-4.81-12.88-9.4-19.19-14.27-16.52-12.74-33.13-25.38-49.38-38.46-11.88-9.57-23.23-19.78-34.82-29.7-19.6-16.77-38.4-34.39-56.73-52.56C325.18,727,312,713.77,299.53,699.88,278,675.79,257.62,650.69,240,623.49c-17.13-26.49-31.79-54.23-40.57-84.69a200.17,200.17,0,0,1-6.68-34.4c-1.09-10.3-.32-20.54-.78-30.79a13.92,13.92,0,0,1,2-7.77c2.06-.75,3.93.16,5.82.73,28,8.49,56.7,13.26,85.8,16.12A472,472,0,0,0,346,484.38a324,324,0,0,0,62.37-7.74C411.23,476,414.18,474.72,417,476.84Z"/><path class="cls-2" d="M417,476.84c-8.72.47-17,3.62-25.62,4.53-9.29,1-18.5,2.68-27.79,3.57-16.9,1.6-33.87,1.32-50.8,1-15.14-.31-30.2-2-45.26-3.79a434.28,434.28,0,0,1-65.31-13.19c-2.81-.79-5.48-2.05-8.22-3.09.91-15.48,5.38-30,10.85-44.45A168.45,168.45,0,0,1,227.12,381a171.5,171.5,0,0,1,33.63-34.45c8.5-6.52,17.19-12.7,26.71-17.47,12.5-6.26,25.79-10.51,39.32-14.11a193.19,193.19,0,0,1,63.91-5.72,187.55,187.55,0,0,1,55,12.68c18.11,7.09,34.86,17.24,53.3,23.51a147,147,0,0,0,31.67,6.8c10.29,1.11,20.52.25,30.76.82,3.18.17,6.21-2.2,10-.37-4.32,5.17-8.24,10.34-12.65,15-13.93,14.85-27.3,30.26-42.18,44.19-18,16.83-36.81,32.69-57.79,45.66A197,197,0,0,1,417,476.84Z"/><path class="cls-4" d="M747.66,710.42c.05.94-1,1.37-1.63,2-8,8.4-15.8,17-24.16,25.08-14.54,14-29.11,28-44.29,41.2q-25.87,22.59-52.71,44.1c-29.34,23.53-59.33,46.13-90.24,67.56-5.22,3.61-8,3.46-12.36-.41-4-3.53-8.62-6.33-13.13-9.22-2-1.26-2.44-2.36-1.74-4.7,6-20.12,11.84-40.28,17.69-60.44,8.6-29.66,19.54-58.5,31.21-87a875.38,875.38,0,0,1,37.57-80.06,605.78,605.78,0,0,1,49.63-78.39c6.47-8.64,13.8-16.64,20.77-24.89,1.64-1.93,2.44-3,3.92.76,10,25.58,20.77,50.86,32.56,75.72,9.74,20.53,20.38,40.55,31,60.58,4.34,8.14,9.26,16,13.87,24C746.4,707.53,746.93,708.89,747.66,710.42Z"/><path class="cls-5" d="M811,633.84c-2.52-10.32-4.89-19.36-6.92-28.49-3.36-15.21-6.68-30.43-9.69-45.71s-5.68-30.36-8.33-45.58c-2.45-14.12-5.18-28.21-6.82-42.43-1.21-10.58-2.4-21.19-3.44-31.8-1.19-12.12-1.49-24.28-2.83-36.37-.5-4.56,1.81-5.1,5.18-4.37,15,3.22,29.42,7.94,42.88,15.4,10.85,6,20.5,13.79,30.82,20.54,9.93,6.48,11.09,16.24,12.08,26.23.78,7.88,1,15.82,1.24,23.77.69,23.4-3.71,45.84-11.49,67.76a310.15,310.15,0,0,1-31.82,63.91C818.41,622,815.06,627.37,811,633.84Z"/><path class="cls-2" d="M2037,558.3a101.27,101.27,0,0,0-1.85-23c-6.16-29-21.36-52.46-45.67-68.83-26.18-17.62-55.33-21.43-85.52-11.37-23.73,7.91-42.08,22.82-55.16,44.42-16.32,27-19.92,55.64-12.91,86,5.69,24.56,18.93,44.42,38.84,59.58,20.61,15.69,43.87,22.74,70,20.05a98.22,98.22,0,0,0,39.64-12.78A102.45,102.45,0,0,0,2019.85,618C2031.46,599.79,2038.21,579.83,2037,558.3Zm-59.66,55.75c-9.82,9-21.52,14.2-35,16.07-35.84,5-66.06-25-72.44-53.58-5.21-23.31-1.42-44.74,12.39-63.82,10.66-14.75,25.24-24.15,43.88-26.82,19.68-2.83,36.39,2.85,51,15.77,16.77,14.79,24.65,33.53,25,55.68C2002.37,580,1993.81,598.9,1977.3,614.05Z"/><path class="cls-2" d="M1797.28,644.68c-10.65-30.4-22.43-60.36-33.68-90.53q-15.8-42.33-31.6-84.65c-3.64-9.75-8.18-12.51-17.3-13.5a17.93,17.93,0,0,0-16.77,11.75c-4,11.18-8.3,22.21-12.46,33.31q-14.27,38-28.51,76.05c-6.78,18-13.77,35.91-20.44,53.94-2.1,5.69-5.12,11.24-5.43,17.4-.42,8.38,6.46,16,15.15,17.53,7,1.25,15.76-4,18.53-11.44q6.26-16.63,12.2-33.4c1.08-3.06,2.66-4.25,6.06-4.22q32,.24,64,0c2.94,0,4.11.86,5.12,3.66,4.48,12.35,9.29,24.57,14,36.82,2.53,6.58,13.06,10.79,21.81,7.1C1794.56,661.71,1799.83,652,1797.28,644.68Zm-105.93-61.92c7.63-20.34,15.27-40.74,23.2-61.86l23.3,61.86Z"/><path class="cls-2" d="M1298.12,646c-1.15-7.11-4.32-13.44-6.73-20-10.35-28.29-21-56.46-31.66-84.64-9.15-24.3-18.45-48.54-27.55-72.85-2.82-7.5-8.09-12-15.6-12.51s-13.77,3.05-17.14,10.15c-2,4.19-3.4,8.64-5,13q-13,34.42-25.9,68.84c-6.67,17.69-13.45,35.34-20,53.07-5.41,14.56-10.92,29.09-15.77,43.84-3,9.25,3.21,17.4,10,19.84,10.15,3.64,19.26-1.44,22.23-9.14,4.61-11.94,9.2-23.9,13.68-35.9.6-1.62.72-2.77,3-2.76,22.48.12,45,.07,67.46.07,1.5,0,2.32,0,3,2,3.7,10.75,7.92,21.32,11.84,32,3.66,10,9.32,14.92,17.42,15C1292.33,665.74,1299.85,656.71,1298.12,646ZM1192,583l23.29-62c7.9,20.9,15.6,41.27,23.43,62Z"/><path class="cls-2" d="M1124.21,502.74a61,61,0,0,0-21.44-32.59c-10.74-8.55-22.82-13.61-36.35-14-19.14-.56-38.31.14-57.46-.26-9.33-.19-17.13,7.81-17.09,17.25q.39,87.69,0,175.39c0,10.87,8.32,17.33,17.35,17.4,9.44.08,17.1-8.83,16.84-17.33-.3-9.81-.07-19.65-.07-29.48,0-9.49.21-19-.1-28.48-.13-4.28.67-6,5.49-5.76,10.31.43,20.65.24,31,.07a56.41,56.41,0,0,0,12.18-1.26c13.48-3.2,25.48-9,35-19.62Q1133.56,537.26,1124.21,502.74ZM1070,549.44a40.58,40.58,0,0,1-10.58,1.49c-10,.2-20,0-29.94.14-2.9,0-3.57-.87-3.52-3.62.16-9,.06-18,.06-27s.1-18-.06-26.95c0-2.75.62-3.66,3.52-3.62,11.47.17,23-.54,34.42.23,14.09.95,25.48,10,28.13,26.55C1094.4,531.57,1084,545.34,1070,549.44Z"/><path class="cls-2" d="M1892.83,769.34c-3.38-19.88-13.28-36.41-29.63-48.54-11.32-8.4-24.09-13.89-38.26-14.67-11.63-.64-23.32-.14-35-.12-5.09,0-7,1.94-7,7.18q0,34.48,0,69c0,23,0,46,0,69,0,3.65.75,6.91,5,6.8,14.56-.41,29.2,1.45,43.7-.94,19.91-3.28,35.56-13.69,47.42-29.68C1891.89,810.05,1896.4,790.35,1892.83,769.34Zm-61.28,75.76c-11.31,2.44-22.65,1.54-34,1.94-3.55.13-2.53-2.27-2.53-4q-.08-30.49,0-61c0-20.33.07-40.66-.07-61,0-3.2.72-4.16,4-4.13,12.8.12,25.78-.85,38,3.68,24.34,9,39.38,25.84,44.09,51.91C1887,805.06,1863.6,838.18,1831.55,845.1Z"/><path class="cls-2" d="M1475.15,852.41c-8.45-22.5-16.76-45-25.14-67.57q-13.48-36.26-27-72.5c-.85-2.28-2.27-3.17-4.74-3.43-4.39-.46-6.62,1.75-8,5.4q-14.49,39-29,77.94-11.22,30.18-22.49,60.34c-1.27,3.42-.47,6.3,3.08,7.82,3.77,1.61,6.67-.26,8-3.47q6.18-15.36,11.58-31c1-3.08,2.33-4,5.49-4,19.15.14,38.31.37,57.45-.11,6-.14,8.19,1.81,9.82,7.38,2.74,9.35,6.67,18.36,10.07,27.52a6,6,0,0,0,7.36,4.16,5.25,5.25,0,0,0,4.37-5.2A7.81,7.81,0,0,0,1475.15,852.41ZM1390.32,810c-2,0-2.83-.65-2.08-2.62Q1402.63,769.67,1417,732c.09-.23.38-.38.6-.58,9.74,26,19.48,51.91,29.5,78.63C1427.93,810,1409.12,810,1390.32,810Z"/><path class="cls-2" d="M2032.27,850.73q-7.65-21.26-15.57-42.4c-12.11-32.25-24.38-64.43-36.34-96.73-1.28-3.45-3.13-5.38-6.42-5.5s-5.43,2.1-6.53,5q-12.27,32.63-24.4,65.29-13.68,36.69-27.37,73.39c-1.26,3.35-.86,6.38,2.23,8,3.47,1.85,7.79-.35,9.12-3.94,4-10.82,8.09-21.6,11.94-32.47.72-2,1.82-2.42,3.63-2.42q31.47,0,63,0c1.82,0,2.85.45,3.57,2.48,3.83,10.71,8.05,21.28,11.84,32,1.16,3.3,3,4.75,6.34,4.52C2032,858.07,2033.94,855.4,2032.27,850.73Zm-88.22-42.84c10-26.39,19.88-52.56,30.08-79.56l29.81,79.56Z"/><path class="cls-2" d="M1083.12,746A42.87,42.87,0,0,0,1043,708.15c-14.45-.79-29-.16-43.47-.15-6.64,0-8.5,1.84-8.51,8.39q0,34,0,68,0,34.74,0,69.48c0,4.53,2.59,7.58,6.21,7.07s5.91-2.47,5.86-6.93c-.22-18,0-36-.17-54,0-3.25.83-4,4.08-4.11,12.92-.26,25.82.78,38.75-.78s22.87-8,30.21-18.39C1082.42,767.58,1084.41,757.33,1083.12,746Zm-36.73,37.79a11.73,11.73,0,0,1-3,.17c-12.16,0-24.32-.13-36.48.1-3.39.06-4.08-1-4-4.17.2-9.32.07-18.65.07-28,0-9.5.12-19-.07-28.48-.06-2.9.86-3.56,3.62-3.53,12.33.14,24.69-.56,37,.23,12.71.82,23.69,10,27.46,23.66C1075.89,761.74,1064.08,779.08,1046.39,783.82Z"/><path class="cls-2" d="M1365.67,339.51c-19.93-15.21-47.6-10.25-61.67,7.76,0-17.19,0-33.51,0-49.84,0-3.81-1.24-6.32-5.43-6.42s-4.62,2.68-4.62,6q.06,60.5,0,121c0,3.71,1.31,5.92,4.77,5.88s5.44-2.48,5.33-6.24c-.09-3.07,0-6.15,0-9.73,23.42,24.66,56.12,18.35,71-2.57C1389.74,384.74,1386.91,355.71,1365.67,339.51ZM1338.9,413c-18.67,1.69-35.75-17.79-35-36.35.75-18.8,15.56-36.24,35.84-35.69,19.48.52,34.12,17.26,34,36.15C1373.63,396.23,1359.37,413.56,1338.9,413Z"/><path class="cls-2" d="M1489,344.62c-9.64-10.55-21.86-14.63-36.1-13.69-13.37.88-23.93,6.63-31.88,17.17-8.4,11.11-11.56,23.56-9.08,37.46,2.29,12.86,8.76,23.08,19.33,30.36a42.55,42.55,0,0,0,32.17,7.22c13.25-2.19,23-9.08,30.43-19.78,2-2.88,1.55-6.12-1.08-7.79s-5.74-1.07-7.75,2c-8.28,12.53-19.79,18-34.71,15.42-8.38-1.45-15-5.77-20.56-12.39-5.2-6.26-7.32-13.46-8.67-21.57h5.45c23.15,0,46.31-.09,69.46.09,4,0,5.11-1.25,5.07-5.16C1501,362.48,1496.51,352.83,1489,344.62ZM1486.76,369q-24.69,0-49.38,0h-15.25c4.25-13.79,12-23.75,26.5-27.16,19.17-4.52,35.25,6.77,41.11,24.5C1490.81,369.58,1488.48,369,1486.76,369Z"/><path class="cls-2" d="M359,647.5c0-6.33-.26-12.67.09-19,.23-3.93-1.2-4.66-4.79-4.6-12.32.21-24.65.1-37,.07-7.42,0-9.32-2-9.32-9.45q0-12.75,0-25.49c0-7,2-9,9.23-9,12.49,0,25-.15,37.48.08,3.61.06,4.42-1.1,4.37-4.51-.2-12.49-.1-25-.07-37.48,0-6.27,2.8-9.06,9-9.09,8.16,0,16.33,0,24.49,0,8.36,0,10,2.75,10.33,10.43.5,12.14.24,24.32.06,36.47-.05,3.29.93,4.22,4.19,4.17,12.15-.18,24.32-.09,36.48-.06,7.47,0,10.37,2.93,10.39,10.43,0,7.17.11,14.33,0,21.49-.17,9.75-2.83,12.32-11.8,12.13-11.32-.24-22.65.12-34-.16-4-.09-5.44.78-5.32,5.11.33,11.48.28,23,.05,34.48-.18,9-2.64,11.76-11.31,11.55-8-.19-16,0-24-.06-5.65,0-8.56-2.9-8.62-8.49C358.94,660.16,359,653.83,359,647.5Z"/></svg>