<svg xmlns="http://www.w3.org/2000/svg" width="213" height="90.055" viewBox="0 0 213 90.055"><defs><style>.a{fill:#fff;}</style></defs><g transform="translate(-199.213 -737.613)"><g transform="translate(293.895 752.804)"><path class="a" d="M574.334,802.165a8.533,8.533,0,0,1-3.535-.917,3.382,3.382,0,0,0-1.6-.349,1.468,1.468,0,0,0-1.085.752c-.254.366-.464.781-.981.916a1.29,1.29,0,0,1-1.324-.316,1.14,1.14,0,0,1-.308-1.195,4.806,4.806,0,0,1,1.833-3.015,3.4,3.4,0,0,1,2.848-.355c1.135.273,2.148.882,3.282,1.147a1.455,1.455,0,0,0,1.71-.664c.335-.585.749-1.106,1.578-1a1.3,1.3,0,0,1,1.126,1.161,4.449,4.449,0,0,1-2.679,3.754A4.551,4.551,0,0,1,574.334,802.165Z" transform="translate(-489.722 -784.643)"/><path class="a" d="M516.733,823.631c1.928-2.65,3.821-5.258,5.723-7.858a2.109,2.109,0,0,1,2.3-.421,1.915,1.915,0,0,1,.986,2.128,5.842,5.842,0,0,1-1.221,1.985c-1.4,1.973-2.849,3.913-4.28,5.865a7.038,7.038,0,0,1-.736.963c-.375.359-.388.614-.061,1.046,1.416,1.872,2.785,3.78,4.173,5.673.64.873,1.34,1.708,1.909,2.625a1.866,1.866,0,0,1-.242,2.334,1.988,1.988,0,0,1-2.239.38,6.135,6.135,0,0,1-1.743-2c-1.466-1.992-2.9-4.01-4.344-6.015-.121-.167-.183-.264-.38.009-1.4,1.935-2.83,3.843-4.246,5.764-.469.636-.916,1.286-1.436,1.886a1.907,1.907,0,0,1-2.6.092,1.955,1.955,0,0,1-.311-2.514c1.232-1.712,2.491-3.4,3.736-5.107.8-1.1,1.579-2.206,2.4-3.286a.5.5,0,0,0,0-.7c-1.116-1.5-2.241-3-3.355-4.508-.939-1.268-1.881-2.533-2.793-3.82a1.954,1.954,0,0,1,.456-2.612,2.052,2.052,0,0,1,2.722.439c1.654,2.358,3.4,4.648,5.115,6.966C516.417,823.153,516.553,823.368,516.733,823.631Z" transform="translate(-458.82 -794.278)"/><path class="a" d="M487.956,826.521v-9.911a1.677,1.677,0,0,1,1.587-1.868c1.445-.013,2.256.657,2.263,1.891.009,1.755,0,3.511,0,5.267q0,7.164,0,14.328a1.934,1.934,0,0,1-3.856.317C487.971,833.2,487.956,829.863,487.956,826.521Z" transform="translate(-448.281 -794.045)"/><path class="a" d="M434.161,884.982q0-3.822,0-7.645c0-.8.195-1,.969-1q4.134,0,8.268,0a.78.78,0,0,1,.823.443.691.691,0,0,1-.289.838.813.813,0,0,1-.539.077c-2.454.006-4.908.016-7.361-.007-.423,0-.529.1-.523.522.026,1.906.021,3.813,0,5.719,0,.371.1.465.464.463,2.189-.018,4.379,0,6.569-.018.457,0,.658.176.677.6.021.468-.234.658-.683.657-2.171,0-4.342.013-6.512-.013-.434-.006-.522.113-.517.528q.036,2.859,0,5.719c0,.381.112.458.47.457,2.51-.015,5.021,0,7.532-.013.424,0,.754.048.733.588-.018.476-.21.676-.723.672-2.85-.021-5.7-.009-8.551-.011-.666,0-.81-.145-.81-.813Q434.159,888.861,434.161,884.982Z" transform="translate(-419.521 -826.977)"/><path class="a" d="M547.573,890.724c.658-1.554,1.32-3.1,1.97-4.653,1.269-3.032,2.52-6.073,3.813-9.1.16-.374.2-.955.853-.94a.631.631,0,0,1,.62.912c-.622,1.491-1.253,2.979-1.88,4.468-.789,1.875-1.573,3.752-2.369,5.624-.69,1.622-1.394,3.238-2.09,4.858a4.137,4.137,0,0,0-.276.709.671.671,0,0,1-.636.525.626.626,0,0,1-.681-.443q-.928-2.24-1.865-4.476-.978-2.337-1.963-4.672-1.117-2.663-2.23-5.327c-.162-.385-.357-.758-.5-1.151-.127-.359-.194-.758.213-.992a.761.761,0,0,1,1.043.449q1.4,3.372,2.8,6.744,1.469,3.52,2.952,7.035A4.788,4.788,0,0,0,547.573,890.724Z" transform="translate(-476.244 -826.792)"/><path class="a" d="M465.312,884.979c0-2.6.013-5.209-.011-7.812,0-.493.207-.753.636-.811.494-.066.648.317.729.715a2.322,2.322,0,0,1,.006.452c0,4.736.01,9.473-.015,14.209,0,.521.149.6.621.6,2.472-.025,4.944-.006,7.415-.017.448,0,.709.1.711.619s-.231.64-.691.638c-2.868-.011-5.736,0-8.6-.006-.659,0-.795-.144-.8-.828Q465.311,888.856,465.312,884.979Z" transform="translate(-436.172 -826.986)"/><path class="a" d="M580.994,884.517c0,2.622-.01,5.243.009,7.865,0,.455-.172.672-.594.677-.456.006-.663-.259-.663-.71q0-7.893,0-15.787c0-.472.191-.714.684-.72s.57.289.569.7C580.991,879.2,580.994,881.857,580.994,884.517Z" transform="translate(-497.366 -826.715)"/><path class="a" d="M630.208,823.323a12.139,12.139,0,0,0-4.777-7.927,10.731,10.731,0,0,0-9.827-1.743,10.559,10.559,0,0,0-5.461,3.623,12.336,12.336,0,0,0-2.471,4.767c-.187.724-.224,1.467-.427,2.181A14.513,14.513,0,0,0,607.5,828a12.076,12.076,0,0,0,3.747,6.527,11.892,11.892,0,0,0,4.032,2.371,12.224,12.224,0,0,0,4.421.584,12.4,12.4,0,0,0,3.333-.831,12.448,12.448,0,0,0,7.174-13.33Zm-3.818,1.326a6.721,6.721,0,0,0,0,.678,8.533,8.533,0,0,1-2.129,5.626,7.255,7.255,0,0,1-4.481,2.519,6.567,6.567,0,0,1-4.283-.779,8.057,8.057,0,0,1-3.419-3.6,8.372,8.372,0,0,1,.438-8.292,7.387,7.387,0,0,1,4.107-3.309A6.727,6.727,0,0,1,623,818.523a8.069,8.069,0,0,1,3.27,5.476A2.455,2.455,0,0,1,626.39,824.649Z" transform="translate(-512.057 -793.205)"/><path class="a" d="M640.432,892.128c-.721-1.918-1.429-3.841-2.144-5.762q-1.841-4.947-3.686-9.892a.576.576,0,0,0-.629-.413.713.713,0,0,0-.778.478c-.584,1.583-1.146,3.175-1.758,4.746a18.713,18.713,0,0,1-1,2.508,11.267,11.267,0,0,1-.693,2c-.775,2.131-1.574,4.252-2.375,6.374-.178.473-.073.844.368.969a.674.674,0,0,0,.889-.506c.419-1.14.9-2.259,1.274-3.413.145-.449.382-.457.734-.456,2.187.006,4.374.026,6.561-.014a.739.739,0,0,1,.825.587c.382,1.077.758,2.156,1.161,3.224a.7.7,0,1,0,1.254-.429Zm-5.525-4.723c-1.263,0-2.526-.006-3.789,0-.358,0-.553.008-.364-.469.709-1.787,1.372-3.592,2.049-5.391.307-.815.614-1.629.9-2.45a1.447,1.447,0,0,1,.266-.487l3.294,8.793Z" transform="translate(-522.784 -826.832)"/><path class="a" d="M577.274,835.964a20.588,20.588,0,0,0-.8-2.258q-1.438-3.881-2.881-7.761c-1.226-3.281-2.464-6.558-3.688-9.841a2.1,2.1,0,0,0-1.567-1.39,1.89,1.89,0,0,0-2.218,1.15c-.862,2.158-1.635,4.35-2.449,6.527-.743,1.99-1.5,3.976-2.239,5.966-.919,2.467-1.814,4.943-2.753,7.4a2.054,2.054,0,0,0,1.023,2.409,1.973,1.973,0,0,0,2.615-1.136c.516-1.338,1.046-2.669,1.547-4.013.075-.2.118-.3.357-.295q3.765.015,7.53,0c.19,0,.256.042.33.252.422,1.2.9,2.375,1.332,3.572.449,1.252.99,1.73,2.042,1.73A1.823,1.823,0,0,0,577.274,835.964ZM565.6,828.992c-.338,0-.232-.165-.154-.366q1.216-3.151,2.413-6.309a1.036,1.036,0,0,0,.034-.214l.112.016,2.6,6.873C568.909,828.992,567.256,828.993,565.6,828.992Z" transform="translate(-486.05 -794.022)"/><path class="a" d="M456.387,835.738q-1.713-4.681-3.464-9.348c-1.293-3.451-2.607-6.894-3.9-10.345a1.851,1.851,0,0,0-1.574-1.321c-1.3-.092-1.867.4-2.123,1.063-1.151,2.981-2.239,5.986-3.36,8.978-1.14,3.044-2.309,6.077-3.427,9.128a6.736,6.736,0,0,0-.743,2.441,1.891,1.891,0,0,0,1.41,1.954,2.1,2.1,0,0,0,2.217-1.039c.524-1.354,1.051-2.707,1.531-4.076a.547.547,0,0,1,.627-.442c2.359.013,4.719.02,7.078-.007a.611.611,0,0,1,.681.463c.467,1.26.957,2.511,1.41,3.775a1.966,1.966,0,0,0,2.463,1.291A1.928,1.928,0,0,0,456.387,835.738ZM449.367,829c-1.6-.006-3.2,0-4.875,0l2.628-7.015c.7,1.855,1.357,3.585,2.01,5.315.166.441.293.9.5,1.322C449.788,828.964,449.666,829,449.367,829Z" transform="translate(-421.465 -794.029)"/><g transform="translate(0 0)"><path class="a" d="M411.086,785.033a6.2,6.2,0,0,0,4.04-1.424.623.623,0,0,1,.893.046.647.647,0,0,1,.02.913,2.932,2.932,0,0,1-.8.558,8.7,8.7,0,0,1-4.634,1.193,8.065,8.065,0,0,1-7.784-6.613,7.945,7.945,0,0,1,5.944-9.156,8.166,8.166,0,0,1,7.034,1.334c.4.282.547.571.305.975-.268.447-.682.344-1.015.1a7.472,7.472,0,0,0-2.623-1.247,6.792,6.792,0,0,0-5.727,1.156,6.594,6.594,0,0,0-2.722,4.337,6.788,6.788,0,0,0,5.306,7.7A9.6,9.6,0,0,0,411.086,785.033Z" transform="translate(-402.698 -770.261)"/><path class="a" d="M451.8,784.839c0,.93.037,1.862-.009,2.79a3.265,3.265,0,0,0,2.625,3.024,3.313,3.313,0,0,0,3.873-2.509,1.783,1.783,0,0,0,.046-.524c0-1.959.009-3.919,0-5.878,0-.485.137-.858.647-.939.383-.061.663.35.664.912,0,1.841.054,3.683-.013,5.521a4.55,4.55,0,0,1-8.788,1.8,6.918,6.918,0,0,1-.341-2.158c-.026-1.642-.009-3.285-.007-4.927a2.2,2.2,0,0,1,.105-.741.551.551,0,0,1,.568-.394.507.507,0,0,1,.519.38,2.608,2.608,0,0,1,.118.677C451.791,782.86,451.8,783.85,451.8,784.839Z" transform="translate(-428.249 -775.895)"/><path class="a" d="M439.506,778.738q0-3.59,0-7.181c0-.385.022-.738.533-.725.464.012.67.216.668.73-.018,4.747-.011,9.5-.011,14.243,0,.286.025.564-.3.744a.67.67,0,0,1-.658-.028c-.307-.125-.227-.378-.228-.6Q439.5,782.328,439.506,778.738Z" transform="translate(-422.376 -770.566)"/><path class="a" d="M489.141,776.593a5.293,5.293,0,0,0-7.329.921c0-2.043,0-3.982,0-5.922,0-.453-.148-.751-.645-.764s-.549.318-.549.713q.007,7.189-.007,14.378c0,.442.156.7.567.7.43-.005.647-.294.634-.741-.011-.365,0-.731,0-1.156a5.374,5.374,0,0,0,8.442-.306A5.645,5.645,0,0,0,489.141,776.593Zm-3.182,8.733c-2.218.2-4.248-2.114-4.16-4.32a4.3,4.3,0,0,1,4.259-4.242,4.233,4.233,0,0,1,4.042,4.3A4.13,4.13,0,0,1,485.958,785.326Z" transform="translate(-444.359 -770.564)"/><path class="a" d="M519.8,782.633a5.049,5.049,0,0,0-4.29-1.626,4.939,4.939,0,0,0-3.789,2.04,5.5,5.5,0,0,0-1.079,4.453,5.362,5.362,0,0,0,2.3,3.607,5.054,5.054,0,0,0,3.823.858,5.3,5.3,0,0,0,3.616-2.35.62.62,0,0,0-.128-.926.647.647,0,0,0-.922.235,3.832,3.832,0,0,1-4.124,1.832,3.989,3.989,0,0,1-2.443-1.473,5.111,5.111,0,0,1-1.031-2.563h.647c2.752,0,5.5-.011,8.255.01.48,0,.608-.148.6-.613A5.133,5.133,0,0,0,519.8,782.633Zm-.267,2.9q-2.934,0-5.868,0h-1.812a4.239,4.239,0,0,1,3.149-3.227,4.076,4.076,0,0,1,4.886,2.912C520.018,785.6,519.741,785.53,519.537,785.53Z" transform="translate(-460.366 -775.999)"/></g><path class="a" d="M418.721,820.269a6.794,6.794,0,0,0-2.7-4.147,6.339,6.339,0,0,0-3.743-1.381c-2.264-.008-4.528,0-6.792,0a1.723,1.723,0,0,0-1.759,1.763q0,4.98,0,9.962,0,4.953,0,9.905a1.991,1.991,0,0,0,.063.6,1.934,1.934,0,0,0,3.782-.572c.005-2.264.013-4.528-.009-6.792,0-.4.1-.519.5-.489.488.037.98.009,1.471.009a22.15,22.15,0,0,0,3.222-.03,6.935,6.935,0,0,0,4.591-2.648A7.113,7.113,0,0,0,418.721,820.269Zm-5.746,4.776a7.768,7.768,0,0,1-3.072.343c-.642,0-1.284-.018-1.924.007-.321.012-.411-.085-.405-.405.021-1.018.007-2.038.007-3.057s.013-2.038-.007-3.057c-.006-.318.082-.412.4-.406,1.132.019,2.268-.047,3.4.019a3.447,3.447,0,0,1,3.637,2.887A3.3,3.3,0,0,1,412.974,825.046Z" transform="translate(-403.249 -794.043)"/><path class="a" d="M607.608,882.606a8.594,8.594,0,0,0-3.354-5.154,8,8,0,0,0-4.519-1.609c-1.187-.05-2.377-.011-3.566-.009-.631,0-.836.2-.837.823q0,3.877,0,7.755v7.529c0,.948.16,1.112,1.085,1.112.943,0,1.887.012,2.83,0a8.637,8.637,0,0,0,7.927-5.343A8.286,8.286,0,0,0,607.608,882.606Zm-6.505,8.856a11.044,11.044,0,0,1-3.278.229c-1.133.007-1.133,0-1.133-1.132v-6.23c0-2.266.009-4.531-.009-6.8,0-.371.1-.469.464-.463a13.191,13.191,0,0,1,4.294.456,7.062,7.062,0,0,1,4.861,5.431A7.206,7.206,0,0,1,601.1,891.462Z" transform="translate(-505.699 -826.702)"/><path class="a" d="M505.646,892.619q-1.425-3.855-2.857-7.706-1.438-3.88-2.878-7.758a.765.765,0,0,0-1.489-.014q-1.39,3.724-2.773,7.449c-.763,2.039-1.542,4.073-2.3,6.115a15.183,15.183,0,0,0-.758,2.2c-.007.643.223.837.726.776.354-.043.473-.306.577-.575.439-1.134.9-2.262,1.281-3.416a.526.526,0,0,1,.618-.436c2.207.01,4.415.028,6.621-.012a.744.744,0,0,1,.825.59q.6,1.607,1.219,3.2c.231.6.576.83.976.614C505.876,893.41,505.786,893,505.646,892.619ZM495.8,888l3.384-8.953L502.544,888Z" transform="translate(-450.766 -827.097)"/><path class="a" d="M413.71,879.834a4.837,4.837,0,0,0-4.744-3.5c-1.452-.011-2.9,0-4.358,0-.967,0-1.123.157-1.123,1.132v7.527q0,3.848,0,7.7c0,.576.245.869.7.863.524-.007.661-.18.661-.849q0-2.971,0-5.942c0-.234-.08-.485.336-.466,1.426.064,2.846-.192,4.274-.107a1.684,1.684,0,0,0,.452,0A4.921,4.921,0,0,0,413.71,879.834Zm-4.941,5.121c-1.147-.062-2.3-.031-3.451,0-.41.011-.494-.117-.484-.5.028-1.055.01-2.112.01-3.168,0-1.075.011-2.151-.007-3.225-.005-.3.089-.375.38-.373,1.376.014,2.756-.04,4.13.019a3.636,3.636,0,0,1-.577,7.248Z" transform="translate(-403.118 -826.977)"/></g><g transform="translate(199.213 737.613)"><path class="a" d="M263.654,753.56c-1.1-.172-2.238-1.34-2.238-4.229s2.369-3.353,2.369-6.257-1.8-5.462-4.991-5.462a6.206,6.206,0,0,0-5.8,6.344c0,3.968,1.757,5.494,3.529,5.933,1.625.4,1.383,1.163,1.235,2.238-.114.833-.568,1.032-1.115,1.032-3.943,0-6.5,3.968-12.926,3.968-8.8,0-8.667-5-21.05-5-11.089,0-23.456,9.568-23.456,23.76,0,25.418,42.213,51.781,42.213,51.781S283.64,801.4,283.64,776.157C283.64,761.966,273.57,755.117,263.654,753.56Zm-60.133,23.105a22.242,22.242,0,0,1,.144-2.534c1.206-10.551,9.931-17.578,21.083-17.578,8.725,0,10.835,4.957,18.625,4.957a9.033,9.033,0,0,0,3.15-.557c-1.052,3.721-8.736,11.641-18.819,14.5l.02-.006s7.686.978,17.93-3.916c0,0-8.023,14.284-8.023,37.185a100.31,100.31,0,0,0,.67,11.533C229.315,813.869,203.522,794.047,203.522,776.666Zm37.823,45.676s-.9-.586-2.421-1.654c0,0,5.438-26.245,17.962-37.727,0,0,4.411,12.091,9.346,18.631A149.508,149.508,0,0,1,241.345,822.342Zm27.516-55.673s7.039,1.221,9.657,4.853a21.948,21.948,0,0,1,.64,5.383c0,5.278-2.371,10.761-5.925,16.017C268.831,783.278,268.861,766.669,268.861,766.669Z" transform="translate(-199.213 -737.613)"/><g transform="translate(16.686 43.825)"><path class="a" d="M240.806,845.119c0-.711-.029-1.424.011-2.134.025-.441-.135-.524-.539-.517-1.385.024-2.771.012-4.157.008-.833,0-1.047-.222-1.047-1.063q0-1.432,0-2.864c0-.791.225-1.014,1.038-1.016,1.4,0,2.809-.017,4.212.008.406.007.5-.123.491-.507-.022-1.4-.011-2.809-.008-4.212,0-.7.315-1.019,1.017-1.021.917,0,1.835,0,2.752,0,.94,0,1.125.31,1.16,1.173.057,1.364.027,2.733.007,4.1-.006.37.1.474.471.469,1.366-.021,2.733-.01,4.1-.007.84,0,1.166.33,1.168,1.173,0,.8.012,1.61,0,2.415-.019,1.1-.318,1.384-1.326,1.363-1.273-.027-2.547.013-3.819-.018-.453-.011-.611.087-.6.574.036,1.291.032,2.584.006,3.875-.02,1.011-.3,1.321-1.272,1.3-.9-.021-1.8,0-2.7-.006a.863.863,0,0,1-.969-.955C240.8,846.542,240.806,845.831,240.806,845.119Z" transform="translate(-235.073 -831.8)"/></g></g></g></svg>