<svg xmlns="http://www.w3.org/2000/svg" width="164.944" height="69.737" viewBox="0 0 164.944 69.737"><defs><style>.a{fill:#1d1d1b;}.b{fill:#f0e200;}.c{fill:#00a6d3;}.d{fill:#fff;}.e{fill:#e11470;}</style></defs><g transform="translate(-319.108 -441.391)"><g transform="translate(451.071 462.847)"><path class="a" d="M699.182,505.945a6.611,6.611,0,0,1-2.738-.71,2.618,2.618,0,0,0-1.237-.27,1.135,1.135,0,0,0-.84.582c-.2.283-.36.6-.76.709a1,1,0,0,1-1.025-.245.883.883,0,0,1-.239-.925,3.724,3.724,0,0,1,1.419-2.335,2.637,2.637,0,0,1,2.206-.274c.879.211,1.663.684,2.541.888a1.126,1.126,0,0,0,1.324-.514c.259-.453.58-.856,1.222-.771a1,1,0,0,1,.872.9,3.444,3.444,0,0,1-2.075,2.906A3.517,3.517,0,0,1,699.182,505.945Z" transform="translate(-692.303 -502.069)"/></g><g transform="translate(430.247 469.339)"><path class="a" d="M640.439,526.975c1.493-2.052,2.959-4.071,4.432-6.085a1.633,1.633,0,0,1,1.779-.326,1.483,1.483,0,0,1,.764,1.648,4.529,4.529,0,0,1-.946,1.536c-1.086,1.528-2.207,3.03-3.315,4.542a5.47,5.47,0,0,1-.569.746c-.291.278-.3.476-.047.81,1.1,1.449,2.156,2.927,3.231,4.393.5.676,1.038,1.323,1.478,2.033a1.445,1.445,0,0,1-.187,1.807,1.541,1.541,0,0,1-1.734.295,4.751,4.751,0,0,1-1.349-1.55c-1.135-1.542-2.244-3.1-3.365-4.658-.093-.129-.141-.2-.294.007-1.081,1.5-2.191,2.977-3.288,4.464-.363.492-.709,1-1.112,1.461a1.477,1.477,0,0,1-2.01.071,1.514,1.514,0,0,1-.241-1.946c.954-1.326,1.929-2.636,2.893-3.955.62-.848,1.223-1.709,1.858-2.545a.386.386,0,0,0,0-.538c-.865-1.165-1.735-2.325-2.6-3.491-.726-.982-1.457-1.961-2.162-2.958a1.513,1.513,0,0,1,.353-2.023,1.589,1.589,0,0,1,2.108.34c1.28,1.826,2.636,3.6,3.96,5.395C640.194,526.606,640.3,526.772,640.439,526.975Z" transform="translate(-633.412 -520.429)"/></g><g transform="translate(423.146 469.182)"><path class="a" d="M613.334,529.107v-7.674a1.3,1.3,0,0,1,1.229-1.447c1.119-.01,1.747.509,1.752,1.465.007,1.359,0,2.719,0,4.079q0,5.548,0,11.1a1.5,1.5,0,0,1-2.986.245C613.346,534.282,613.334,531.695,613.334,529.107Z" transform="translate(-613.328 -519.986)"/></g><g transform="translate(403.765 491.374)"><path class="a" d="M558.52,589.443q0-2.96,0-5.92c0-.619.151-.775.751-.775q3.2,0,6.4,0a.6.6,0,0,1,.637.343.534.534,0,0,1-.224.649.628.628,0,0,1-.418.059c-1.9.005-3.8.012-5.7-.005-.328,0-.409.075-.4.4.02,1.476.017,2.953,0,4.429,0,.287.074.36.359.358,1.7-.014,3.391,0,5.087-.014.354,0,.509.136.524.464.016.362-.181.51-.528.509-1.681,0-3.362.01-5.043-.01-.336,0-.4.088-.4.409q.028,2.214,0,4.429c0,.3.086.355.364.354,1.944-.012,3.888,0,5.832-.01.328,0,.583.037.568.455-.014.368-.163.523-.56.521-2.207-.016-4.414-.007-6.622-.008-.516,0-.627-.112-.627-.63Q558.518,592.447,558.52,589.443Z" transform="translate(-558.519 -582.745)"/></g><g transform="translate(441.989 491.25)"><path class="a" d="M672.293,593.805c.51-1.2,1.022-2.4,1.525-3.6.983-2.348,1.951-4.7,2.952-7.043.124-.29.158-.74.661-.728a.489.489,0,0,1,.48.706c-.481,1.155-.97,2.307-1.456,3.46-.611,1.452-1.219,2.905-1.835,4.355-.534,1.256-1.08,2.508-1.618,3.762a3.207,3.207,0,0,0-.213.549.52.52,0,0,1-.492.406.485.485,0,0,1-.528-.343q-.719-1.734-1.444-3.466-.758-1.81-1.52-3.618-.865-2.062-1.727-4.125c-.125-.3-.276-.587-.384-.891-.1-.278-.15-.587.164-.768a.589.589,0,0,1,.808.348q1.083,2.611,2.165,5.222,1.137,2.726,2.286,5.448C672.164,593.591,672.234,593.7,672.293,593.805Z" transform="translate(-666.618 -582.393)"/></g><g transform="translate(414.985 491.38)"><path class="a" d="M590.259,589.445c0-2.017.01-4.033-.008-6.049,0-.382.16-.583.492-.628.383-.051.5.245.564.553a1.8,1.8,0,0,1,0,.35c0,3.668.008,7.336-.011,11,0,.4.116.466.481.462,1.914-.019,3.828,0,5.742-.013.347,0,.549.077.55.479s-.179.5-.535.494c-2.221-.009-4.442,0-6.663,0-.51,0-.616-.111-.616-.641Q590.258,592.448,590.259,589.445Z" transform="translate(-590.251 -582.762)"/></g><g transform="translate(456.222 491.198)"><path class="a" d="M707.835,588.964c0,2.03-.007,4.06.007,6.091,0,.352-.133.52-.46.524-.354,0-.513-.2-.513-.55q0-6.113,0-12.225c0-.366.149-.553.529-.557s.441.224.441.539C707.832,584.844,707.835,586.9,707.835,588.964Z" transform="translate(-706.868 -582.246)"/></g><g transform="translate(466.122 468.617)"><path class="a" d="M752.667,526.247a9.4,9.4,0,0,0-3.7-6.139,8.31,8.31,0,0,0-7.61-1.35,8.176,8.176,0,0,0-4.229,2.805,9.55,9.55,0,0,0-1.913,3.692c-.145.56-.174,1.136-.331,1.689a11.206,11.206,0,0,0,.2,2.925,9.352,9.352,0,0,0,2.9,5.055,9.206,9.206,0,0,0,3.122,1.836,9.469,9.469,0,0,0,3.424.452,9.623,9.623,0,0,0,2.581-.643,9.639,9.639,0,0,0,5.555-10.323Zm-2.957,1.027a5.2,5.2,0,0,0,0,.526,6.606,6.606,0,0,1-1.649,4.357,5.617,5.617,0,0,1-3.47,1.951,5.085,5.085,0,0,1-3.316-.6,6.239,6.239,0,0,1-2.647-2.789,6.483,6.483,0,0,1,.339-6.421,5.721,5.721,0,0,1,3.18-2.563,5.21,5.21,0,0,1,4.944.8,6.25,6.25,0,0,1,2.532,4.24A1.9,1.9,0,0,1,749.71,527.274Z" transform="translate(-734.867 -518.386)"/></g><g transform="translate(473.351 491.277)"><path class="a" d="M765.49,594.91c-.559-1.486-1.106-2.974-1.66-4.462q-1.426-3.831-2.854-7.661a.447.447,0,0,0-.487-.32.553.553,0,0,0-.6.37c-.453,1.226-.887,2.458-1.361,3.675a14.516,14.516,0,0,1-.777,1.942,8.686,8.686,0,0,1-.537,1.549c-.6,1.65-1.219,3.293-1.838,4.936-.138.366-.057.654.285.75a.522.522,0,0,0,.688-.392c.325-.883.7-1.749.987-2.643.112-.348.3-.354.569-.353,1.693,0,3.387.02,5.08-.011a.572.572,0,0,1,.639.454c.3.834.587,1.669.9,2.5a.539.539,0,1,0,.971-.333Zm-4.278-3.658c-.979,0-1.957,0-2.935,0-.277,0-.428.006-.282-.364.549-1.383,1.062-2.781,1.587-4.174.238-.631.476-1.262.7-1.9a1.119,1.119,0,0,1,.205-.377l2.551,6.809Z" transform="translate(-755.309 -582.468)"/></g><g transform="translate(448.597 469.167)"><path class="a" d="M699.778,536.41a16.015,16.015,0,0,0-.618-1.749q-1.114-3.005-2.231-6.01c-.949-2.541-1.908-5.079-2.856-7.621a1.625,1.625,0,0,0-1.213-1.076,1.462,1.462,0,0,0-1.717.89c-.668,1.67-1.267,3.368-1.9,5.054-.576,1.541-1.159,3.078-1.734,4.62-.712,1.91-1.4,3.827-2.132,5.732a1.591,1.591,0,0,0,.793,1.866,1.528,1.528,0,0,0,2.025-.879c.4-1.036.811-2.067,1.2-3.107.058-.156.091-.229.276-.228q2.916.012,5.831,0c.147,0,.2.032.256.194.326.928.7,1.84,1.031,2.766.348.969.766,1.34,1.581,1.34A1.411,1.411,0,0,0,699.778,536.41Zm-9.038-5.4c-.262,0-.18-.128-.119-.284q.941-2.44,1.868-4.885a.818.818,0,0,0,.026-.166l.087.013,2.012,5.322Z" transform="translate(-685.305 -519.942)"/></g><g transform="translate(405.075 469.172)"><path class="a" d="M576.62,536.237q-1.326-3.625-2.682-7.239c-1-2.673-2.019-5.339-3.02-8.011a1.434,1.434,0,0,0-1.219-1.023c-1-.071-1.446.311-1.644.824-.891,2.308-1.734,4.635-2.6,6.952-.883,2.357-1.788,4.706-2.655,7.069a5.213,5.213,0,0,0-.575,1.89,1.465,1.465,0,0,0,1.092,1.513,1.624,1.624,0,0,0,1.717-.8c.406-1.048.814-2.1,1.185-3.156a.423.423,0,0,1,.486-.343c1.827.01,3.654.016,5.481,0a.473.473,0,0,1,.528.358c.362.975.741,1.945,1.092,2.924a1.523,1.523,0,0,0,1.908,1A1.493,1.493,0,0,0,576.62,536.237Zm-5.436-5.216c-1.241,0-2.482,0-3.775,0l2.035-5.433c.544,1.437,1.051,2.776,1.557,4.116.129.341.227.7.383,1.024C571.51,530.992,571.415,531.022,571.184,531.021Z" transform="translate(-562.225 -519.955)"/></g><g transform="translate(392.428 453.155)"><g transform="translate(0)"><path class="a" d="M532.954,486.1a4.8,4.8,0,0,0,3.128-1.1.482.482,0,0,1,.691.036.5.5,0,0,1,.016.707,2.274,2.274,0,0,1-.619.432,6.74,6.74,0,0,1-3.589.923,6.245,6.245,0,0,1-6.028-5.121,6.152,6.152,0,0,1,4.6-7.09,6.324,6.324,0,0,1,5.447,1.033c.311.219.424.442.236.755-.208.346-.528.267-.786.08a5.789,5.789,0,0,0-2.031-.965,5.26,5.26,0,0,0-4.435.9,5.107,5.107,0,0,0-2.108,3.358,5.257,5.257,0,0,0,4.109,5.965A7.47,7.47,0,0,0,532.954,486.1Z" transform="translate(-526.459 -474.66)"/></g><g transform="translate(17.218 3.797)"><path class="a" d="M576.169,488.526c0,.72.029,1.442-.007,2.16a2.529,2.529,0,0,0,2.032,2.342,2.566,2.566,0,0,0,3-1.943,1.394,1.394,0,0,0,.035-.406c0-1.517.007-3.034,0-4.552,0-.376.106-.664.5-.727.3-.047.514.271.515.706,0,1.425.042,2.852-.01,4.275a3.523,3.523,0,0,1-6.8,1.391,5.36,5.36,0,0,1-.264-1.671c-.02-1.272-.007-2.544-.006-3.816a1.717,1.717,0,0,1,.082-.573.426.426,0,0,1,.44-.305.392.392,0,0,1,.4.294,2.017,2.017,0,0,1,.091.525C576.164,486.994,576.169,487.76,576.169,488.526Z" transform="translate(-575.152 -485.397)"/></g><g transform="translate(13.26 0.205)"><path class="a" d="M563.965,481.364q0-2.78,0-5.561c0-.3.017-.571.413-.562.36.009.519.167.517.565-.014,3.677-.008,7.353-.008,11.03,0,.221.019.436-.232.576a.519.519,0,0,1-.509-.022c-.238-.1-.176-.293-.177-.465Q563.962,484.145,563.965,481.364Z" transform="translate(-563.959 -475.241)"/></g><g transform="translate(28.074 0.204)"><path class="a" d="M612.457,479.7a4.1,4.1,0,0,0-5.675.714c0-1.582,0-3.084,0-4.586,0-.35-.114-.581-.5-.591s-.426.246-.425.552q.006,5.567,0,11.134c0,.342.121.545.439.541s.5-.228.49-.574c-.008-.283,0-.566,0-.9a4.161,4.161,0,0,0,6.537-.237A4.372,4.372,0,0,0,612.457,479.7Zm-2.464,6.763a3.271,3.271,0,0,1-3.221-3.345,3.329,3.329,0,0,1,3.3-3.285,3.278,3.278,0,0,1,3.13,3.327A3.2,3.2,0,0,1,609.993,486.465Z" transform="translate(-605.854 -475.238)"/></g><g transform="translate(38.861 3.866)"><path class="a" d="M643.524,486.866a3.91,3.91,0,0,0-3.322-1.26,3.826,3.826,0,0,0-2.934,1.58,4.254,4.254,0,0,0-.836,3.448,4.155,4.155,0,0,0,1.779,2.793,3.916,3.916,0,0,0,2.961.664,4.1,4.1,0,0,0,2.8-1.82.481.481,0,0,0-.1-.718.5.5,0,0,0-.714.182,2.967,2.967,0,0,1-3.194,1.418,3.09,3.09,0,0,1-1.892-1.14,3.961,3.961,0,0,1-.8-1.984h.5c2.131,0,4.262-.009,6.393.008.371,0,.47-.115.466-.474A3.971,3.971,0,0,0,643.524,486.866Zm-.206,2.243q-2.272,0-4.544,0h-1.4a3.281,3.281,0,0,1,2.438-2.5,3.157,3.157,0,0,1,3.784,2.255C643.691,489.163,643.476,489.109,643.318,489.109Z" transform="translate(-636.357 -485.594)"/></g></g><g transform="translate(392.799 469.181)"><path class="a" d="M539.118,524.265a5.258,5.258,0,0,0-2.088-3.211,4.907,4.907,0,0,0-2.9-1.069c-1.753-.006-3.506,0-5.26,0a1.335,1.335,0,0,0-1.362,1.365q0,3.857,0,7.714,0,3.835,0,7.67a1.547,1.547,0,0,0,.049.465,1.5,1.5,0,0,0,2.929-.443c0-1.754.01-3.507-.007-5.26,0-.311.077-.4.384-.379.378.029.76.007,1.139.007a17.153,17.153,0,0,0,2.495-.024,5.367,5.367,0,0,0,3.555-2.05A5.507,5.507,0,0,0,539.118,524.265Zm-4.45,3.7a6.01,6.01,0,0,1-2.379.266c-.5,0-.994-.014-1.49.005-.249.01-.319-.065-.314-.314.016-.789.006-1.578.006-2.367s.01-1.578-.006-2.367c-.005-.246.063-.319.313-.315.877.015,1.756-.036,2.63.016a2.669,2.669,0,0,1,2.816,2.236A2.554,2.554,0,0,1,534.669,527.963Z" transform="translate(-527.509 -519.981)"/></g><g transform="translate(461.838 491.189)"><path class="a" d="M732.257,587.477a6.655,6.655,0,0,0-2.6-3.991,6.2,6.2,0,0,0-3.5-1.246c-.919-.039-1.841-.008-2.761-.007-.489,0-.648.156-.648.637q0,3,0,6.005v5.83c0,.734.124.861.84.861s1.461.009,2.192,0a6.687,6.687,0,0,0,6.138-4.137A6.421,6.421,0,0,0,732.257,587.477Zm-5.038,6.858a8.557,8.557,0,0,1-2.538.177c-.878.006-.878,0-.878-.877v-4.824c0-1.754.007-3.508-.007-5.263,0-.287.074-.363.359-.358a10.2,10.2,0,0,1,3.325.353,5.468,5.468,0,0,1,3.764,4.206A5.58,5.58,0,0,1,727.219,594.335Z" transform="translate(-722.75 -582.221)"/></g><g transform="translate(424.82 491.455)"><path class="a" d="M628.169,595.412q-1.1-2.985-2.212-5.968-1.113-3-2.229-6.008a.592.592,0,0,0-1.153-.011q-1.076,2.883-2.148,5.768c-.591,1.58-1.194,3.154-1.779,4.735a11.715,11.715,0,0,0-.587,1.7c-.005.5.173.648.562.6.274-.033.366-.237.447-.444.34-.878.7-1.752.992-2.645a.408.408,0,0,1,.479-.338c1.709.008,3.418.022,5.127-.009a.575.575,0,0,1,.638.456q.463,1.244.944,2.482c.179.463.446.643.756.475C628.348,596.024,628.278,595.707,628.169,595.412Zm-7.622-3.576,2.621-6.933,2.6,6.933Z" transform="translate(-618.063 -582.974)"/></g><g transform="translate(392.712 491.374)"><path class="a" d="M535.179,585.456a3.747,3.747,0,0,0-3.674-2.708c-1.125-.009-2.25,0-3.374,0-.749,0-.87.121-.87.877q0,2.914,0,5.828,0,2.98,0,5.96c0,.447.19.673.539.669.406-.006.512-.139.512-.657q0-2.3,0-4.6c0-.181-.062-.376.26-.361,1.1.05,2.2-.148,3.31-.083a1.314,1.314,0,0,0,.35,0A3.811,3.811,0,0,0,535.179,585.456Zm-3.826,3.966c-.888-.048-1.782-.024-2.672,0-.318.009-.383-.09-.375-.388.021-.817.007-1.635.007-2.453s.009-1.665-.005-2.5c0-.234.069-.291.293-.289,1.066.011,2.134-.031,3.2.015a2.816,2.816,0,0,1-.447,5.613Z" transform="translate(-527.26 -582.744)"/></g><g transform="translate(319.108 441.391)"><path class="a" d="M351.8,511.128s-32.69-20.414-32.69-40.1c0-10.99,9.577-18.4,18.164-18.4,9.589,0,9.483,3.871,16.3,3.871,4.974,0,6.956-3.072,10.009-3.072.424,0,.775-.154.864-.8.115-.833.3-1.422-.957-1.733-1.372-.34-2.733-1.522-2.733-4.594a4.806,4.806,0,0,1,4.49-4.913c2.472,0,3.865,1.981,3.865,4.229s-1.834,2.608-1.834,4.845.885,3.141,1.733,3.274c7.679,1.206,15.477,6.509,15.477,17.5C384.487,490.784,351.8,511.128,351.8,511.128Z" transform="translate(-319.108 -441.391)"/><g transform="translate(30.752 35.118)"><path class="b" d="M406.076,569.919c1.178.826,1.874,1.28,1.874,1.28a115.8,115.8,0,0,0,19.272-16.068c-3.822-5.065-7.237-14.427-7.237-14.427C410.287,549.595,406.077,569.915,406.076,569.919Z" transform="translate(-406.076 -540.704)"/></g><g transform="translate(3.337 26.265)"><path class="c" d="M354.959,544.465a77.686,77.686,0,0,0,.519,8.931c-6.959-4.94-26.933-20.29-26.933-33.75a17.2,17.2,0,0,1,.111-1.962,40.847,40.847,0,0,0,12.906,1.841,20.916,20.916,0,0,0,5.725-.822s5.951.757,13.885-3.032C361.172,515.67,354.959,526.731,354.959,544.465Z" transform="translate(-328.545 -515.67)"/></g><g transform="translate(12.921 33.955)"><path class="d" d="M360.063,547.645V546c0-.34-.1-.4-.417-.4h-3.194c-.638,0-.8-.17-.8-.813V542.61c0-.612.17-.782.8-.782h3.235c.314,0,.386-.093.38-.391V538.2a.694.694,0,0,1,.782-.787h2.119c.72,0,.864.237.89.9.041,1.029,0,2.1,0,3.153,0,.283.082.365.36.36h3.153c.648,0,.895.252.9.9s0,1.24,0,1.857c0,.844-.242,1.065-1.029,1.029h-2.932c-.35,0-.473.067-.463.442.031.988,0,1.985,0,2.978,0,.777-.226,1.029-.977,1s-1.379,0-2.058,0a.663.663,0,0,1-.74-.735C360.058,548.741,360.063,548.19,360.063,547.645Z" transform="translate(-355.65 -537.415)"/></g><g transform="translate(3.448 14.668)"><path class="d" d="M362.047,486.279a6.994,6.994,0,0,1-2.439.431c-6.031,0-7.666-3.838-14.422-3.838-8.636,0-15.393,5.441-16.327,13.612a40.833,40.833,0,0,0,12.905,1.84C352.236,498.323,361.043,489.831,362.047,486.279Z" transform="translate(-328.859 -482.871)"/></g><g transform="translate(53.934 22.5)"><path class="e" d="M471.635,505.022s-.023,12.862,3.386,20.329c2.752-4.07,4.588-8.316,4.588-12.4a17,17,0,0,0-.5-4.168C477.085,505.968,471.635,505.022,471.635,505.022Z" transform="translate(-471.635 -505.022)"/></g></g></g></svg>