<svg xmlns="http://www.w3.org/2000/svg" width="53.14" height="72.215" viewBox="0 0 53.14 72.215"><defs><style>.a{fill:#df1b6f;}.b{fill:#2c2f33;}</style></defs><g transform="translate(-1696.03 -241.5)"><g transform="translate(1709.72 290.993)"><g transform="translate(0 0)"><path class="a" d="M1812.563,577.653a7.453,7.453,0,0,0-12.724-5.27l-.091.09-.09-.09a7.448,7.448,0,0,0-10.525,10.54l9.547,9.546.015.015a1.482,1.482,0,0,0,1.054.437h0a1.481,1.481,0,0,0,1.054-.437l9.561-9.562A7.318,7.318,0,0,0,1812.563,577.653Zm-4.292,3.162-8.507,8.507-8.523-8.522a4.467,4.467,0,1,1,6.309-6.324l1.144,1.144a1.482,1.482,0,0,0,2.108,0l1.145-1.144a4.465,4.465,0,0,1,7.619,3.162A4.387,4.387,0,0,1,1808.271,580.815Z" transform="translate(-1786.95 -570.2)"/></g></g><path class="b" d="M1743.284,290.386l-10.879-5.44a2.621,2.621,0,0,1-1.456-2.357v-3.717c.24-.3.491-.635.748-1a26.394,26.394,0,0,0,3.362-6.55,4.927,4.927,0,0,0,2.722-4.391v-4.555a4.9,4.9,0,0,0-1.14-3.129v-5.9a10.54,10.54,0,0,0-2.475-7.7c-2.413-2.754-6.305-4.15-11.567-4.15s-9.151,1.4-11.567,4.149c-1.733,1.978-2.483,6.484-2.483,8.346v.233l.008,0v5.017a4.9,4.9,0,0,0-1.14,3.129v4.555a4.941,4.941,0,0,0,.125,1.1,1.966,1.966,0,0,0,.1.292c.016.041.033.082.047.124s.031.1.046.146a3.707,3.707,0,0,0,.138.393l.034.074v0l0,.006a4.989,4.989,0,0,0,1.26,1.62c.065.249.134.494.206.732l.092.3c.009.03.02.059.03.089s.016.046.025.075l.04.123c.027.084.054.167.082.246.069.2.142.411.226.639.021.056.043.109.066.163.015.037.031.074.047.115.1.255.195.486.291.711.01.023.019.046.029.07s.027.066.04.1l.065.147c.016.036.033.071.05.1l.041.087c.124.27.229.495.34.719.008.016.016.032.024.049l.029.061c.058.117.117.229.176.341l.043.081c.11.211.228.427.369.677.06.107.119.211.179.314.16.274.321.538.48.792l.039.062c.02.032.04.064.058.091.254.393.5.75.726,1.064l.141.19.008.01v3.647a2.634,2.634,0,0,1-1.371,2.312l-2.914,1.59-.06-.005-.113.081a3.875,3.875,0,0,1-.69.4l-6.385,3.482a10.653,10.653,0,0,0-5.549,9.353v.017s.109,2.381.176,3.8a1.454,1.454,0,0,0,2.906-.069V301.86h-.053v-2.171a7.617,7.617,0,0,1,3.972-6.691l10.161-5.541a5.667,5.667,0,0,0,2.951-4.974v-4.714l-.349-.415-.016-.02c-.027-.034-.084-.106-.171-.22l-.025-.03c-.053-.069-.113-.15-.181-.245l-.016-.03-.018-.018c-.21-.293-.4-.578-.592-.872l-.017-.026c-.112-.174-.228-.36-.346-.557l-.018-.031-.008-.014c-.274-.459-.539-.94-.787-1.432l0-.006c-.151-.3-.293-.606-.422-.895l-.06-.135c-.049-.111-.1-.227-.147-.345l-.134-.331c-.049-.124-.1-.251-.152-.391-.11-.293-.218-.612-.323-.947l-.062-.2c0-.014-.009-.03-.017-.054l0-.016c-.123-.414-.215-.759-.291-1.084l-.138-.6-.517-.335a1.894,1.894,0,0,1-.881-1.593v-4.555a1.877,1.877,0,0,1,.639-1.4l.5-.451V252.86a9,9,0,0,1,1.726-5.213c1.81-2.068,4.935-3.116,9.287-3.116,4.336,0,7.454,1.041,9.269,3.094a7.614,7.614,0,0,1,1.757,5.449l-.013,7.451.5.453a1.871,1.871,0,0,1,.639,1.4v4.555a1.888,1.888,0,0,1-1.353,1.8l-.755.232-.243.75a23.485,23.485,0,0,1-3.177,6.406,14.531,14.531,0,0,1-.929,1.2l-.376.429v4.84a5.634,5.634,0,0,0,3.131,5.068l10.879,5.439a7.578,7.578,0,0,1,4.213,6.816v1.95h-.05v1.491a1.54,1.54,0,0,0,3.079,0V299.91A10.591,10.591,0,0,0,1743.284,290.386Z" transform="translate(0 0)"/></g></svg>