<svg xmlns="http://www.w3.org/2000/svg" width="76.095" height="50.147" viewBox="0 0 76.095 50.147"><defs><style>.a{fill:#00a1c8;}.b{fill:#2c2f33;}</style></defs><g transform="translate(-1797 -837.528)"><g transform="translate(1797 837.528)"><g transform="translate(0)"><path class="a" d="M1797.154,863.506a1.5,1.5,0,0,0,.885.777l9.723,3.34a1.387,1.387,0,0,0,.5.078,1.549,1.549,0,0,0,1.46-1.041l7.627-22.258.388.14a7.888,7.888,0,0,0,6.058-.342l.948-.466a4.764,4.764,0,0,1,3.635-.217l17.738,6.12a3.426,3.426,0,0,1-1.165,1.911c-.714.5-1.817.5-3.262,0l-7.953-2.718a1.539,1.539,0,0,0-1.227.109,1.574,1.574,0,0,0-.761.963c-.016.047-1.134,4.147-4.582,6-2.175,1.165-4.893,1.2-8.077.109a1.542,1.542,0,1,0-.994,2.92,16.426,16.426,0,0,0,5.281.963,11.009,11.009,0,0,0,5.266-1.289,12.944,12.944,0,0,0,5.514-6.353l6.524,2.237c2.423.823,4.442.7,6.011-.388,2.47-1.709,2.641-5.048,2.656-5.421a1.573,1.573,0,0,0-1.041-1.507l-18.95-6.539a7.877,7.877,0,0,0-6,.373l-.948.466a4.811,4.811,0,0,1-3.681.217l-1.569-.559a1.029,1.029,0,0,0-.3-.14l-9.677-3.371a1.539,1.539,0,0,0-1.957.963l-8.155,23.765A1.6,1.6,0,0,0,1797.154,863.506Zm10.5-22.491,6.8,2.33-7.145,20.86-6.8-2.33Z" transform="translate(-1797 -837.528)"/><path class="b" d="M1893.749,878.343a4.5,4.5,0,0,0,3.9,2.516,4.635,4.635,0,0,0,.45,1.973,4.432,4.432,0,0,0,2.594,2.283,4.41,4.41,0,0,0,3.433-.217l.808-.4a4.659,4.659,0,0,0,.419,1.4,4.432,4.432,0,0,0,2.594,2.283,4.41,4.41,0,0,0,3.433-.217l17.661-8.652a45.472,45.472,0,0,0,10.811-7.378l3.945-3.619,9.024-4.411a1.53,1.53,0,0,0,.7-2.05l-11-22.569a1.542,1.542,0,0,0-2.066-.7l-9.226,4.52a1.53,1.53,0,0,0-.7,2.05l10.531,21.528-3.262,3a42.913,42.913,0,0,1-10.081,6.881l-17.661,8.652a1.428,1.428,0,0,1-1.1.062,1.463,1.463,0,0,1-.823-.73,1.428,1.428,0,0,1-.062-1.1,1.462,1.462,0,0,1,.73-.823l9.879-4.831a1.532,1.532,0,1,0-1.351-2.749l-9.879,4.831h0l-4.66,2.283a1.428,1.428,0,0,1-1.1.062,1.463,1.463,0,0,1-.823-.73,1.428,1.428,0,0,1-.062-1.1,1.462,1.462,0,0,1,.73-.823l14.166-6.928a1.532,1.532,0,0,0-1.351-2.749l-15.921,7.782a1.459,1.459,0,0,1-1.926-.652,1.427,1.427,0,0,1-.062-1.1,1.463,1.463,0,0,1,.73-.823l6.275-3.076h0l8.155-3.992a1.532,1.532,0,0,0-1.351-2.749l-12.69,6.213a1.438,1.438,0,1,1-1.274-2.578l6.741-3.293a1.532,1.532,0,0,0-1.351-2.749l-6.741,3.293a4.514,4.514,0,0,0-.792,7.611A4.44,4.44,0,0,0,1893.749,878.343Zm40.214-33.162,6.462-3.169,9.692,19.8-6.462,3.169Z" transform="translate(-1877.582 -838.277)"/></g></g></g></svg>